<svg width="1920" height="713" viewBox="0 0 1920 713" fill="none" xmlns="http://www.w3.org/2000/svg">
<g clip-path="url(#clip0_374_11103)">
<rect width="1920" height="713" fill="#182631"/>
<g filter="url(#filter0_f_374_11103)">
<circle cx="1818.5" cy="69.5" r="420.5" fill="#0E558B"/>
</g>
<g filter="url(#filter1_f_374_11103)">
<circle cx="-73.5" cy="646.5" r="326.5" fill="#0E558B"/>
</g>
<g opacity="0.08">
<path d="M848.158 -205.086C749.657 -257.748 626.968 -258.145 527.624 -206.812C477.291 -180.848 434.082 -142.344 401.747 -95.6546C364.941 -42.6413 357.167 13.2442 335.297 72.0041C318.301 117.76 294.936 161.725 259.174 195.431C222.254 230.383 173.058 252.845 122.588 258.243C38.269 267.348 -29.7609 216.951 -111.245 206.989C-184.978 197.924 -261.866 225.774 -313.157 279.678C-364.447 333.582 -388.437 412.43 -375.773 485.747" stroke="#F2F2F2" stroke-miterlimit="10"/>
<path d="M854.85 -210.836C757.392 -263.289 636.321 -264.148 537.573 -214.11C486.388 -188.375 441.535 -149.363 408.953 -102.263C399.216 -88.2894 392.004 -73.716 385.525 -59.1797C367.367 -18.4047 359.541 23.4556 343.706 67.2806C340.6 75.9436 336.285 84.946 332.771 93.3656C316.869 130.368 295.962 164.741 266.557 192.424C250.39 207.675 232.612 220.165 212.594 230.067C186.492 242.977 157.214 251.314 128.254 254.21C124.021 254.586 120.19 254.914 116.079 255.086C46.881 258.01 -11.5651 227.788 -74.3444 216.969C-84.0136 215.341 -93.8247 214.044 -103.676 213.414C-144.466 210.898 -186.514 220.507 -224.028 239.328C-251.695 253.239 -277.343 272.549 -298.712 296.04C-313.291 312.101 -325.564 329.359 -335.845 348.405C-361.223 395.245 -373.628 449.294 -367.682 497.145" stroke="#E7EBEC" stroke-miterlimit="10"/>
<path d="M859.684 -217.098C763.215 -269.377 643.009 -270.966 544.804 -222.435C492.903 -196.729 448.452 -157.383 415.671 -109.729C405.977 -95.598 397.408 -80.9363 390.872 -66.301C372.686 -25.0045 364.581 18.0819 348.885 62.3891C345.721 71.1528 342.893 79.609 339.322 88.1289C323.554 125.613 301.817 161.156 272.081 188.904C255.748 204.186 237.695 216.388 217.26 226.034C190.738 238.684 161.922 246.009 132.575 248.805C128.339 249.178 124.001 250.37 119.887 250.54C49.6177 253.502 -8.76193 228.649 -69.4922 222.368C-78.8433 221.344 -88.1898 220.662 -97.6207 220.698C-136.729 220.84 -176.396 232.008 -212.132 252.433C-238.568 267.487 -262.954 287.906 -283.896 312.056C-298.19 328.557 -310.94 346.157 -321.543 365.28C-347.827 412.251 -363.573 464.692 -360.591 508.542" stroke="#DDE4E6" stroke-miterlimit="10"/>
<path d="M863.66 -224.875C768.33 -276.886 650.426 -278.701 552.894 -231.247C500.261 -205.679 454.114 -166.035 421.018 -117.85C411.26 -103.611 402.779 -89.3276 396.219 -74.4223C377.88 -32.6427 370.001 10.8704 354.578 55.6392C351.513 64.4666 348.136 73.6126 344.501 82.2373C328.886 120.385 307.732 156.435 277.605 184.384C261.108 199.716 242.316 212.345 221.413 221.859C194.485 234.278 165.416 241.431 135.87 244.117C131.471 244.533 127.113 244.268 122.836 244.48C51.6645 247.613 -6.98754 227.873 -65.498 226.254C-74.4793 226.007 -83.2188 225.88 -92.423 226.468C-129.871 229.413 -166.644 243.287 -200.749 265.397C-225.9 281.784 -249.933 302.584 -270.452 327.417C-284.463 344.374 -296.657 362.759 -307.753 382.012C-334.863 429.208 -353.938 480.112 -354.013 519.799" stroke="#D2DDE1" stroke-miterlimit="10"/>
<path d="M867.636 -231.651C773.397 -283.425 656.17 -286.242 559.268 -240.085C506.003 -214.623 458.966 -174.276 425.507 -125.485C415.628 -111.043 408.145 -96.7123 401.566 -81.5435C383.149 -39.401 375.506 4.73777 360.27 49.8894C357.247 58.879 354.543 68.1529 351.052 77.0007C335.563 115.634 313.992 151.918 283.643 180.006C266.922 195.478 247.288 208.497 226.079 217.826C198.743 229.998 169.307 235.495 139.332 238.199C134.934 238.615 130.921 239.722 126.644 239.934C54.4513 243.143 -3.72302 227.839 -60.1325 230.795C-68.8485 231.259 -77.5912 232.493 -86.3672 233.751C-122.102 239.379 -157.401 254.257 -189.712 277.989C-213.619 295.532 -235.608 318.034 -255.636 343.433C-269.36 360.836 -282.029 379.553 -293.45 398.887C-321.31 446.181 -343.75 495.581 -346.921 531.196" stroke="#C7D6DB" stroke-miterlimit="10"/>
<path d="M872.47 -238.914C779.309 -290.461 663.067 -293.031 566.845 -248.038C512.913 -222.865 465.976 -183.227 432.226 -133.951C422.29 -119.415 414.407 -104.416 407.772 -89.1517C389.327 -46.4974 381.244 -1.07059 366.307 44.511C363.328 53.6599 360.578 62.7781 357.089 71.6223C341.775 110.891 319.896 147.232 289.167 175.486C272.287 190.99 252.36 203.717 230.744 212.793C203.003 224.708 173.421 230.142 143.14 232.653C138.741 233.067 133.87 233.664 129.593 233.874C56.4811 237.204 -0.810864 227.636 -55.2804 235.194C-63.6289 236.428 -71.4511 237.249 -79.7985 239.177C-113.92 247.416 -147.657 265.57 -178.329 290.952C-200.988 309.642 -222.498 332.798 -242.192 358.795C-255.625 376.636 -267.407 395.355 -279.147 414.761C-307.809 462.238 -333.689 510.262 -339.83 541.594" stroke="#BCCFD5" stroke-miterlimit="10"/>
<path d="M874.587 -247.203C782.753 -298.372 667.581 -301.721 572.218 -257.876C517.626 -232.821 469.659 -192.436 435.715 -142.586C425.72 -127.946 417.86 -113.21 411.261 -97.7861C392.661 -54.6715 384.979 -8.80773 370.141 37.2481C367.259 46.4549 364.374 55.3545 360.923 64.3593C345.717 104.107 323.923 142 292.833 170.453C275.805 186.006 255.605 198.294 233.552 207.246C205.402 218.779 175.582 224.071 145.089 226.593C140.597 226.951 136.427 226.803 132.056 226.957C58.1601 230.509 1.26466 226.488 -50.9148 238.734C-58.9236 240.587 -66.8357 242.855 -74.7426 245.46C-107.101 256.413 -137.66 276.447 -166.575 303.571C-187.931 323.593 -208.259 347.653 -227.517 374.324C-240.661 392.615 -253.495 412.621 -265.499 432.007C-295.014 479.526 -323.787 525.291 -332.881 552.505" stroke="#B2C8CF" stroke-miterlimit="10"/>
<path d="M880.571 -252.387C789.668 -303.413 676.308 -307.148 581.458 -264.608C526.066 -239.727 476.934 -199.766 442.725 -149.486C432.663 -134.739 425.398 -119.054 418.616 -103.315C399.873 -59.707 391.427 -14.0169 376.984 32.5771C374.042 41.892 371.52 51.8867 368.11 61.0599C353.069 101.483 330.952 139.471 299.507 168.011C282.3 183.608 262.775 196.001 240.226 204.805C211.633 216.086 180.889 220.802 150.047 223.126C145.548 223.481 140.939 224.094 136.5 224.347C61.4172 228.043 3.51861 227.382 -46.6292 244.186C-54.2816 246.808 -61.7648 249.522 -69.2536 252.796C-100.002 266.526 -128.448 288.791 -155.759 317.587C-175.891 338.771 -195.512 364.858 -214.294 392.109C-227.161 410.855 -239.325 429.518 -251.763 448.934C-282.107 496.681 -314.679 541.65 -326.869 564.814" stroke="#A7C1C9" stroke-miterlimit="10"/>
<path d="M885.271 -259.545C795.373 -310.386 683.64 -314.686 589.414 -273.315C533.262 -248.623 483.267 -207.93 448.796 -156.989C438.675 -142.143 430.156 -126.312 423.316 -110.473C404.544 -66.3393 397.132 -19.6754 382.887 27.3039C379.99 36.7814 377.422 46.6141 374.014 55.7867C359.107 96.696 337.249 134.028 305.411 162.738C287.976 178.471 267.686 191.165 244.759 199.877C215.641 210.839 184.952 215.459 153.721 217.684C149.218 218.037 144.616 218.655 140.174 218.906C64.1207 222.704 7.03695 227.579 -41.0524 249.203C-48.382 252.433 -55.4098 255.756 -62.4733 259.698C-91.5208 276.099 -118.132 300.757 -143.651 331.169C-162.501 353.667 -181.261 379.314 -199.612 407.231C-212.192 426.42 -224.487 446.791 -237.249 466.286C-268.403 514.227 -303.723 556.902 -319.054 575.83" stroke="#9CBAC4" stroke-miterlimit="10"/>
<path d="M888.972 -266.703C800.328 -317.209 689.374 -321.417 595.858 -281.163C538.893 -256.691 488.635 -215.934 453.868 -164.492C443.79 -149.486 435.186 -133.975 428.388 -117.976C409.475 -73.3832 402.325 -26.3451 388.304 21.1725C385.508 30.7085 382.798 40.3218 379.431 49.6552C364.688 91.2065 342.712 129.986 310.66 158.836C293.068 174.608 272.414 187.094 249.149 195.462C219.636 206.183 187.917 210.196 156.395 212.243C151.793 212.536 147.801 212.355 143.362 212.607C66.3265 216.501 9.14461 226.643 -36.8205 252.849C-43.7794 256.852 -50.4059 260.615 -57.038 265.229C-84.4614 284.255 -109.11 311.243 -132.889 343.38C-150.49 367.033 -168.072 393.871 -185.93 422.352C-198.221 441.985 -210.238 463.144 -223.222 482.778C-255.123 530.814 -293.87 572.091 -312.238 586.846" stroke="#92B3BE" stroke-miterlimit="10"/>
<path d="M894.53 -273.347C806.892 -323.668 696.648 -328.854 603.814 -289.869C546.086 -265.588 496.279 -224.341 461.312 -172.34C451.112 -157.134 442.132 -141.228 435.318 -124.966C416.274 -79.9082 409.4 -32.3496 395.58 15.5541C392.828 25.253 390.029 34.5411 386.706 44.0369C372.099 86.075 349.397 126.077 316.909 154.935C299.149 170.74 279.145 183.346 255.398 191.56C225.461 202.022 193.352 204.508 161.44 206.457C156.835 206.747 152.438 207.49 147.894 207.679C69.8859 211.673 13.2071 226.141 -30.7304 257.008C-37.4258 261.72 -44.0524 266.848 -50.2575 272.13C-76.0344 293.933 -98.1239 322.307 -120.269 356.103C-136.624 380.911 -153.374 409.759 -170.902 438.845C-182.906 458.922 -195.744 479.046 -209.053 498.758C-241.765 546.988 -283.105 587.227 -304.422 597.863" stroke="#87ACB8" stroke-miterlimit="10"/>
<path d="M898.231 -280.505C811.728 -330.561 702.887 -336.641 610.77 -298.576C552.373 -274.534 500.869 -232.989 465.525 -180.356C455.261 -165.042 447.228 -149.001 440.39 -132.469C421.253 -87.0302 414.032 -38.0834 400.483 10.2809C397.831 20.0434 394.894 29.1022 391.61 38.7637C377.216 81.3636 354.995 121.812 322.158 151.033C304.173 166.99 282.529 179.348 258.418 187.491C228.135 197.618 196.672 200.61 164.46 202.387C159.753 202.618 155.173 201.946 150.568 202.237C71.5556 206.343 15.6992 226.293 -26.1534 262.025C-32.42 267.412 -38.5984 273.136 -44.477 279.032C-68.54 303.534 -88.7033 334.309 -109.161 369.685C-124.235 395.825 -140.628 425.056 -157.733 454.825C-169.455 475.357 -181.798 496.369 -195.538 516.109C-229.117 564.4 -273.76 603.265 -298.119 609.737" stroke="#7CA6B2" stroke-miterlimit="10"/>
<path d="M901.931 -287.663C816.602 -337.433 709.218 -344.167 617.727 -307.282C558.632 -283.401 506.13 -241.045 470.597 -187.859C460.276 -172.448 452.462 -156.538 445.462 -139.972C426.289 -94.0214 418.468 -45.1961 405.042 3.6363C402.328 13.4965 399.798 23.833 396.514 33.4905C382.183 76.6634 360.207 116.464 327.062 145.76C308.923 161.754 287.373 175.074 262.808 183.076C232.138 192.961 200.101 194.324 167.647 196.088C162.944 196.319 157.843 196.504 153.242 196.796C73.3695 201.061 17.2915 226.227 -22.4347 266.529C-28.4322 272.628 -34.1078 278.855 -39.5549 285.421C-61.8915 312.601 -80.2354 345.5 -98.9121 382.754C-112.737 410.043 -126.582 440.132 -143.193 470.459C-154.625 491.432 -167.45 512.786 -181.511 532.602C-215.89 581.082 -263.859 618.346 -291.303 620.753" stroke="#719FAC" stroke-miterlimit="10"/>
<path d="M906.632 -294.821C822.422 -344.337 716.329 -351.718 625.683 -315.988C565.762 -292.326 513.059 -249.753 477.182 -196.221C466.801 -180.707 458.493 -164.204 451.534 -147.475C432.218 -101.057 424.561 -51.9359 411.459 -2.49519C408.786 7.52743 406.073 17.4781 402.931 27.359C388.823 71.0798 366.738 112.316 333.311 141.858C315.011 157.894 293.681 170.042 268.712 177.803C237.639 187.447 204.933 189.576 172.179 191.16C167.477 191.392 162.436 191.473 157.775 191.868C76.8367 196.325 21.2345 225.644 -16.3445 270.688C-22.015 277.397 -27.243 284.227 -32.2613 291.464C-53.0456 321.371 -69.3063 356.659 -86.2916 395.478C-98.7718 423.985 -111.983 455.954 -128.165 486.952C-139.251 508.27 -152.098 529.197 -166.483 549.095C-201.675 597.78 -253.009 633.529 -283.487 631.77" stroke="#6798A6" stroke-miterlimit="10"/>
<path d="M911.19 -301.465C828.019 -350.776 723.079 -358.045 632.985 -323.323C572.352 -299.916 519.212 -257.341 483.112 -203.21C472.664 -187.587 463.649 -172.083 456.606 -154.978C437.139 -108.066 430.144 -57.1104 417.221 -7.25523C414.649 2.83395 411.897 12.6106 408.693 22.599C394.642 66.9347 372.435 108.379 338.56 137.956C320.127 154.204 298.084 166.788 272.59 174.246C241.088 183.649 207.997 184.218 174.853 185.718C170.046 185.889 165.256 186.256 160.449 186.427C78.5394 191.023 22.8285 225.382 -12.6258 275.192C-17.9317 282.678 -23.26 290.799 -27.8522 298.711C-46.9328 331.32 -59.8232 368.552 -75.1842 409.06C-86.4868 438.844 -99.1328 471.306 -114.996 502.932C-125.801 524.709 -138.25 546.456 -152.969 566.446C-188.934 615.259 -243.745 649.518 -277.184 643.644" stroke="#5C91A1" stroke-miterlimit="10"/>
<path d="M915.749 -308.11C833.596 -357.226 729.301 -365.639 639.941 -332.03C578.447 -308.881 525.154 -266.293 488.697 -211.572C478.191 -195.852 469.121 -178.312 462.023 -161.109C442.531 -113.679 436.112 -63.1695 423.497 -12.8736C420.97 -2.62287 417.655 7.85236 414.455 17.8389C400.646 62.7166 378.771 104.868 344.667 134.568C326.069 150.846 303.652 163.085 277.839 170.344C245.914 179.485 211.917 179.39 178.386 180.79C173.575 180.958 168.853 181.229 163.981 181.499C81.1048 186.191 25.2486 225.674 -8.04877 280.209C-13.0872 288.405 -17.2956 296.234 -21.5586 304.755C-38.9142 340.04 -50.425 380.575 -64.0767 422.641C-74.1231 453.58 -85.0911 486.38 -100.455 518.566C-110.968 540.785 -123.857 563.038 -138.942 582.939C-175.818 631.875 -233.797 664.625 -270.369 654.66" stroke="#518A9B" stroke-miterlimit="10"/>
<path d="M920.45 -315.268C839.415 -364.13 736.467 -373.28 647.898 -340.736C585.743 -317.855 531.422 -274.357 494.769 -219.075C484.204 -203.256 475.151 -185.975 468.095 -168.612C448.465 -120.721 442.404 -69.7805 429.914 -19.0051C427.326 -8.65435 423.929 1.49873 420.872 11.7074C407.128 57.1676 385.116 99.3136 350.571 129.294C331.814 145.61 309.506 158.813 283.23 165.929C250.801 174.764 216.809 174.543 182.918 175.862C178.048 176.132 173.384 176.301 168.514 176.571C84.6353 181.346 29.1831 225.099 -1.95845 284.368C-6.56656 293.234 -10.9451 302.466 -14.778 311.657C-30.474 349.725 -39.6444 391.516 -51.456 435.365C-60.2141 467.62 -71.4558 501.633 -86.2861 534.546C-96.5111 557.208 -108.507 579.453 -123.914 599.432C-161.537 648.462 -222.902 679.975 -262.552 665.676" stroke="#478395" stroke-miterlimit="10"/>
<path d="M924.15 -322.426C844.311 -370.989 742.706 -380.922 654.854 -349.443C591.958 -326.846 536.807 -282.391 499.841 -226.577C489.253 -210.488 480.412 -193.787 473.166 -176.115C453.439 -127.847 446.188 -76.0198 433.959 -24.7915C431.469 -14.3787 428.898 -3.87784 425.776 6.43418C412.237 52.4504 390.17 96.1669 355.307 126.251C336.329 142.722 313.491 154.009 286.762 161.001C253.945 169.613 219.662 169.201 185.592 170.421C180.624 170.633 176.217 170.816 171.188 171.13C86.455 176.104 30.711 224.946 1.76009 288.872C-2.5846 298.453 -6.44851 308.181 -9.856 318.045C-23.9526 358.746 -31.0679 403.014 -41.2071 448.434C-48.7359 481.852 -57.8467 517.446 -72.2587 551.039C-82.2052 574.154 -94.6653 596.713 -110.4 616.783C-148.841 666.04 -213.539 695.89 -256.25 677.551" stroke="#3C7C8F" stroke-miterlimit="10"/>
<path d="M928.85 -329.583C850.074 -377.926 749.35 -387.842 662.298 -357.291C598.556 -334.94 543.586 -291.306 506.426 -234.939C495.78 -218.752 486.439 -201.449 479.238 -183.618C459.482 -134.831 452.305 -82.591 440.376 -30.923C437.93 -20.349 436.028 -9.71819 433.052 0.815831C419.586 47.4145 396.461 90.7237 361.211 120.978C342.07 137.482 319.193 149.787 292.153 156.586C258.922 164.943 224.468 164.304 190.125 165.493C185.155 165.704 179.832 165.478 174.862 165.689C89.0891 170.718 34.702 224.275 7.85032 293.031C3.83458 303.221 -0.0992602 314.413 -3.07549 324.947C-15.4468 368.327 -20.092 414.077 -28.5864 461.157C-34.7598 495.79 -43.5593 532.066 -57.5764 566.16C-67.232 589.718 -80.2136 612.454 -96.2305 632.762C-135.42 682.106 -202.764 711.029 -248.434 688.567" stroke="#317589" stroke-miterlimit="10"/>
<path d="M932.551 -336.741C854.934 -384.806 755.501 -395.518 669.254 -365.997C604.763 -343.948 548.965 -299.327 511.498 -242.442C500.79 -226.151 491.575 -209.055 484.31 -191.121C464.403 -141.863 457.45 -89.1688 445.793 -37.0544C443.385 -26.3177 440.934 -14.9913 437.956 -4.45729C424.704 42.6909 401.927 86.6689 366.46 117.076C347.16 133.627 323.98 145.606 296.543 152.172C262.919 160.296 227.43 159.033 192.799 160.052C187.73 160.204 183.423 160.446 178.394 160.761C91.6876 166.068 36.8826 224.528 12.4275 298.049C8.77746 309.012 5.76853 319.786 3.21828 330.991C-7.44933 377.055 -10.7038 425.933 -17.4789 474.739C-22.4797 510.631 -30.8127 547.373 -44.4071 582.14C-53.781 606.147 -65.8199 629.024 -82.2029 649.255C-122.307 698.753 -192.941 726.195 -241.618 699.583" stroke="#266E84" stroke-miterlimit="10"/>
<path d="M935.11 -344.386C858.838 -392.062 760.518 -403.972 675.069 -375.19C609.976 -353.478 552.245 -308.427 514.57 -250.945C503.799 -234.544 495.537 -217.311 488.24 -199.111C468.159 -149.381 461.146 -95.406 449.555 -42.8144C447.237 -32.0193 444.666 -20.9128 441.718 -10.2173C428.483 37.5153 405.469 81.6462 369.709 112.174C350.264 128.787 327.132 141.664 299.279 148.128C265.312 156.058 231.827 154.671 196.906 155.663C191.848 155.823 186.661 155.537 181.643 155.859C94.1065 161.384 39.2463 225.063 16.721 303.092C13.326 314.766 10.9524 326.107 8.71524 337.919C-0.355565 386.757 -1.54514 437.834 -6.65496 488.348C-10.4618 525.383 -17.4713 563.22 -30.6631 598.659C-39.7693 623.114 -52.2691 646.305 -68.9721 666.633C-109.876 716.372 -183.127 742.578 -234.74 711.997" stroke="#1C677E" stroke-miterlimit="10"/>
<path d="M941.251 -350.899C865.806 -398.496 769.309 -410.844 684.467 -383.252C599.624 -355.66 527.574 -288.448 494.382 -205.624C470.056 -145.034 466.465 -78.6651 449.576 -15.7043C429.466 58.8911 386.468 126.814 306.111 144.358C266.635 152.996 225.444 147.486 185.042 150.036C96.3783 155.556 41.9786 223.573 21.6776 306.356C6.21414 369.478 8.96973 435.403 4.83207 500.176C0.633462 565.052 -12.5459 632.941 -54.2199 682.744C-95.8939 732.547 -173.282 757.081 -228.058 722.119" stroke="#116078" stroke-miterlimit="10"/>
<path d="M932.118 -336.794C857.002 -380.872 762.359 -389.618 678.775 -361.263C669.213 -357.986 660.267 -354.054 651.01 -349.901C579.806 -317.743 519.787 -259.298 488.682 -189.466C474.185 -156.894 466.536 -123.03 458.656 -88.5776C452.6 -62.0304 446.114 -35.0323 437.858 -8.96946C415.791 61.6991 371.706 125.698 292.323 142.864C253.252 151.334 212.902 146.595 172.97 149.568C85.9423 155.936 32.572 223.74 12.3485 305.198C8.51862 320.622 5.50036 335.347 3.50278 351.174C-2.34723 398.879 -1.61318 447.29 -4.67418 495.417C-5.29303 506.395 -6.74156 517.371 -8.05245 528.35C-14.3237 581.616 -29.6523 634.998 -63.5581 675.755C-104.599 724.978 -178.886 750.25 -233.105 717.695" stroke="#11677E" stroke-miterlimit="10"/>
<path d="M924.7 -322.662C849.848 -363.4 758.132 -367.756 675.659 -338.735C666.185 -335.404 656.202 -332.093 647.036 -327.886C576.537 -295.718 517.506 -239.746 484.698 -173.282C469.369 -142.313 459.492 -109.761 450.549 -77.189C443.547 -52.0361 436.838 -26.7316 427.857 -2.20835C403.817 64.6541 358.754 124.809 280.251 141.396C241.406 149.588 202.06 145.724 162.615 149.127C77.1798 156.449 22.5037 222.383 2.16106 302.527C-1.7011 317.794 -4.71935 332.933 -6.68469 348.503C-12.4985 395.54 -11.0809 443.548 -13.8354 491.03C-14.4854 501.851 -14.601 512.735 -15.8422 523.618C-21.9094 576.177 -37.2526 627.573 -70.6667 667.934C-110.996 716.617 -185.078 742.066 -239.01 711.759" stroke="#126E85" stroke-miterlimit="10"/>
<path d="M916.425 -308.044C841.963 -345.229 752.405 -346.944 671.339 -317.091C662.079 -313.634 652.569 -309.899 643.574 -305.729C573.936 -273.472 513.403 -219.993 478.997 -157.124C462.83 -127.769 452.132 -96.8407 442.096 -66.1718C434.29 -42.4721 427.089 -19.0122 417.511 4.18133C391.413 67.0365 346.275 123.91 268.692 140.071C230.175 148.038 189.493 144.825 150.543 148.66C66.8392 157.01 12.9615 221.328 -7.51319 299.998C-11.3607 314.995 -14.3447 330.573 -16.3589 345.974C-22.2588 392.399 -19.8015 439.956 -22.4833 486.784C-23.0788 497.498 -24.1624 508.083 -25.3484 518.859C-31.3422 570.763 -46.3165 621.586 -79.1467 661.459C-118.787 709.714 -190.623 735.27 -244.056 707.336" stroke="#12748B" stroke-miterlimit="10"/>
<path d="M907.292 -294.939C833.243 -328.694 746.462 -326.103 666.506 -295.59C657.346 -292.072 647.635 -288.457 638.741 -284.227C569.991 -251.858 510.275 -200.942 474.155 -141.453C457.314 -113.748 444.821 -85.0328 433.644 -56.1547C425.043 -33.9001 417.025 -11.3191 406.651 10.4292C378.454 69.3962 331.09 122.856 254.39 138.435C216.152 146.153 177.796 143.307 139.329 147.705C57.2419 157.019 3.58642 220.392 -16.8423 297.84C-20.7295 312.674 -23.2843 327.76 -25.1749 342.957C-30.9685 388.752 -29.5775 434.868 -31.9896 481.025C-32.5228 491.637 -33.629 502.486 -34.8547 513.099C-40.6806 564.271 -55.3654 614.603 -87.6266 653.983C-126.637 701.642 -196.168 727.473 -249.103 701.913" stroke="#137B92" stroke-miterlimit="10"/>
<path d="M899.016 -280.32C825.281 -310.568 740.274 -304.407 661.673 -273.088C652.619 -269.508 644.11 -266.2 635.28 -262.07C567.348 -229.63 506.328 -181.241 468.455 -125.295C450.778 -99.1981 438.147 -71.5666 426.05 -44.6243C416.651 -23.8163 406.86 -2.68585 395.792 17.6773C365.654 72.7131 318.441 122.127 242.831 137.109C204.996 144.651 166.219 142.998 128.115 147.751C47.7559 157.956 -5.97382 219.318 -26.5164 295.311C-30.4874 309.817 -32.9145 325.397 -34.849 340.428C-40.6526 385.523 -38.4174 431.202 -40.6374 476.779C-41.214 487.226 -41.8225 497.486 -42.9894 507.995C-48.6637 558.425 -63.6025 608.967 -95.2481 648.02C-133.52 695.15 -202.515 720.197 -255.008 696.977" stroke="#138298" stroke-miterlimit="10"/>
<path d="M890.741 -266.702C817.196 -293.507 734.696 -284.554 657.354 -252.444C648.495 -248.742 639.939 -244.307 631.305 -240.055C564.111 -207.553 502.711 -161.358 463.1 -108.766C444.575 -84.2652 430.33 -58.9143 417.084 -33.749C406.825 -14.2734 396.803 4.99719 384.933 23.9251C352.839 75.059 304.13 121.425 229.388 135.987C191.864 143.176 153.282 141.887 115.53 147.141C36.6255 158.245 -15.8566 219.197 -36.3586 294.011C-40.3703 308.363 -43.1242 322.981 -45.0363 337.757C-50.8946 382.289 -48.5486 426.903 -50.6567 471.878C-51.1089 482.128 -51.9046 492.68 -53.0087 503.094C-58.4102 552.883 -72.6326 601.964 -103.728 640.545C-141.291 687.163 -208.531 713.28 -260.568 692.412" stroke="#13899F" stroke-miterlimit="10"/>
<path d="M882.466 -252.084C809.412 -275.412 729.561 -262.23 653.379 -229.429C644.627 -225.664 635.96 -221.294 627.331 -217.04C560.964 -184.462 499.516 -141.208 458.258 -92.0951C438.899 -69.2015 423.716 -45.5506 409.49 -22.2186C398.434 -4.18915 386.739 13.6907 374.074 31.1732C339.88 78.4186 291.118 121.505 217.316 135.519C180.099 142.476 141.555 141.351 104.317 147.187C27.1519 159.19 -25.4738 218.228 -46.0327 291.482C-50.0271 305.566 -52.7531 320.618 -54.7104 335.228C-60.4805 379.119 -57.897 424.097 -59.8177 468.49C-60.2125 478.636 -60.5693 488.702 -61.6565 498.849C-66.9111 547.893 -81.6274 595.875 -112.208 634.069C-149.132 680.097 -214.03 706.51 -265.615 687.989" stroke="#148FA5" stroke-miterlimit="10"/>
<path d="M873.332 -238.979C800.536 -258.836 723.059 -242.874 648.201 -209.299C639.653 -205.414 631.538 -200.709 623.011 -196.397C557.54 -163.714 495.627 -122.598 452.557 -76.9376C432.364 -55.6577 416.445 -33.5751 401.038 -12.2016C389.086 4.31806 377.085 20.4683 363.727 36.5626C327.598 79.8688 277.257 119.949 204.386 133.538C167.553 140.303 129.956 139.895 93.1029 146.232C17.6243 159.093 -34.7518 217.364 -55.3619 289.324C-59.334 303.141 -62.45 317.355 -64.3848 331.698C-70.209 374.993 -67.6144 418.914 -69.324 462.731C-69.7579 472.713 -70.1384 483.045 -71.1628 493.089C-76.2468 541.394 -91.5394 588.386 -121.546 626.08C-157.733 671.566 -220.337 698.26 -271.52 682.053" stroke="#1496AB" stroke-miterlimit="10"/>
<path d="M864.057 -224.36C791.654 -240.795 716.825 -220.622 643.226 -186.284C634.784 -182.334 625.538 -178.17 617.178 -173.895C552.532 -141.124 490.915 -101.604 446.202 -59.4082C425.339 -39.7698 407.97 -20.7313 391.585 -1.18436C378.839 13.8944 366.019 29.1565 351.868 43.8107C313.806 83.2015 262.282 119.444 190.455 132.558C153.932 139.095 117.169 139.456 80.8892 146.278C7.15019 160.048 -45.4026 216.223 -66.0362 286.795C-70.0534 300.449 -73.0774 314.99 -75.0591 329.169C-80.9023 371.766 -77.4029 415.409 -78.972 458.485C-79.3498 468.363 -80.7012 478.39 -81.6691 488.33C-86.6125 535.895 -100.733 582.905 -130.168 620.118C-165.721 665.022 -227.105 691.467 -277.567 677.63" stroke="#149DB2" stroke-miterlimit="10"/>
<path d="M855.782 -210.742C783.666 -223.69 710.818 -199.805 638.393 -164.782C630.048 -160.777 621.919 -156.967 613.716 -152.738C549.824 -119.948 486.885 -82.9416 440.501 -44.2503C418.795 -26.231 401.461 -8.30029 383.991 9.34602C370.385 23.0755 355.919 36.694 341.009 50.0587C300.996 85.5016 248.52 118.085 177.525 130.577C141.254 136.844 104.741 137.505 68.8174 144.81C-3.39602 159.341 -54.5977 215.409 -75.3651 284.637C-79.3563 298.026 -82.7799 311.724 -84.7331 325.64C-90.6128 367.652 -87.142 410.212 -88.4781 452.726C-88.788 462.504 -88.8012 472.447 -89.8038 482.226C-94.6161 529.166 -109.308 574.911 -138.134 611.784C-172.958 656.141 -232.501 683.762 -282.613 672.207" stroke="#15A4B8" stroke-miterlimit="10"/>
<path d="M845.79 -197.15C774.107 -206.655 704.25 -179.508 633.215 -143.651C625.081 -139.52 616.22 -134.983 608.025 -130.749C544.983 -97.8632 482.049 -63.7786 433.943 -28.6058C411.414 -12.1835 391.748 4.37268 373.309 20.1951C358.915 32.4857 344.683 43.6577 328.946 55.422C287.021 86.9563 233.753 117.112 163.737 129.083C127.894 135.193 92.936 137.057 57.6035 144.856C-12.8376 160.31 -63.9988 215.588 -84.6943 283.479C-88.732 296.702 -91.6074 309.977 -93.5492 323.623C-99.3539 364.99 -95.8587 406.615 -97.1261 448.48C-97.4844 458.091 -98.3619 467.793 -99.3101 477.467C-103.992 523.656 -118.365 568.919 -146.615 605.308C-180.696 649.142 -238.133 676.913 -287.66 667.783" stroke="#15AABF" stroke-miterlimit="10"/>
<path d="M838.373 -183.018C766.912 -189.072 699.082 -158.203 629.24 -121.636C621.204 -117.446 613.458 -113.27 605.422 -109.08C543.251 -76.0916 479.693 -44.2659 429.959 -12.4218C406.587 2.38748 386.2 17.3731 366.573 31.2384C351.379 42.0812 336.239 52.3193 319.803 62.6961C275.865 90.395 222.094 115.835 153.036 127.27C117.459 133.122 81.3533 135.607 46.3899 143.901C-22.4991 160.142 -73.5226 213.398 -94.3685 279.949C-98.3834 292.909 -101.347 306.548 -103.223 320.094C-109.077 360.875 -106.056 402.44 -107.146 443.579C-107.378 452.988 -107.993 462.237 -108.816 471.708C-113.219 517.231 -127.31 561.998 -155.094 597.832C-188.55 641.069 -244.415 668.677 -293.565 661.847" stroke="#16B1C5" stroke-miterlimit="10"/>
<path d="M828.381 -169.426C757.448 -171.987 692.104 -136.973 623.549 -99.6477C615.724 -95.3326 607.718 -91.4471 599.731 -87.0909C538.351 -53.9166 474.841 -25.1016 423.4 3.22287C399.316 16.4954 377.85 29.7003 357.262 41.7424C341.125 51.1881 324.503 59.8763 307.227 68.9178C261.497 92.7699 206.428 114.195 138.389 125.263C103.14 130.892 69.6517 135.227 35.1764 143.947C-31.9448 161.098 -82.8314 213.647 -103.697 278.792C-107.859 291.523 -111.034 304.29 -112.897 317.565C-118.773 357.635 -114.879 398.788 -115.793 439.333C-115.971 448.635 -116.595 458.158 -117.464 467.462C-121.731 512.23 -137.168 555.398 -164.433 590.843C-197.203 633.651 -249.939 661.896 -298.612 657.424" stroke="#16B8CC" stroke-miterlimit="10"/>
<path d="M821.822 -154.782C751.061 -153.925 688.234 -116.048 620.946 -77.9777C613.216 -73.6069 605.919 -69.1566 597.986 -64.9077C537.347 -31.7155 473.063 -4.07326 419.761 20.7785C394.881 32.3258 372.213 42.6492 350.526 52.786C333.58 60.7767 316.171 68.6068 298.084 76.1922C250.374 96.0865 194.401 113.869 127.175 124.309C92.1685 129.664 58.0478 133.628 23.9625 142.993C-41.6442 160.902 -92.5337 211.496 -113.372 275.262C-117.507 287.73 -120.677 300.92 -122.572 314.036C-128.379 353.587 -124.521 393.645 -125.3 433.574C-125.511 442.717 -126.169 452.498 -126.97 461.703C-131.041 505.751 -145.354 548.936 -172.054 583.881C-204.2 626.084 -255.429 654.136 -303.658 652.001" stroke="#16BFD2" stroke-miterlimit="10"/>
<path d="M813.547 -140.163C742.968 -135.848 682.248 -94.2862 616.113 -55.476C608.477 -51.0433 600.891 -46.7777 593.153 -42.406C533.245 -9.14728 469.834 16.0171 414.919 37.4493C389.173 47.3887 365.172 56.7676 342.419 65.1744C324.657 71.72 306.069 77.4024 287.225 83.44C237.56 99.5666 180.899 114.786 114.591 124.699C79.9283 129.862 45.1143 133.514 11.3776 143.383C-52.7141 162.097 -102.207 212.494 -123.214 274.963C-127.33 287.175 -130.886 299.503 -132.759 312.364C-138.561 351.255 -133.898 390.794 -134.461 430.187C-134.608 439.235 -134.88 448.347 -135.618 457.457C-139.516 500.808 -154.485 542.868 -180.534 577.405C-211.972 619.102 -262.197 647.755 -310.076 647.923" stroke="#17C5D8" stroke-miterlimit="10"/>
<path d="M805.272 -126.545C735.21 -118.739 677.057 -73.1329 612.139 -33.4608C604.713 -28.9029 596.848 -24.664 589.178 -20.3908C530.217 13.0156 466.693 35.1992 410.077 53.1204C383.52 61.4662 357.717 68.7664 333.967 75.1917C315.324 80.2416 296.559 84.124 276.879 88.8298C225.326 101.057 166.896 113.273 101.66 122.719C67.3836 127.557 33.3762 131.971 0.163953 142.429C-62.211 161.89 -112.024 210.405 -132.888 271.433C-137.049 283.48 -139.654 296.654 -141.575 309.348C-147.398 347.532 -142.721 386.137 -143.108 424.941C-143.201 433.883 -144.34 442.754 -145.124 451.698C-148.887 494.297 -163.481 535.778 -189.014 569.929C-219.711 611.098 -267.815 639.916 -315.123 642.5" stroke="#17CCDF" stroke-miterlimit="10"/>
<path d="M795.996 -111.927C726.146 -100.68 670.609 -52.2911 606.818 -11.8172C599.491 -7.20207 592.289 -2.5644 584.716 1.76588C526.518 35.2027 461.278 55.7894 402.864 70.1364C375.449 76.8591 350.284 82.1015 325.372 86.722C305.919 90.3159 286.207 93.3828 265.878 96.5908C212.385 105.022 153.042 113.315 88.5881 122.251C54.5681 126.824 20.798 131.526 -12.0499 142.474C-72.7768 162.774 -122.208 210.591 -143.217 270.275C-147.354 282.057 -150.355 294.388 -152.249 306.819C-158.014 344.478 -153.927 382.962 -154.128 421.04C-154.093 429.78 -154.115 438.711 -154.773 447.452C-158.411 489.427 -173.529 529.801 -198.494 563.454C-228.562 604.021 -274.232 633.2 -321.17 638.077" stroke="#17D3E5" stroke-miterlimit="10"/>
<path d="M787.004 -99.3345C717.661 -84.6047 664.647 -32.0577 602.127 9.17156C595.009 13.9113 587.429 18.4623 580.025 22.7547C522.667 56.2752 457.209 73.8186 397.305 84.7811C369.184 89.9733 342.128 92.8062 316.203 95.7129C295.976 97.8742 275.405 100.036 254.302 101.813C198.869 106.453 139.288 111.353 75.7998 119.757C42.2037 124.167 10.0028 130.087 -22.2634 141.52C-81.3842 162.5 -130.52 209.831 -151.546 268.118C-155.727 279.734 -158.982 291.026 -160.923 303.29C-166.707 340.243 -161.752 378.304 -161.776 415.794C-161.788 424.367 -162.575 433.118 -163.279 441.693C-166.677 482.978 -180.666 523.225 -205.116 556.491C-234.443 596.529 -278.741 625.426 -325.217 632.654" stroke="#18DAEC" stroke-miterlimit="10"/>
<path d="M778.587 -84.2031C709.502 -65.995 658.356 -9.83354 597.153 32.1864C590.135 36.987 583.725 41.0713 576.422 45.4244C519.851 79.0032 454.05 94.444 392.321 101.965C363.421 105.447 335.315 106.784 308.467 107.756C287.279 108.513 266.513 109 244.672 109.228C187.394 109.999 125.742 110.542 63.2409 118.431C29.9242 122.594 -2.69548 129.565 -34.4771 141.565C-92.0178 163.354 -141.132 208.581 -162.221 265.588C-166.381 276.941 -169.616 288.659 -171.598 300.76C-177.442 337.126 -172.464 374.112 -172.282 411.035C-172.232 419.507 -171.669 428.176 -172.413 436.588C-175.647 477.144 -190.2 516.379 -214.082 549.157C-242.782 588.604 -286.211 618.213 -332.122 627.717" stroke="#18E0F2" stroke-miterlimit="10"/>
<path d="M770.312 -70.5849C701.515 -49.0368 653.693 10.6249 593.691 53.3431C586.773 58.2008 579.753 63.0903 572.447 67.4394C516.749 101.108 450.907 113.633 387.479 117.636C357.721 119.492 328.371 119.98 300.36 119.145C278.358 118.444 256.528 116.604 233.813 115.476C174.427 112.487 112.717 109.623 51.1689 116.963C18.1137 120.861 -14.2797 128.12 -45.6908 140.611C-101.611 163.077 -150.478 207.814 -171.55 263.43C-175.849 274.558 -178.397 285.805 -180.414 297.744C-186.139 333.478 -181.296 369.595 -180.93 405.789C-180.814 414.16 -181.241 422.518 -181.92 430.829C-184.969 470.654 -199.353 509.343 -222.562 541.681C-250.527 580.585 -291.639 610.496 -337.168 622.294" stroke="#19E7F9" stroke-miterlimit="10"/>
<path d="M760.32 -56.9928C684.085 -28.9654 635.464 45.4972 566.411 88.0567C485.876 137.587 381.016 137.641 290.191 129.136C175.765 118.557 53.1057 93.529 -56.9045 140.656C-122.02 168.552 -178.471 225.234 -190.088 295.215C-197.265 338.38 -187.294 383.022 -190.568 426.583C-197.035 512.648 -259.963 591.781 -342.215 617.871" stroke="#19EEFF" stroke-miterlimit="10"/>
</g>
<g opacity="0.08">
<path d="M2110.48 577.505C2022.98 507.61 1902.75 485.196 1795.61 517.499C1741.33 533.822 1691.9 563.881 1651.61 603.903C1605.76 649.329 1587.94 702.856 1555.77 756.677C1530.75 798.593 1499.78 837.581 1458.46 864.197C1415.77 891.825 1363.42 905.058 1312.73 901.114C1228.03 894.61 1169.08 831.605 1090.62 806.856C1019.63 784.412 939.126 797.957 878.853 841.603C818.581 885.249 780.584 958.361 779.795 1032.84" stroke="#F2F2F2" stroke-miterlimit="10"/>
<path d="M2116.46 570.291C2030.06 500.884 1911.34 478.168 1805.08 509.354C1750.03 525.322 1698.87 555.554 1658.26 595.938C1646.14 607.906 1636.4 620.924 1627.38 634.041C1602.11 670.837 1586.79 710.563 1563.26 750.784C1558.63 758.739 1552.74 766.803 1547.76 774.444C1525.4 807.941 1498.59 837.943 1464.63 859.805C1445.95 871.854 1426.22 880.919 1404.72 887.003C1376.69 894.935 1346.42 897.843 1317.39 895.4C1313.16 894.997 1309.34 894.629 1305.26 894.048C1236.63 884.282 1184.02 843.377 1124.2 821.266C1114.98 817.898 1105.59 814.853 1096 812.434C1056.32 802.507 1013.28 804.359 972.947 816.022C943.193 824.653 914.485 838.996 889.192 858.202C871.931 871.339 856.726 886.08 843.153 902.938C809.68 944.383 787.617 995.245 784.79 1043.4" stroke="#E7EBEC" stroke-miterlimit="10"/>
<path d="M2122.45 565.077C2036.99 496.02 1919.25 472.747 1813.8 502.549C1758.05 518.355 1707.22 548.991 1666.32 589.883C1654.21 602.014 1643.12 614.872 1634.03 628.076C1608.64 665.38 1592.82 706.259 1569.33 746.98C1564.63 755.024 1560.31 762.822 1555.25 770.551C1532.93 804.546 1505.1 835.547 1470.8 857.413C1451.95 869.464 1432 878.194 1410.13 883.951C1381.74 891.55 1352.11 893.548 1322.72 890.937C1318.48 890.53 1314.01 890.919 1309.93 890.334C1240.23 880.41 1186.72 844.796 1128.08 827.522C1119.07 824.806 1110.02 822.451 1100.73 820.762C1062.21 813.757 1021.23 817.572 982.355 831.137C953.606 841.117 925.934 856.778 900.942 876.71C883.881 890.332 868.145 905.322 854.242 922.198C819.853 963.606 794.802 1012.28 789.784 1055.97" stroke="#DDE4E6" stroke-miterlimit="10"/>
<path d="M2126.94 557.541C2042.66 489.056 1927.05 465.823 1822.52 494.743C1766.11 510.31 1713.52 540.897 1672.21 582.258C1660.03 594.484 1649.09 606.986 1639.93 620.45C1614.29 658.196 1598.63 699.55 1575.32 740.766C1570.7 748.889 1565.72 757.268 1560.57 765.087C1538.28 799.758 1510.92 831.359 1476.21 853.361C1457.2 865.436 1436.43 874.436 1414.14 879.988C1385.4 887.301 1355.52 889.048 1325.98 886.313C1321.57 885.922 1317.34 884.869 1313.09 884.3C1242.54 874.433 1188.46 844.353 1131.22 832.117C1122.43 830.24 1113.86 828.526 1104.7 827.43C1067.34 823.513 1028.66 830.467 991.102 846.003C963.389 857.542 935.974 873.622 911.28 894.309C894.418 908.434 879.083 924.294 864.67 941.208C829.427 982.684 801.41 1029.27 794.117 1068.28" stroke="#D2DDE1" stroke-miterlimit="10"/>
<path d="M2132.17 551.666C2048.93 483.612 1934.17 459.517 1830.49 487.277C1773.48 502.624 1719.89 533.741 1678.11 575.632C1665.77 588.035 1655.8 600.766 1646.58 614.485C1620.8 652.574 1605.25 694.586 1582.06 736.212C1577.45 744.502 1573.1 753.129 1568.06 761.194C1545.8 796.365 1517.99 828.12 1483.04 850.218C1463.78 862.391 1442.11 871.621 1419.56 876.936C1390.46 883.932 1360.52 883.983 1330.55 881.189C1326.15 880.797 1322 881.156 1317.76 880.587C1246.19 870.61 1191.77 844.978 1135.76 837.623C1127.11 836.494 1118.29 836.117 1109.43 835.758C1073.26 834.791 1035.85 843 999.76 860.458C973.06 873.36 947.344 891.485 923.03 912.818C906.369 927.433 890.506 943.534 875.759 960.467C839.761 1001.9 808.709 1046.4 799.111 1080.84" stroke="#C7D6DB" stroke-miterlimit="10"/>
<path d="M2138.16 545.451C2055.93 477.817 1942.1 454.144 1839.3 480.882C1781.68 495.825 1728.32 526.262 1686.17 568.577C1673.75 581.063 1663.28 594.378 1653.97 608.18C1628.08 646.768 1611.87 689.966 1588.89 732.07C1584.29 740.524 1579.93 748.99 1574.89 757.052C1552.69 792.88 1524.56 824.634 1489.21 846.827C1469.79 859.001 1447.88 867.891 1424.97 872.883C1395.53 879.554 1365.45 879.516 1335.22 876.476C1330.82 876.083 1325.92 875.784 1321.67 875.213C1249.18 865.187 1194.58 845.357 1139.65 842.879C1131.21 842.575 1123.37 841.959 1114.81 842.336C1079.76 844.23 1043.29 855.945 1008.51 875.324C982.827 889.58 957.463 908.436 933.369 930.417C916.914 945.516 901.924 961.78 886.848 978.727C850.029 1020.2 815.844 1062.71 804.106 1092.4" stroke="#BCCFD5" stroke-miterlimit="10"/>
<path d="M2143.15 540.237C2061.91 472.996 1949.66 449.096 1847.77 474.738C1789.45 489.372 1735.02 520.436 1692.57 563.272C1680.07 575.847 1669.66 588.905 1660.37 602.876C1634.26 641.901 1618.32 685.566 1595.38 728.177C1590.87 736.711 1586.41 744.929 1581.38 753.159C1559.21 789.492 1530.9 822.798 1495.13 845.096C1475.54 857.278 1453.49 865.731 1430.14 870.492C1400.32 876.673 1370.14 876.542 1339.63 873.423C1335.14 872.95 1331.09 872.061 1326.75 871.41C1253.3 861.331 1196.82 845.915 1143.19 848.385C1134.96 848.737 1126.8 849.552 1118.54 850.664C1084.67 855.502 1051.06 869.711 1017.67 891.1C993.005 906.886 968.665 926.869 944.869 949.586C928.613 965.177 912.36 982.519 897.028 999.398C859.359 1040.75 822.729 1080.51 808.851 1105.63" stroke="#B2C8CF" stroke-miterlimit="10"/>
<path d="M2149.89 534.326C2069.66 467.503 1959.07 443.385 1857.99 467.896C1798.96 482.249 1743.42 512.646 1700.63 555.86C1688.05 568.53 1678.05 582.63 1668.53 596.875C1642.17 636.353 1625.53 679.725 1602.87 722.927C1598.28 731.554 1593.98 740.919 1588.96 749.32C1566.83 786.341 1538.17 819.677 1502.05 842.007C1482.28 854.207 1460.85 862.864 1437.06 867.404C1406.87 873.275 1375.83 872.367 1345.05 869.014C1340.56 868.541 1335.93 868.313 1331.51 867.751C1256.93 857.659 1199.49 845.919 1147.08 853.284C1139.07 854.465 1131.23 855.783 1123.26 857.635C1090.51 865.522 1058.52 882.27 1026.42 905.609C1002.76 922.77 978.729 944.861 955.301 968.239C939.237 984.33 923.884 1000.47 908.12 1017.3C869.595 1058.73 829.386 1097.02 813.187 1117.58" stroke="#A7C1C9" stroke-miterlimit="10"/>
<path d="M2155.13 527.737C2075.98 461.39 1966.9 436.837 1866.72 460.377C1807.01 474.441 1750.44 505.361 1707.28 549.181C1694.63 561.938 1683.37 575.955 1673.77 590.286C1647.28 630.268 1631.5 674.805 1608.95 718.41C1604.37 727.202 1600.06 736.403 1595.04 744.803C1572.94 782.318 1544.66 815.051 1508.13 837.49C1488.12 849.789 1465.86 858.58 1441.73 862.976C1411.11 868.458 1380.09 867.419 1348.97 863.926C1344.48 863.454 1339.84 863.224 1335.43 862.663C1259.95 852.562 1202.94 846.971 1151.72 859.487C1143.92 861.329 1136.41 863.319 1128.74 865.91C1097.2 876.754 1066.54 896.158 1035.92 921.421C1013.29 940.115 990.179 961.921 967.055 986.034C951.194 1002.61 935.399 1020.41 919.303 1037.26C879.948 1078.73 837.454 1114.27 818.936 1130.09" stroke="#9CBAC4" stroke-miterlimit="10"/>
<path d="M2160.12 521.808C2082.15 456.019 1973.81 431.697 1874.53 454.268C1814.06 467.969 1757.23 498.904 1713.69 543.162C1701.05 556.085 1689.76 569.772 1680.17 584.267C1653.46 624.675 1637.87 669.628 1615.44 713.802C1610.96 722.671 1606.54 731.63 1601.54 740.196C1579.48 778.372 1550.82 812.506 1514.05 835.045C1493.88 847.354 1471.3 855.874 1446.9 859.87C1415.93 865.043 1384.01 863.219 1352.64 859.498C1348.07 858.949 1344.17 858.044 1339.76 857.484C1263.3 847.3 1205.23 846.871 1155.27 864.278C1147.69 866.948 1140.49 869.443 1133.13 872.773C1102.71 886.493 1073.56 908.547 1044.33 935.822C1022.72 955.879 1000.55 979.071 977.81 1003.83C962.152 1020.9 946.487 1039.52 930.148 1056.46C890.041 1097.89 844.431 1131.43 823.686 1142.6" stroke="#92B3BE" stroke-miterlimit="10"/>
<path d="M2165.87 515.54C2088.84 450.116 1981.38 424.962 1883.01 446.409C1821.82 459.784 1765.35 491.282 1721.5 536.054C1708.71 549.151 1696.98 563.158 1687.32 577.909C1660.4 618.751 1644.99 664.265 1622.69 708.856C1618.22 717.892 1613.77 726.516 1608.78 735.249C1586.77 773.929 1557.17 809.133 1519.97 831.6C1499.64 843.911 1477.67 852.668 1452.83 856.425C1421.49 861.266 1389.46 857.869 1357.73 853.981C1353.15 853.428 1348.69 853.359 1344.18 852.718C1266.75 842.455 1208.39 846.371 1159.57 868.73C1152.13 872.146 1144.68 875.982 1137.61 880.048C1108.3 896.798 1081.42 920.68 1053.5 949.884C1032.9 971.302 1011.18 996.622 988.655 1022.03C973.199 1039.59 956.914 1057.05 940.242 1074.01C899.302 1115.48 851.331 1147.53 828.436 1154.11" stroke="#87ACB8" stroke-miterlimit="10"/>
<path d="M2171.86 509.611C2095.91 444.654 1989.99 418.877 1892.48 439.55C1830.69 452.567 1772.48 484.049 1728.15 529.375C1715.28 542.567 1704.46 556.878 1694.73 571.891C1667.64 613.09 1651.64 659.906 1629.52 704.999C1625.14 714.116 1620.6 722.49 1615.61 731.393C1593.71 770.663 1564.5 806.395 1526.9 829.154C1506.31 841.574 1482.78 849.788 1457.59 853.409C1425.97 857.859 1394.49 855.077 1362.49 850.965C1357.82 850.335 1353.44 848.841 1348.85 848.29C1270.41 837.954 1211.86 847.41 1164.21 874.933C1157.06 879.09 1149.95 883.594 1143.09 888.323C1114.98 908.039 1089.55 934.632 1063 965.696C1043.42 988.657 1021.98 1014.42 999.749 1040.58C984.488 1058.64 968.528 1077.05 951.426 1093.96C909.623 1135.34 858.655 1165.44 833.525 1167.37" stroke="#7CA6B2" stroke-miterlimit="10"/>
<path d="M2176.85 502.682C2102 438.22 1997.63 412.065 1900.96 431.691C1838.51 444.423 1779.17 476.522 1734.56 522.356C1721.61 535.633 1711.03 549.855 1701.13 564.872C1673.92 606.568 1657.35 653.156 1635.26 698.731C1630.8 707.933 1626.43 717.637 1621.45 726.536C1599.5 766.382 1570.65 801.52 1532.73 824.298C1511.98 836.726 1488.37 845.903 1462.76 849.303C1430.8 853.444 1399.05 848.956 1366.82 844.787C1362.15 844.159 1357.1 843.412 1352.53 842.863C1273.21 832.526 1213.49 847.071 1167.09 879.475C1160.09 884.38 1153.37 889.471 1146.82 894.937C1119.92 917.601 1095.89 946.613 1070.75 979.848C1052.19 1004.17 1033.1 1031.23 1011.25 1058.03C996.198 1076.58 979.702 1095.24 962.271 1112.17C919.647 1153.59 865.699 1181.5 838.275 1178.88" stroke="#719FAC" stroke-miterlimit="10"/>
<path d="M2181.84 496.754C2108.05 432.745 2005.07 406.188 1909.43 424.831C1846.21 437.199 1786.64 469.474 1741.62 515.587C1728.59 528.953 1717.42 543.67 1707.54 558.854C1680.1 600.983 1663.63 647.892 1641.76 694.124C1637.3 703.493 1632.83 712.784 1627.94 721.929C1606.11 762.354 1576.9 798.884 1538.65 821.853C1517.74 834.292 1494.56 842.357 1468.59 845.446C1436.28 849.277 1403.74 845.421 1371.24 841.02C1366.57 840.393 1361.6 839.556 1356.95 839.096C1276.55 828.755 1216.54 847.47 1171.4 884.927C1164.6 890.492 1158.22 896.257 1151.96 902.461C1126.09 928.088 1103.68 959.829 1079.91 994.91C1062.46 1020.67 1043.65 1049.7 1022.1 1077.24C1007.32 1096.19 990.881 1114.43 973.116 1131.38C929.655 1172.85 872.675 1198.66 843.025 1191.39" stroke="#6798A6" stroke-miterlimit="10"/>
<path d="M2187.59 491.486C2114.77 427.868 2012.91 401.63 1918 419.384C1854.12 431.37 1794.12 463.568 1748.78 510.229C1735.66 523.691 1723.98 537.297 1713.94 552.835C1686.26 595.423 1670.12 644.256 1648.34 690.928C1643.98 700.381 1639.49 709.494 1634.52 718.733C1612.64 759.773 1583.27 796.486 1544.58 819.407C1523.49 832.031 1499.53 840.395 1473.1 843.091C1440.42 846.607 1407.77 841.146 1374.91 836.592C1370.15 835.886 1365.38 835.375 1360.62 834.669C1279.24 824.288 1218.21 847.939 1174.28 890.469C1167.71 896.864 1160.99 903.88 1155.03 910.826C1130.34 939.419 1110.89 973.685 1088.42 1010.72C1071.89 1037.95 1053.55 1067.57 1032.19 1095.79C1017.61 1115.23 1001.41 1134.35 983.3 1151.33C939.055 1192.79 878.927 1216.51 847.114 1204.65" stroke="#5C91A1" stroke-miterlimit="10"/>
<path d="M2194.33 485.218C2122.48 421.977 2021.46 394.732 1927.48 411.525C1862.8 423.1 1802.65 455.283 1756.84 502.46C1743.65 516.006 1731.54 531.604 1721.43 547.228C1693.64 590.321 1678.14 638.82 1656.58 685.982C1652.23 695.602 1647.07 705.299 1642.11 714.537C1620.36 756.154 1591.19 793.622 1552.25 816.623C1531 829.246 1506.73 837.203 1480.03 839.646C1446.97 842.827 1413.56 836.549 1380.33 831.826C1375.57 831.116 1370.88 830.523 1366.04 829.902C1283.69 819.44 1221.59 848.104 1178.92 895.672C1172.48 902.814 1166.92 909.747 1161.17 917.35C1137.69 948.889 1119 986.654 1097.92 1025.53C1082.41 1054.13 1065.66 1084.39 1044.7 1113.24C1030.32 1133.18 1013.6 1152.71 995.145 1169.54C949.982 1210.95 887.012 1232.61 852.864 1216.16" stroke="#518A9B" stroke-miterlimit="10"/>
<path d="M2199.32 479.289C2128.53 416.501 2028.96 388.776 1935.95 404.666C1870.67 415.858 1809.34 448.749 1763.25 496.441C1749.98 510.074 1737.93 525.42 1727.84 541.209C1699.82 584.73 1684.6 633.718 1663.08 681.375C1658.65 691.082 1653.46 700.448 1648.6 709.93C1626.82 752.131 1597.5 789.57 1558.08 812.766C1536.67 825.398 1512.33 834.322 1485.2 836.54C1451.71 839.328 1418.32 832.927 1384.76 828.059C1379.92 827.439 1375.3 826.756 1370.46 826.136C1287.11 815.572 1224.63 848.508 1183.22 901.124C1177.08 909.003 1171.1 917.284 1165.66 925.625C1143.3 960.202 1126.68 999.628 1107.08 1040.6C1092.61 1070.72 1075.36 1102.12 1054.79 1131.79C1040.62 1152.21 1024.78 1171.9 1005.99 1188.74C960.075 1230.11 894.002 1249.94 857.614 1228.66" stroke="#478395" stroke-miterlimit="10"/>
<path d="M2204.32 472.361C2134.64 410.084 2036.54 381.833 1944.43 396.806C1878.47 407.584 1816.15 441.265 1769.65 489.423C1756.31 503.318 1744.58 518.131 1734.24 534.191C1706.06 578.064 1689.5 627.708 1668.16 675.857C1663.82 685.643 1659.38 695.501 1654.43 705.073C1632.75 747.859 1603.1 786.832 1563.34 810.072C1541.69 822.815 1517.18 829.76 1489.62 831.773C1455.79 834.272 1422.15 827.63 1388.43 822.632C1383.5 821.937 1379.14 821.314 1374.13 820.708C1289.91 810.186 1226.21 848.072 1186.11 905.666C1180.1 914.296 1174.53 923.159 1169.38 932.239C1148.12 969.696 1133.07 1011.93 1114.84 1054.75C1101.36 1086.24 1085.92 1119.58 1065.64 1149.99C1051.65 1170.91 1035.3 1190.83 1016.17 1207.7C969.414 1249.14 900.366 1266.73 861.704 1240.92" stroke="#3C7C8F" stroke-miterlimit="10"/>
<path d="M2210.31 466.432C2141.64 404.566 2044.4 376.493 1953.24 390.698C1886.5 401.081 1824.51 433.986 1777.71 482.654C1764.3 496.633 1751.97 511.948 1741.64 528.172C1713.34 572.551 1696.78 622.614 1675.65 671.25C1671.32 681.203 1667.52 691.31 1662.68 701.127C1640.96 744.498 1610.34 782.878 1570.18 806.215C1548.35 818.962 1523.62 826.9 1495.79 828.667C1461.6 830.839 1427.83 823.944 1393.85 818.865C1388.92 818.168 1383.73 816.978 1378.8 816.281C1293.55 805.623 1230.33 848.393 1191.41 911.118C1185.61 920.406 1179.71 930.697 1174.86 940.514C1154.81 980.918 1141.92 1025.06 1125 1069.81C1112.63 1102.74 1097.38 1136.81 1077.39 1167.79C1063.61 1189.2 1046.71 1209.19 1027.27 1226.25C979.757 1267.64 908.275 1283.83 867.453 1253.43" stroke="#317589" stroke-miterlimit="10"/>
<path d="M2215.3 460.503C2147.72 399.121 2051.9 370.5 1961.72 383.839C1894.29 393.788 1831.31 427.515 1784.12 476.635C1770.63 490.706 1758.45 505.84 1748.05 522.154C1719.51 566.968 1703.09 617.519 1682.15 666.643C1677.83 676.762 1673.36 687.454 1668.51 697.27C1646.9 741.221 1616.51 780.322 1576.1 803.77C1554.11 816.533 1529.14 824.096 1500.97 825.561C1466.43 827.434 1431.76 819.735 1397.52 814.438C1392.51 813.665 1388.23 813.12 1383.23 812.514C1297 801.96 1232.48 849.475 1195.05 917.32C1189.47 927.436 1184.55 937.483 1180.01 948.038C1161.14 991.393 1149.04 1038.86 1133.5 1085.62C1122.06 1120.01 1107.18 1154.62 1087.49 1186.33C1073.9 1208.23 1057.9 1228.54 1038.11 1245.45C989.675 1286.83 915.227 1300.96 872.203 1265.94" stroke="#266E84" stroke-miterlimit="10"/>
<path d="M2220.54 455.557C2153.94 394.552 2059.89 365.367 1970.45 377.962C1902.35 387.346 1837.54 421.276 1790.02 470.938C1776.45 485.103 1765.18 500.54 1754.7 517.117C1725.94 562.387 1709.14 614.116 1688.23 663.768C1684 673.972 1679.43 684.407 1674.6 694.396C1652.94 738.961 1622.29 778.174 1581.52 801.646C1559.36 814.422 1534.36 822.956 1505.73 824.188C1470.81 825.737 1436.8 817.112 1402.19 811.653C1397.18 810.878 1392.15 809.677 1387.15 809.069C1299.84 798.377 1234.47 851.157 1198.19 923.845C1192.74 934.715 1188.32 945.414 1183.99 956.634C1166.24 1003.06 1155.65 1052.96 1141.51 1101.76C1131.08 1137.53 1117.98 1174.05 1098.58 1206.52C1085.2 1228.92 1068.68 1249.45 1048.55 1266.39C999.25 1307.83 921.922 1319.81 876.544 1280.18" stroke="#1C677E" stroke-miterlimit="10"/>
<path d="M2226.29 448.575C2160.76 388.047 2068.12 358.352 1979.68 370.049C1891.23 381.747 1808.16 434.731 1760.45 510.135C1725.51 565.289 1709.91 629.897 1681.85 688.735C1648.5 758.428 1593.86 817.395 1511.66 820.029C1471.27 821.342 1431.77 808.43 1391.58 803.588C1303.39 792.888 1237.52 849.873 1202.5 927.582C1175.81 986.838 1166.53 1052.16 1150.68 1115.1C1134.75 1178.13 1109.44 1242.49 1059.4 1283.88C1009.36 1325.27 928.801 1335.32 881.299 1290.98" stroke="#116078" stroke-miterlimit="10"/>
<path d="M2217.05 461.521C2151.04 404.371 2059.84 378.792 1972.38 391.374C1962.37 392.847 1952.88 395.106 1943.02 397.496C1867.07 416.091 1797.48 462.701 1754.21 525.725C1734.04 555.123 1720.33 587.006 1706.33 619.468C1695.56 644.484 1684.25 669.828 1671.4 693.964C1636.88 759.468 1581.96 814.448 1500.67 816.79C1460.66 817.963 1421.96 806.065 1382.09 801.67C1295.22 791.983 1229.75 848.364 1195.09 924.824C1188.53 939.301 1182.86 953.213 1178.03 968.423C1163.63 1014.3 1156.22 1062.63 1144.5 1109.43C1141.9 1120.12 1138.46 1130.64 1135.19 1141.2C1119.37 1192.47 1094.56 1242.15 1053.79 1276.05C1004.46 1316.97 926.204 1327.77 878.693 1285.79" stroke="#11677E" stroke-miterlimit="10"/>
<path d="M2204.8 474.468C2138.61 420.793 2049.22 399.825 1962.84 413.36C1952.92 414.912 1942.5 416.351 1932.72 418.821C1857.55 437.627 1789.32 481.927 1744.97 541.314C1724.26 568.978 1708.63 599.19 1693.91 629.592C1682.45 653.051 1671.25 676.713 1657.96 699.193C1622.15 760.567 1566.9 811.521 1486.69 813.551C1447 814.539 1409.02 803.582 1369.61 799.753C1284.27 791.411 1218.51 846.298 1183.93 921.405C1177.35 935.715 1171.63 950.052 1166.87 965.005C1152.59 1010.2 1145.25 1057.66 1133.91 1103.85C1131.3 1114.37 1129.21 1125.06 1126.01 1135.53C1110.48 1186.11 1086.04 1233.86 1045.84 1267.47C997.331 1308 919.855 1319.55 872.337 1279.94" stroke="#126E85" stroke-miterlimit="10"/>
<path d="M2195.31 486.075C2128.73 435.858 2041.18 418.056 1955.96 432.594C1946.22 434.302 1936.2 436.259 1926.59 438.716C1852.18 457.712 1782.99 499.338 1737.73 554.903C1716.49 580.829 1700.33 609.285 1684.9 637.625C1672.92 659.517 1661.56 681.263 1647.92 702.332C1610.84 759.404 1556.18 807.179 1476.87 808.882C1437.5 809.673 1397.42 798.53 1358.38 795.174C1274.45 788.072 1209.84 841.573 1175.43 915.236C1168.92 929.287 1163.14 944.05 1158.37 958.835C1144.15 1003.44 1137.85 1050.6 1126.73 1096.18C1124.2 1106.61 1121.2 1116.81 1118.08 1127.2C1102.77 1177.18 1079.53 1225.07 1039.99 1258.29C992.216 1298.52 916.28 1310.01 868.731 1272.75" stroke="#12748B" stroke-miterlimit="10"/>
<path d="M2182.56 498.7C2115.89 452.038 2030.09 438.799 1945.92 454.258C1936.27 456.051 1926.06 457.839 1916.55 460.38C1843.05 479.703 1775.07 518.907 1728.73 570.832C1707.13 595.012 1689.63 620.975 1673.38 647.338C1660.88 667.656 1648.88 688.402 1634.73 707.9C1596.27 760.754 1539.98 804.706 1461.72 806.072C1422.72 806.705 1385.52 796.929 1346.89 794.257C1264.48 788.483 1200.19 841.037 1166.02 913.477C1159.5 927.356 1154.24 941.727 1149.62 956.326C1135.59 1000.3 1128.57 1045.9 1117.8 1090.85C1115.34 1101.19 1112.28 1111.66 1109.15 1121.87C1094.11 1171.13 1070.51 1217.95 1031.63 1250.8C984.598 1290.57 911.527 1303.32 864.125 1268.56" stroke="#137B92" stroke-miterlimit="10"/>
<path d="M2172.32 509.646C2105.32 466.49 2020.61 457.085 1937.62 473.583C1928.07 475.456 1919.1 477.161 1909.66 479.615C1836.96 499.156 1768.16 535.638 1720.74 583.76C1698.61 606.207 1681.17 631.079 1664.37 655.372C1651.34 674.123 1637.87 693.119 1623.28 711.129C1583.64 759.764 1528.22 799.765 1451.15 800.743C1412.57 801.277 1374.74 792.597 1336.41 790.339C1255.54 785.756 1191.54 836.32 1157.52 907.308C1150.97 920.849 1145.75 935.728 1141.12 950.156C1127.21 993.443 1121.09 1038.77 1110.62 1083.18C1108.15 1093.35 1105.69 1103.32 1102.63 1113.45C1087.87 1162 1063.99 1208.98 1025.77 1241.63C979.563 1281.01 907.162 1293.09 859.769 1260.71" stroke="#138298" stroke-miterlimit="10"/>
<path d="M2161.08 521.593C2093.63 481.856 2010.88 475.652 1928.99 493.157C1919.61 495.186 1910.38 497.99 1901.12 500.601C1829.14 520.337 1760.36 554.592 1711.84 599.101C1689.17 619.823 1670.55 642.159 1652.95 664.495C1639.31 681.78 1625.95 698.906 1610.84 715.358C1569.98 759.801 1513.65 796.532 1437.5 797.255C1399.3 797.498 1361.59 789.212 1323.52 787.511C1243.91 784.076 1181.21 834.464 1147.44 904.3C1140.89 917.682 1135.52 931.556 1130.95 945.738C1117.09 988.461 1111.28 1032.76 1101.03 1076.6C1098.72 1086.6 1096.02 1096.83 1093.04 1106.87C1078.67 1154.84 1055.76 1200.52 1018.16 1232.8C972.745 1271.8 901.876 1285.25 854.503 1255.27" stroke="#13899F" stroke-miterlimit="10"/>
<path d="M2151.58 535.2C2083.89 498.881 2003.14 497.467 1922.2 515.803C1912.9 517.907 1903.6 520.64 1894.33 523.247C1823.09 543.16 1754.87 574.575 1705.35 615.351C1682.14 634.335 1662.92 654.836 1644.68 675.19C1630.53 690.907 1615.78 706.364 1600.14 721.248C1557.92 761.479 1502.22 795.051 1427.02 795.337C1389.12 795.373 1350.75 786.664 1313.03 785.594C1234.89 783.287 1172.46 831.815 1138.94 900.131C1132.46 913.258 1127.03 927.551 1122.45 941.568C1108.82 983.698 1103.12 1028.35 1093.19 1071.68C1090.96 1081.59 1088.77 1091.41 1085.86 1101.2C1071.8 1148.49 1049.33 1193.64 1012.3 1225.62C967.611 1264.16 898.326 1277.74 850.897 1250.08" stroke="#148FA5" stroke-miterlimit="10"/>
<path d="M2138.84 545.825C2070.87 513.057 1991.78 514.659 1912.06 534.056C1902.95 536.321 1894.12 539.471 1884.95 542.16C1814.62 562.388 1746.26 591.555 1695.61 628.619C1671.88 645.87 1652.21 664.688 1633.17 682.902C1618.41 696.972 1603.67 710.67 1587.61 724.066C1544.21 760.077 1487.41 790.331 1413.29 790.437C1375.84 790.389 1338.94 783.149 1301.55 782.676C1224.99 781.591 1162.89 829.363 1129.53 896.373C1123.11 909.237 1117.46 922.646 1112.95 936.398C1099.35 977.911 1093.91 1021.57 1084.26 1064.35C1082.02 1074.08 1079.76 1084.17 1076.93 1093.86C1063.14 1140.44 1039.56 1183.86 1003.19 1215.47C959.336 1253.61 892.921 1268.47 845.54 1243.23" stroke="#1496AB" stroke-miterlimit="10"/>
<path d="M2128.34 559.433C2060.04 530.017 1982.95 536.379 1904.27 556.702C1895.24 559.044 1885.41 561.469 1876.4 564.146C1806.82 584.564 1739.12 612.281 1687.45 645.619C1663.36 661.126 1642.83 676.701 1623.16 692.936C1607.88 705.441 1592.5 718.126 1575.92 729.956C1531.31 761.751 1473.39 787.434 1400.3 787.198C1363.16 786.95 1327.02 780.682 1290.07 780.758C1214.98 780.818 1153.14 826.54 1120.03 892.203C1113.6 904.903 1107.97 918.641 1103.45 932.229C1089.98 973.073 1085.43 1016.58 1076.08 1058.68C1073.92 1068.33 1070.75 1077.93 1068 1087.53C1054.51 1133.43 1032.06 1177.07 996.336 1208.3C953.197 1245.98 888.105 1260.88 840.935 1238.04" stroke="#149DB2" stroke-miterlimit="10"/>
<path d="M2117.35 570.718C2048.79 544.867 1972.81 555.102 1895.23 576.366C1886.29 578.786 1877.61 581.054 1868.77 583.72C1799.98 604.34 1731.36 629.279 1678.71 658.887C1654.09 672.657 1633.78 687.136 1613.39 701.31C1597.52 712.335 1580.81 723.095 1563.72 733.524C1517.93 761.097 1460.4 783.591 1388.32 782.959C1351.51 782.524 1315.49 776.531 1278.84 777.18C1205.18 778.332 1144.64 824.15 1111.62 888.445C1105.26 900.885 1099.4 913.731 1094.95 927.06C1081.53 967.301 1077.2 1009.78 1068.15 1051.34C1066.07 1060.9 1064.25 1070.68 1061.48 1080.11C1048.21 1125.39 1025.44 1167.7 990.388 1198.71C948.077 1236 884.503 1252.33 837.329 1231.85" stroke="#15A4B8" stroke-miterlimit="10"/>
<path d="M2107.1 584.665C2038.17 562.123 1964.83 576.363 1888.34 598.601C1879.58 601.172 1870.07 604.044 1861.23 606.705C1793.16 627.488 1725.23 649.696 1671.47 675.477C1646.3 687.501 1624 700.247 1602.97 712.433C1586.56 721.886 1570.57 730.314 1552.94 739.002C1505.92 762.338 1448.25 782.472 1377.09 781.381C1340.66 780.804 1304.58 775.083 1268.35 776.262C1196.14 778.522 1135.87 823.654 1103.21 886.687C1096.84 898.963 1091.58 911.473 1087.2 924.551C1074.01 964.209 1069.78 1005.69 1060.97 1046.67C1058.88 1056.07 1056.23 1065.43 1053.55 1074.78C1040.6 1119.39 1018.19 1161.25 983.78 1191.88C942.275 1228.77 880.888 1245.75 833.723 1227.66" stroke="#15AABF" stroke-miterlimit="10"/>
<path d="M2095.11 594.95C2025.94 575.998 1953.63 594.013 1878.3 617.265C1869.64 619.923 1861.26 622.621 1852.59 625.279C1785.46 646.407 1717.17 666.14 1662.48 688.405C1636.8 698.716 1614.03 709.743 1592.21 719.806C1575.29 727.704 1558.54 735.017 1540.49 742.231C1492.25 761.475 1434.75 776.709 1364.76 775.391C1328.71 774.673 1292.76 770.549 1256.87 772.345C1186.18 775.783 1126.32 818.868 1093.71 880.517C1087.41 892.53 1082.01 905.402 1077.7 918.381C1064.53 957.417 1059.94 998.838 1051.38 1039.09C1049.44 1048.3 1047.15 1057.28 1044.62 1066.45C1032.01 1110.41 1010.01 1151.87 976.172 1182.05C935.41 1218.48 875.455 1235.46 828.367 1219.81" stroke="#16B1C5" stroke-miterlimit="10"/>
<path d="M2083.86 607.897C2014.42 592.334 1944.06 615.109 1869.76 639.25C1861.27 642.06 1852.71 644.444 1844.05 647.264C1777.57 668.639 1710.05 685.568 1654.23 703.995C1628.1 712.633 1604.66 721.77 1582.19 729.84C1564.58 736.172 1546.71 741.735 1528.05 747.46C1478.67 762.534 1420.83 773.765 1351.78 772.152C1316.02 771.212 1280.94 768.18 1245.39 770.427C1176.14 774.971 1116.63 817.462 1084.3 877.759C1077.9 889.528 1072.43 901.485 1068.2 914.211C1055.17 952.58 1051.43 993.673 1043.2 1033.42C1041.35 1042.55 1038.98 1051.78 1036.44 1060.78C1024.15 1104.07 1001.84 1144.33 968.564 1174.22C928.537 1210.33 870.921 1227.97 823.761 1214.62" stroke="#16B8CC" stroke-miterlimit="10"/>
<path d="M2073.62 619.844C2003.88 607.813 1935.22 633.63 1862.12 658.824C1853.73 661.716 1845.74 664.764 1837.17 667.499C1771.5 689.107 1703.26 704.594 1646.33 719.335C1619.77 726.163 1595.6 732.191 1572.43 738.213C1554.31 742.988 1535.77 747.521 1516.6 751.689C1466.07 762.573 1407.8 769.876 1339.79 767.913C1304.4 766.81 1270.12 764.502 1234.9 767.509C1167.13 773.186 1107.89 813.678 1075.8 872.589C1069.47 884.097 1063.95 896.49 1059.7 909.042C1046.8 946.877 1043.3 986.969 1035.27 1026.09C1033.4 1035.04 1030.98 1044.54 1028.51 1053.45C1016.5 1096.02 994.568 1135.88 961.956 1165.38C922.669 1201.03 867.192 1219.3 820.156 1208.43" stroke="#16BFD2" stroke-miterlimit="10"/>
<path d="M2062.38 632.79C1992.19 624.194 1924.92 654.017 1852.83 680.149C1844.52 683.119 1836.28 685.933 1827.88 688.824C1762.92 710.63 1695.99 723.839 1638.09 734.924C1610.96 740.014 1585.66 744.87 1561.76 748.998C1543.1 752.203 1523.79 754.409 1504.16 756.918C1452.39 763.741 1393.91 768.399 1326.9 766.085C1291.88 764.856 1256.98 762.114 1222.01 765.681C1155.58 772.424 1097.75 812.976 1065.73 870.582C1059.46 881.842 1053.72 893.317 1049.54 905.623C1036.76 942.809 1034.15 982.537 1026.43 1021.17C1024.64 1030.04 1022.72 1038.95 1020.33 1047.77C1008.61 1089.69 986.245 1128.33 954.347 1157.55C915.848 1192.83 861.249 1211.87 814.138 1203.33" stroke="#17C5D8" stroke-miterlimit="10"/>
<path d="M2051.88 644.397C1981.5 639.267 1916.13 673.632 1845.04 700.795C1836.9 703.922 1828.41 706.668 1820.08 709.47C1755.99 731.558 1689.58 741.894 1630.6 749.174C1602.94 752.53 1576.29 755.053 1551.74 757.032C1532.48 758.592 1513.35 759.026 1493.13 760.058C1440.16 762.662 1380.59 764.141 1314.67 761.507C1280.05 760 1245.12 757.547 1210.53 761.764C1145.6 769.507 1087.83 808.183 1056.23 864.412C1049.95 875.504 1044.98 887.976 1040.79 900.114C1028.14 936.617 1025.67 975.393 1018.25 1013.5C1016.54 1022.28 1013.8 1030.79 1011.4 1039.44C999.978 1080.67 978.064 1118.79 946.739 1147.72C909.059 1182.61 856.569 1202.24 809.533 1196.14" stroke="#17CCDF" stroke-miterlimit="10"/>
<path d="M2040.89 656.683C1970.16 655.035 1906.74 692.514 1836.66 720.708C1828.61 723.913 1820.69 727.164 1812.45 730.044C1749.14 752.336 1681.24 760.711 1621.2 764.193C1593.01 765.816 1567.32 766.393 1541.98 766.405C1522.2 766.4 1502.26 765.83 1481.68 765.286C1427.55 763.846 1367.69 761.205 1302.68 758.267C1268.4 756.575 1234.34 755.056 1200.05 759.846C1136.64 768.76 1079.33 806.787 1047.82 861.654C1041.61 872.487 1036.41 884.066 1032.29 895.945C1019.77 931.926 1016.79 970.512 1009.66 1007.92C1008.11 1016.52 1006.46 1025.3 1004.23 1033.77C993.012 1074.38 970.801 1111.33 940.131 1139.88C903.185 1174.31 852.969 1194.69 805.927 1190.95" stroke="#17D3E5" stroke-miterlimit="10"/>
<path d="M2030.64 669.63C1959.65 671.389 1898.17 713.594 1829.11 742.694C1821.24 746.052 1812.98 749.165 1804.91 752.03C1742.33 774.489 1674.96 779.997 1613.95 779.782C1585.31 779.727 1558.29 777.68 1532.22 775.778C1511.89 774.19 1491.35 772.644 1470.24 770.516C1414.78 764.899 1354.78 758.42 1290.7 755.028C1256.8 753.197 1223.42 752.603 1189.56 757.929C1127.52 767.719 1070.66 805.382 1039.41 858.896C1033.19 869.563 1027.92 880.06 1023.79 891.775C1011.41 927.089 1009.28 965.346 1002.48 1002.25C1000.92 1010.68 998.538 1019.13 996.295 1027.44C985.487 1067.46 964.376 1104.46 934.273 1132.71C898.14 1166.74 849.423 1187.18 802.321 1185.76" stroke="#18DAEC" stroke-miterlimit="10"/>
<path d="M2019.4 681.576C1948.09 686.861 1887.68 732.865 1819.82 763.018C1812.04 766.459 1805 769.316 1797.03 772.264C1735.25 794.959 1667.84 798.256 1605.71 794.372C1576.63 792.514 1548.81 788.763 1522.2 784.812C1501.21 781.683 1480.74 778.422 1459.2 774.654C1402.68 764.942 1341.33 753.702 1278.38 750.039C1244.83 748.044 1211.54 749.014 1178.08 755.011C1117.49 765.929 1061 801.494 1029.91 853.726C1023.75 864.135 1018.43 875.062 1014.29 886.605C1001.94 921.315 1000.07 958.556 993.554 994.916C992.067 1003.26 991.035 1011.88 988.777 1020.02C978.24 1059.33 956.776 1095.25 927.325 1123.13C891.924 1156.69 843.879 1177.95 796.965 1178.91" stroke="#18E0F2" stroke-miterlimit="10"/>
<path d="M2007.4 692.862C1935.84 701.535 1877.96 751.502 1811.19 782.593C1803.5 786.111 1795.71 789.642 1787.73 792.589C1726.84 815.564 1659.82 815.902 1596.72 808.3C1567.12 804.712 1538.17 799.853 1510.78 793.936C1489.27 789.244 1468.14 783.464 1446.01 778.223C1388.16 764.481 1328 750.438 1266.14 746.46C1232.93 744.28 1199.76 745.525 1166.6 752.093C1107.52 764.012 1051.33 799.113 1020.5 849.968C1014.24 860.128 1009.69 870.724 1005.54 882.097C993.408 916.193 991.599 952.588 985.375 988.245C983.967 996.498 982.026 1004.64 979.847 1012.69C969.604 1051.29 948.422 1086.72 919.717 1114.3C885.142 1147.46 839.275 1169.4 792.359 1172.72" stroke="#19E7F9" stroke-miterlimit="10"/>
<path d="M1997.16 705.808C1916.98 719.397 1855.83 783.951 1780.1 813.163C1691.8 847.129 1588.97 828.36 1501.02 803.309C1390.19 771.883 1273.02 723.988 1156.11 750.175C1086.92 765.677 1021.13 811.175 997.037 877.927C982.164 919.099 983.767 964.738 972.668 1007.02C950.741 1090.55 874.51 1156.95 788.753 1167.53" stroke="#19EEFF" stroke-miterlimit="10"/>
</g>
</g>
<defs>
<filter id="filter0_f_374_11103" x="798" y="-951" width="2041" height="2041" filterUnits="userSpaceOnUse" color-interpolation-filters="sRGB">
<feFlood flood-opacity="0" result="BackgroundImageFix"/>
<feBlend mode="normal" in="SourceGraphic" in2="BackgroundImageFix" result="shape"/>
<feGaussianBlur stdDeviation="300" result="effect1_foregroundBlur_374_11103"/>
</filter>
<filter id="filter1_f_374_11103" x="-900" y="-180" width="1653" height="1653" filterUnits="userSpaceOnUse" color-interpolation-filters="sRGB">
<feFlood flood-opacity="0" result="BackgroundImageFix"/>
<feBlend mode="normal" in="SourceGraphic" in2="BackgroundImageFix" result="shape"/>
<feGaussianBlur stdDeviation="250" result="effect1_foregroundBlur_374_11103"/>
</filter>
<clipPath id="clip0_374_11103">
<rect width="1920" height="713" fill="white"/>
</clipPath>
</defs>
</svg>
