<svg width="34" height="34" viewBox="0 0 34 34" fill="none" xmlns="http://www.w3.org/2000/svg">
<path d="M9.00009 9.99999H6.00009C5.23415 10.0594 4.42368 10.3566 4.00009 11L1.00009 16C0.678831 16.4879 0.764467 16.4651 1.00009 17C1.23577 17.5349 1.42453 17.9104 2.00009 18L5.00009 19C5.58967 15.858 6.88141 12.8876 9.00009 9.99999ZM15.0001 29L16.0001 32C16.0893 32.578 16.4675 32.7634 17.0001 33C16.7625 32.9998 17.2172 33.0968 17.0001 33C17.3335 32.9997 17.7223 33.1852 18.0001 33L23.0001 30C23.6408 29.5745 23.941 28.769 24.0001 28V25C21.1246 27.1277 18.129 28.408 15.0001 29ZM14.0001 27C13.9123 27.0147 14.0876 27 14.0001 27C15.3109 26.7799 16.7949 26.4853 18.0001 26L8.00009 16C7.51681 17.2102 7.21927 18.6835 7.00009 20C6.91371 20.5189 6.62968 20.628 7.00009 21L13.0001 27C13.3076 27.3088 13.5724 27 14.0001 27ZM30.0001 15C32.535 10.0786 33.1326 5.43908 33.0001 2.99999C32.9547 2.16425 31.8324 1.04554 31.0001 0.999986C30.5364 0.974868 30.4645 0.999748 30.0001 0.999986C27.2842 0.999986 23.1028 1.86893 19.0001 3.99999C15.7396 5.69358 11.5225 9.09925 9.00009 14C8.97266 13.9724 9.02988 14.0234 9.00009 14L20.0001 25C19.9768 24.9701 20.0275 25.0275 20.0001 25C24.8802 22.4669 28.3136 18.2743 30.0001 15ZM20.0001 7.99999C21.8146 6.17777 24.1854 6.17759 26.0001 7.99999C26.8792 8.88271 28.0001 9.75159 28.0001 11C28.0001 12.2484 26.8792 13.1173 26.0001 14C25.0929 14.911 24.1917 15.9999 23.0001 16C21.8081 16 20.9075 14.9112 20.0001 14C19.121 13.1173 18.0001 12.2484 18.0001 11C18.0001 9.75159 19.121 8.88271 20.0001 7.99999Z" fill="#E57D36"/>
<path d="M21.0001 13C22.0963 14.1048 23.9039 14.1049 25.0001 13C25.5311 12.4647 26.0001 11.7569 26.0001 11C26.0001 10.2431 25.5311 9.53519 25.0001 9C24.452 8.44756 23.7201 8 23.0001 8C22.2801 8 21.5482 8.44756 21.0001 9C20.4691 9.53519 20.0001 10.2431 20.0001 11C20.0001 11.7569 20.4691 12.4648 21.0001 13ZM2.0001 27C2.23996 27 2.81715 27.1845 3.0001 27L6.0001 24C6.36611 23.6311 6.36611 23.3689 6.0001 23C5.63414 22.6311 4.36611 22.6311 4.0001 23L1.0001 26C0.634082 26.3689 0.634082 26.6311 1.0001 27C1.08703 27.0878 1.88636 26.9525 2.0001 27C2.11383 27.0475 1.87699 27.0002 2.0001 27ZM9.0001 25C8.63414 24.6311 7.36611 24.6311 7.0001 25L1.0001 31C0.634082 31.3689 0.634082 32.6311 1.0001 33C1.1831 33.1844 1.76023 33 2.0001 33C2.23996 33 2.81715 33.1845 3.0001 33L9.0001 27C9.36617 26.6311 9.36611 25.3689 9.0001 25ZM10.0001 28L7.0001 31C6.63408 31.3689 6.63408 32.6311 7.0001 33C7.1831 33.1844 7.76029 33 8.0001 33C7.81715 33.1845 8.2399 33 8.0001 33L11.0001 30C11.3661 29.6311 11.3661 28.3689 11.0001 28C10.6341 27.6311 10.3661 27.6311 10.0001 28Z" fill="#E57D36"/>
</svg>
