<svg width="29" height="28" viewBox="0 0 29 28" fill="none" xmlns="http://www.w3.org/2000/svg">
<g clip-path="url(#clip0_355_6749)">
<path fill-rule="evenodd" clip-rule="evenodd" d="M20.2094 1.86865H25.6792V8.85918H24.039V3.50885H21.8496V5.73132H20.2094V1.86865ZM18.3754 13.0019H26.6037V27.9836H8.49316V23.0632H11.7872V19.7278H15.0813V16.3557H18.3754V13.0019ZM20.0156 16.3557H24.9635V14.6421H20.0156V16.3557ZM24.9635 17.9959H23.3096V19.7278H24.9635V17.9959ZM24.9635 21.368H20.0156V23.0632L24.9635 23.0632V21.368ZM15.0813 24.7034H10.1334V26.3434H15.0813V24.7034ZM16.7215 26.3434H21.6694V24.7034H16.7215V26.3434ZM23.3096 24.7034L24.9635 24.7034V26.3434H23.3096V24.7034ZM18.3754 23.0632V21.368H13.4274V23.0632H18.3754ZM21.6694 19.7278V17.9959H16.7215V19.7278H21.6694Z" fill="#232730"/>
<path fill-rule="evenodd" clip-rule="evenodd" d="M14.5034 0L28.4964 10.5817V14.2739H26.5887V28H2.41138V14.2739H0.503662V10.4437L14.5034 0ZM4.05158 14.081V26.3598H24.9485V14.2494L14.495 6.40246L4.05158 14.081ZM2.14386 11.2665V12.6337H3.25122L14.5051 4.35918L25.5282 12.6337H26.8562V11.3978L14.4967 2.05131L2.14386 11.2665Z" fill="#232730"/>
</g>
<defs>
<clipPath id="clip0_355_6749">
<rect width="28" height="28" fill="white" transform="translate(0.5)"/>
</clipPath>
</defs>
</svg>
