<svg width="127" height="38" viewBox="0 0 127 38" fill="none" xmlns="http://www.w3.org/2000/svg">
<path d="M47.9921 19.6136C47.9977 21.3854 46.9722 23.1376 45.9921 24.6136C45.0118 26.0895 43.6272 26.9317 41.9921 27.6136C40.3569 28.2956 38.7304 28.9559 36.9921 28.6136C35.2537 28.2714 34.2469 26.8645 32.9921 25.6136C31.7373 24.3628 30.3398 23.351 29.9921 21.6136C29.6443 19.8762 30.3153 18.2511 30.9921 16.6136C31.6687 14.9761 32.5193 13.5986 33.9921 12.6136C35.4647 11.6287 37.2203 10.6136 38.9921 10.6136C40.1703 10.5949 40.8994 11.1722 41.9921 11.6136C43.0848 12.0551 44.1575 12.7816 44.9921 13.6136C45.8268 14.4456 46.547 15.5222 46.9921 16.6136C47.4369 17.705 48.007 18.4351 47.9921 19.6136ZM43.9921 19.6136C44.042 18.922 44.2223 18.2675 43.9921 17.6136C43.7618 16.9596 43.4643 16.1212 42.9921 15.6136C42.5198 15.1059 41.6276 14.8903 40.9921 14.6136C40.3564 14.3367 39.6853 14.6136 38.9921 14.6136C38.2987 14.6136 37.6277 14.3367 36.9921 14.6136C36.3565 14.8903 35.4643 15.1059 34.9921 15.6136C34.5198 16.1212 34.2223 16.9596 33.9921 17.6136C33.7618 18.2675 33.9421 18.922 33.9921 19.6136C33.9421 20.305 33.7618 20.9596 33.9921 21.6136C34.2223 22.2675 34.5198 23.1059 34.9921 23.6136C35.4643 24.1212 36.3565 24.3367 36.9921 24.6136C37.6277 24.8905 38.2987 24.6136 38.9921 24.6136C39.6853 24.6136 40.3564 24.8905 40.9921 24.6136C41.6276 24.3367 42.5198 24.1212 42.9921 23.6136C43.4643 23.1059 43.7618 22.2675 43.9921 21.6136C44.2223 20.9596 44.042 20.305 43.9921 19.6136Z" fill="#EA4335"/>
<path d="M68.9921 19.6136C68.9977 21.3854 67.9723 23.1376 66.9921 24.6136C66.0119 26.0895 64.6274 26.9317 62.9921 27.6136C61.3569 28.2956 59.7303 28.9559 57.992 28.6136C56.2537 28.2714 55.2468 26.8645 53.992 25.6136C52.7373 24.3628 51.3398 23.351 50.992 21.6136C50.6443 19.8762 51.3153 18.2511 51.992 16.6136C52.6688 14.9761 53.5193 13.5986 54.992 12.6136C56.4648 11.6287 58.2203 10.6136 59.9921 10.6136C61.1704 10.5949 61.8993 11.1722 62.9921 11.6136C64.0847 12.0551 65.1575 12.7816 65.9921 13.6136C66.8266 14.4456 67.5472 15.5222 67.9921 16.6136C68.4371 17.705 69.007 18.4351 68.9921 19.6136ZM64.9921 19.6136C65.0421 18.922 65.2223 18.2675 64.9921 17.6136C64.7618 16.9596 64.4643 16.1212 63.9921 15.6136C63.5198 15.1059 62.6276 14.8903 61.9921 14.6136C61.3564 14.3367 60.6854 14.6136 59.9921 14.6136C59.2988 14.6136 58.6276 14.3367 57.992 14.6136C57.3564 14.8903 56.4643 15.1059 55.992 15.6136C55.5198 16.1212 55.2223 16.9596 54.992 17.6136C54.7618 18.2675 54.9421 18.922 54.992 19.6136C54.9421 20.305 54.7618 20.9596 54.992 21.6136C55.2223 22.2675 55.5198 23.1059 55.992 23.6136C56.4643 24.1212 57.3564 24.3367 57.992 24.6136C58.6276 24.8905 59.2988 24.6136 59.9921 24.6136C60.6854 24.6136 61.3564 24.8905 61.9921 24.6136C62.6276 24.3367 63.5198 24.1212 63.9921 23.6136C64.4643 23.1059 64.7618 22.2675 64.9921 21.6136C65.2223 20.9596 65.0421 20.305 64.9921 19.6136Z" fill="#FBBC05"/>
<path d="M88.9919 12.6136V28.6136C88.9919 35.2031 84.831 37.6136 79.9919 37.6136C78.2101 37.6242 76.4758 37.5503 74.9919 36.6136C73.5081 35.6767 72.6713 34.1778 71.9919 32.6136L74.9919 30.6136C75.3603 31.5279 76.1493 33.0497 76.9919 33.6136C77.8348 34.1774 78.9613 33.5917 79.9919 33.6136C83.089 33.6136 84.9919 32.0292 84.9919 28.6136V27.6136C84.3721 28.273 83.8466 28.2634 82.9919 28.6136C82.1371 28.9636 80.9225 29.6378 79.9919 29.6136C77.5723 29.5117 75.6663 28.2754 73.9919 26.6136C72.3176 24.9516 70.9919 22.9134 70.9919 20.6136C70.9919 18.3136 72.3176 16.2754 73.9919 14.6136C75.6663 12.9516 77.5723 11.7154 79.9919 11.6136C80.9189 11.5925 82.1385 11.2694 82.9919 11.6136C83.8454 11.9577 84.3644 12.9656 84.9919 13.6136V12.6136H88.9919ZM84.9919 20.6136C84.9919 17.4715 82.8009 15.6136 79.9919 15.6136C79.27 15.6379 78.6477 15.3257 77.9919 15.6136C77.3363 15.9015 77.4792 16.1071 76.9919 16.6136C76.5048 17.1202 75.2346 17.9674 74.9919 18.6136C74.7493 19.2597 74.9523 19.9287 74.9919 20.6136C74.956 21.2945 74.7471 21.9727 74.9919 22.6136C75.2368 23.2545 76.5046 24.1129 76.9919 24.6136C77.4792 25.1141 77.3383 25.3314 77.9919 25.6136C78.6454 25.8958 79.2743 25.5941 79.9919 25.6136C82.7998 25.6147 84.9919 23.724 84.9919 20.6136Z" fill="#4285F4"/>
<path d="M94.9919 1.61359V27.6136H90.9919V1.61359H94.9919Z" fill="#34A853"/>
<path d="M110.992 22.6136L113.992 24.6136C113.149 25.8476 112.333 26.9174 110.992 27.6136C109.651 28.3098 107.511 28.6218 105.992 28.6136C104.78 28.6307 104.114 28.0605 102.992 27.6136C101.87 27.1665 100.846 26.4535 99.9919 25.6136C99.1382 24.7735 98.4411 23.7128 97.9919 22.6136C97.5425 21.5144 96.965 20.7968 96.9919 19.6136C96.9919 14.2625 101.243 10.6136 105.992 10.6136C110.774 10.6136 113.225 14.6044 113.992 16.6136V17.6136L101.992 22.6136C102.371 23.4523 102.196 24.1275 102.992 24.6136C103.788 25.0997 105.053 24.648 105.992 24.6136C106.905 24.6187 108.196 25.0506 108.992 24.6136C109.788 24.1765 110.522 23.3782 110.992 22.6136ZM100.992 19.6136L108.992 15.6136C108.676 15.0033 108.6 14.9526 107.992 14.6136C107.384 14.2747 106.69 13.5687 105.992 13.6136C105.321 13.6433 104.599 14.3326 103.992 14.6136C103.385 14.8945 102.44 15.1252 101.992 15.6136C101.543 16.1019 101.212 16.9939 100.992 17.6136C100.772 18.2333 100.949 18.9591 100.992 19.6136Z" fill="#EA4335"/>
<path d="M14.9919 17.6136V13.6136H27.9919C28.1293 14.3752 27.999 14.8403 27.9919 15.6136C28.1014 18.9122 27.2784 22.1814 24.9919 24.6136C23.7064 25.9206 21.7141 26.937 19.9919 27.6136C18.2698 28.2901 16.8469 28.687 14.9919 28.6136C11.1694 28.6157 6.71404 27.2319 3.99194 24.6136C1.26983 21.9952 0.0443209 18.3429 -0.00805664 14.6136C0.0449162 10.8847 1.2699 7.23155 3.99194 4.61359C6.71407 1.99576 11.1698 0.611479 14.9919 0.613591C16.8098 0.585867 18.3051 0.951642 19.9919 1.61359C21.6788 2.27554 22.6998 3.36547 23.9919 4.61359L21.9919 7.61359C20.0964 5.83013 17.6249 4.57781 14.9919 4.61359C13.6305 4.61359 12.2481 5.10135 10.9919 5.61359C9.73588 6.12583 7.94843 6.66833 6.99194 7.61359C6.03546 8.55886 5.50087 9.38158 4.99194 10.6136C4.48303 11.8457 3.97456 13.2852 3.99194 14.6136C3.97456 15.9418 4.48303 17.3814 4.99194 18.6136C5.50087 19.8456 6.03546 20.6683 6.99194 21.6136C7.94843 22.5589 9.73588 23.1014 10.9919 23.6136C12.2481 24.126 13.6305 24.6136 14.9919 24.6136C16.3327 24.6682 17.744 25.0951 18.9919 24.6136C20.2399 24.1322 21.052 22.548 21.9919 21.6136C23.2215 20.312 23.8461 19.3779 23.9919 17.6136H14.9919Z" fill="#4285F4"/>
</svg>
