<svg width="36" height="36" viewBox="0 0 36 36" fill="none" xmlns="http://www.w3.org/2000/svg">
<path fill-rule="evenodd" clip-rule="evenodd" d="M12 18L16 22C15.814 21.9869 16.1226 22.1423 16 22C16.1859 22.0131 16.8591 22.1238 17 22C16.987 22.015 17.016 21.9885 17 22L24 15C23.9931 15.1869 24.1345 14.872 24 15C24.0068 14.8131 24.1247 14.1379 24 14C23.8752 13.8622 23.1843 14.0092 23 14C22.8156 13.9909 23.1374 13.8752 23 14L16 20L13 17C12.9398 16.9292 13.0822 17.0421 13 17C12.9177 16.9579 13.0919 16.007 13 16C12.908 15.9931 12.0875 15.9708 12 16C11.9124 16.0292 12.0698 16.9391 12 17C11.9301 17.0609 12.0415 16.9167 12 17C11.9584 17.0834 12.0068 16.9069 12 17C11.9711 16.9113 11.9931 17.0932 12 17C12.0288 17.0887 11.9398 17.9292 12 18ZM18 7.00003C20.4571 6.99969 23.1004 8.42081 25 10C26.8995 11.5792 27.5203 13.5582 28 16C28.4796 18.4419 28.158 20.8042 27 23C25.8419 25.1959 24.27 27.047 22 28C19.7299 28.953 17.3514 28.7226 15 28C12.6486 27.2775 10.3652 26.0701 8.99995 24C7.63468 21.93 6.75927 19.4778 6.99995 17C7.24064 14.5223 8.26258 11.7606 9.99995 10C10.9845 8.9987 12.7112 8.54105 14 8.00003C15.2887 7.45901 16.605 6.99764 18 7.00003ZM25 11C26.5057 12.5262 26.7915 14.8524 27 17C27.2084 19.1477 27.1834 21.2059 26 23C24.8165 24.7942 23.0381 26.3738 21 27C18.9618 27.6263 15.9676 27.826 14 27C12.0324 26.174 11.0038 23.9033 9.99995 22C8.99608 20.0968 8.58439 18.1166 8.99995 16C9.41551 13.8835 10.3536 12.369 12 11C13.6463 9.63101 15.8702 9.00006 18 9.00003C19.2093 8.99927 20.8827 8.53099 22 9.00003C23.1172 9.46907 24.1455 10.1329 25 11ZM19 2.99066e-05L23 3.00003C22.9112 2.96913 23.0765 3.05512 23 3.00003C22.9067 3.00054 23.0883 3.03027 23 3.00003H27C27.4848 3.00558 27.6062 2.71339 28 3.00003C28.3922 3.28959 28.8461 4.53365 29 5.00003L31 8.00003C31.0297 8.09054 30.946 8.92185 31 9.00003C30.9249 8.94371 31.0556 9.07602 31 9.00003L34 11C34.3899 11.2915 34.8501 11.5331 35 12C35.1498 12.4669 35.1462 13.532 35 14L34 18C33.9428 17.8183 33.9428 18.1817 34 18L35 22C35.1462 22.4681 35.1498 23.5331 35 24C34.8501 24.467 34.3899 24.7086 34 25L31 27C30.9249 27.0563 31.0556 26.9241 31 27C30.946 27.0782 31.0298 27.9095 31 28L29 31C28.8461 31.4664 28.3922 32.7104 28 33C27.6062 33.2866 27.4847 32.9945 27 33H23C22.9063 33.0043 23.0903 32.9745 23 33C22.9112 33.031 23.0764 32.9449 23 33L19 36C18.606 36.2861 18.4846 36 18 36C17.5153 36 17.3939 36.2861 17 36L13 33C12.9234 32.9449 13.0888 33.031 13 33C12.9097 32.9745 13.0936 33.0042 13 33H8.99995C8.51467 32.9969 8.39261 33.289 7.99995 33C7.6073 32.7111 7.15296 31.4667 6.99995 31L4.99995 28C4.97014 27.9095 5.05404 27.0782 4.99995 27C4.9444 26.924 5.07497 27.0563 4.99995 27L1.99995 25C1.60998 24.7086 1.14979 24.467 0.999952 24C0.850116 23.5331 0.853703 22.4681 0.999952 22L1.99995 18C2.05708 17.8183 2.05708 18.1817 1.99995 18L0.999952 14C0.853814 13.532 0.85012 12.4669 0.999952 12C1.14978 11.5332 1.61007 11.2914 1.99995 11L4.99995 9.00003C4.94435 9.076 5.07492 8.94369 4.99995 9.00003C5.05404 8.92189 4.97014 8.09057 4.99995 8.00003L6.99995 5.00003C7.15384 4.53378 7.60778 3.28951 7.99995 3.00003C8.39363 2.7134 8.51522 3.00559 8.99995 3.00003H13C12.9117 3.03029 13.0931 3.00057 13 3.00003C12.9234 3.05515 13.0888 2.96916 13 3.00003L17 2.99066e-05C17.3942 -0.285407 17.5154 2.99066e-05 18 2.99066e-05C18.4845 2.99066e-05 18.6057 -0.285407 19 2.99066e-05Z" fill="#E57D36"/>
</svg>
