<svg width="29" height="29" viewBox="0 0 29 29" fill="none" xmlns="http://www.w3.org/2000/svg">
<path d="M13.4159 25.3622H6.13589C5.5011 25.3612 4.89258 25.1086 4.44379 24.6596C3.995 24.2107 3.74258 23.6021 3.74189 22.9673V5.43228C3.74258 4.79748 3.995 4.18887 4.44379 3.73992C4.89258 3.29097 5.5011 3.03833 6.13589 3.0374H19.8069C20.4417 3.03833 21.0502 3.29097 21.499 3.73992C21.9478 4.18887 22.2002 4.79748 22.2009 5.43228V13.106C22.2009 13.3149 22.2839 13.5152 22.4315 13.6629C22.5792 13.8106 22.7795 13.8935 22.9884 13.8935C23.1972 13.8935 23.3976 13.8106 23.5452 13.6629C23.6929 13.5152 23.7759 13.3149 23.7759 13.106V5.43228C23.7747 4.37976 23.3561 3.37068 22.6119 2.62643C21.8676 1.88219 20.8585 1.46356 19.806 1.4624H6.13589C5.08337 1.46356 4.07429 1.88219 3.33004 2.62643C2.5858 3.37068 2.16717 4.37976 2.16602 5.43228V22.9673C2.16717 24.0198 2.5858 25.0289 3.33004 25.7731C4.07429 26.5174 5.08337 26.936 6.13589 26.9372H13.415C13.6239 26.9373 13.8242 26.8544 13.972 26.7068C14.1198 26.5592 14.2028 26.3589 14.203 26.1501C14.2031 25.9412 14.1202 25.7409 13.9726 25.5931C13.825 25.4453 13.6247 25.3623 13.4159 25.3622Z" fill="#232730"/>
<path d="M18.9503 6.24512H7.0031C6.79424 6.24512 6.59394 6.32809 6.44625 6.47577C6.29857 6.62346 6.2156 6.82376 6.2156 7.03262C6.2156 7.24148 6.29857 7.44178 6.44625 7.58946C6.59394 7.73715 6.79424 7.82012 7.0031 7.82012H18.9503C19.1592 7.82012 19.3595 7.73715 19.5072 7.58946C19.6549 7.44178 19.7378 7.24148 19.7378 7.03262C19.7378 6.82376 19.6549 6.62346 19.5072 6.47577C19.3595 6.32809 19.1592 6.24512 18.9503 6.24512ZM19.7378 11.8119C19.7378 11.603 19.6549 11.4027 19.5072 11.255C19.3595 11.1073 19.1592 11.0244 18.9503 11.0244H7.0031C6.79424 11.0244 6.59394 11.1073 6.44625 11.255C6.29857 11.4027 6.2156 11.603 6.2156 11.8119C6.2156 12.0207 6.29857 12.221 6.44625 12.3687C6.59394 12.5164 6.79424 12.5994 7.0031 12.5994H18.9503C19.1592 12.5994 19.3595 12.5164 19.5072 12.3687C19.6549 12.221 19.7378 12.0207 19.7378 11.8119ZM14.0783 16.5841C14.0783 16.3753 13.9954 16.175 13.8477 16.0273C13.7 15.8796 13.4997 15.7966 13.2908 15.7966H6.99697C6.78811 15.7966 6.58781 15.8796 6.44013 16.0273C6.29244 16.175 6.20947 16.3753 6.20947 16.5841C6.20947 16.793 6.29244 16.9933 6.44013 17.141C6.58781 17.2886 6.78811 17.3716 6.99697 17.3716H13.29C13.3935 17.3717 13.496 17.3514 13.5916 17.3119C13.6872 17.2724 13.7742 17.2144 13.8474 17.1413C13.9206 17.0681 13.9787 16.9813 14.0183 16.8857C14.058 16.7901 14.0783 16.6876 14.0783 16.5841ZM6.99697 20.575C6.78811 20.575 6.58781 20.658 6.44013 20.8056C6.29244 20.9533 6.20947 21.1536 6.20947 21.3625C6.20947 21.5713 6.29244 21.7717 6.44013 21.9193C6.58781 22.067 6.78811 22.15 6.99697 22.15H11.9101C12.119 22.15 12.3193 22.067 12.4669 21.9193C12.6146 21.7717 12.6976 21.5713 12.6976 21.3625C12.6976 21.1536 12.6146 20.9533 12.4669 20.8056C12.3193 20.658 12.119 20.575 11.9101 20.575H6.99697ZM25.8418 20.2976L24.9625 20.0622C24.8606 19.6812 24.7091 19.3153 24.5118 18.9737L24.9668 18.1854C24.9972 18.1327 25.0094 18.0715 25.0015 18.0113C24.9936 17.951 24.966 17.895 24.9231 17.852L23.9501 16.879C23.9071 16.8361 23.8511 16.8085 23.7908 16.8006C23.7306 16.7927 23.6694 16.8049 23.6167 16.8352L22.8283 17.2902C22.4868 17.093 22.1209 16.9415 21.7398 16.8396L21.5036 15.9602C21.4878 15.9015 21.4531 15.8496 21.4049 15.8126C21.3566 15.7756 21.2975 15.7555 21.2367 15.7555H19.8603C19.7995 15.7555 19.7404 15.7756 19.6922 15.8126C19.6439 15.8496 19.6093 15.9015 19.5935 15.9602L19.3572 16.8396C18.9762 16.9415 18.6103 17.093 18.2687 17.2902L17.4803 16.8352C17.4277 16.8049 17.3665 16.7927 17.3062 16.8006C17.246 16.8085 17.19 16.8361 17.147 16.879L16.174 17.852C16.1311 17.895 16.1035 17.951 16.0956 18.0113C16.0877 18.0715 16.0999 18.1327 16.1302 18.1854L16.5852 18.9737C16.3881 19.3154 16.2363 19.6813 16.1337 20.0622L15.2543 20.2976C15.1956 20.3134 15.1437 20.3481 15.1067 20.3963C15.0697 20.4446 15.0496 20.5037 15.0496 20.5645V21.9409C15.0496 22.066 15.1336 22.1754 15.2543 22.2077L16.1337 22.4431C16.2361 22.8255 16.3866 23.1895 16.5843 23.5316L16.1293 24.32C16.099 24.3726 16.0868 24.4338 16.0947 24.4941C16.1026 24.5544 16.1302 24.6103 16.1731 24.6534L17.1461 25.6264C17.1891 25.6694 17.245 25.697 17.3053 25.705C17.3656 25.7129 17.4269 25.7006 17.4795 25.6701L18.2678 25.2151C18.6108 25.4129 18.974 25.5634 19.3563 25.6657L19.5917 26.5451C19.6267 26.6659 19.7361 26.7499 19.8603 26.7499H21.2367C21.2975 26.7498 21.3566 26.7298 21.4049 26.6927C21.4531 26.6557 21.4878 26.6038 21.5036 26.5451L21.739 25.6657C22.12 25.5639 22.4859 25.4123 22.8275 25.2151L23.6158 25.6701C23.7243 25.7322 23.8608 25.7147 23.9492 25.6264L24.9222 24.6534C24.9653 24.6104 24.9929 24.5544 25.0008 24.4941C25.0087 24.4338 24.9965 24.3726 24.966 24.32L24.511 23.5316C24.7087 23.1886 24.8592 22.8255 24.9616 22.4431L25.841 22.2077C25.8997 22.192 25.9516 22.1573 25.9886 22.109C26.0256 22.0608 26.0457 22.0017 26.0457 21.9409V20.5645C26.0457 20.5038 26.0258 20.4448 25.9889 20.3966C25.9521 20.3483 25.9004 20.3136 25.8418 20.2976ZM23.5625 21.2522C23.5625 22.0572 23.2492 22.8141 22.6787 23.3837C21.5403 24.523 19.5558 24.5221 18.4175 23.3837C17.8478 22.815 17.5337 22.0572 17.5337 21.2522C17.5337 20.4472 17.847 19.6904 18.4175 19.1207C18.6968 18.84 19.0289 18.6174 19.3948 18.4658C19.7607 18.3143 20.153 18.2368 20.549 18.2379C21.354 18.2379 22.11 18.5511 22.6805 19.1207C22.9609 19.4002 23.1833 19.7324 23.3346 20.0983C23.486 20.4641 23.5635 20.8563 23.5625 21.2522Z" fill="#232730"/>
</svg>
