<svg width="32" height="34" viewBox="0 0 32 34" fill="none" xmlns="http://www.w3.org/2000/svg">
<path d="M0 25C0.00739723 25.89 0.454103 26.2959 1 27C1.5459 27.7041 2.13819 28.7689 3 29C3.39773 31.8787 6 34 9 34H16C16.625 34 17 33.6233 17 33C17 32.3767 16.625 32 16 32H9C7.23864 32 5.35227 30.6433 5 29C6.64773 28.4787 8 26.8133 8 25V18C8 15.756 6.25 14 4 14C3.375 14 2.53409 14.7507 2 15C2.57955 7.98467 8.81818 2 16 2C19.6591 2 23.3977 3.416 26 6C28.3182 8.32333 29.7386 11.77 30 15C29.4659 14.7393 28.625 14 28 14C25.75 14 24 15.756 24 18V25C24 27.244 25.75 29 28 29C30.2386 29 31.9886 27.2327 32 25V16C32 11.75 30.0227 8.026 27 5C23.9659 1.98533 20.2614 0 16 0C7.18182 0 0 7.194 0 16V25Z" fill="#E57D36"/>
</svg>
