<svg width="29" height="28" viewBox="0 0 29 28" fill="none" xmlns="http://www.w3.org/2000/svg">
<path d="M24.6122 26.4446C24.306 26.4445 24.003 26.3838 23.7204 26.266C23.4379 26.1482 23.1814 25.9757 22.9659 25.7584L20.235 23.0353C20.0931 22.8888 20.0144 22.6923 20.0158 22.4883C20.0173 22.2843 20.0989 22.0891 20.2429 21.9446C20.387 21.8001 20.582 21.718 20.786 21.716C20.99 21.7139 21.1866 21.7921 21.3336 21.9336L24.0644 24.6567C24.1362 24.7286 24.2214 24.7856 24.3153 24.8245C24.4091 24.8635 24.5096 24.8836 24.6112 24.8836C24.7128 24.8837 24.8134 24.8638 24.9073 24.825C25.0011 24.7862 25.0865 24.7292 25.1583 24.6575C25.2302 24.5857 25.2872 24.5005 25.3262 24.4066C25.3651 24.3128 25.3852 24.2123 25.3853 24.1107C25.3853 24.0091 25.3654 23.9085 25.3266 23.8146C25.2878 23.7208 25.2309 23.6355 25.1591 23.5636L22.436 20.8327C22.3618 20.7609 22.3026 20.675 22.2619 20.5801C22.2212 20.4851 22.1998 20.383 22.1989 20.2797C22.1981 20.1764 22.2179 20.074 22.2571 19.9784C22.2963 19.8828 22.3541 19.796 22.4272 19.723C22.5003 19.65 22.5872 19.5923 22.6828 19.5532C22.7785 19.5141 22.8809 19.4945 22.9842 19.4955C23.0875 19.4965 23.1896 19.518 23.2845 19.5588C23.3794 19.5997 23.4652 19.659 23.5369 19.7334L26.26 22.4642C26.5849 22.7907 26.8059 23.206 26.8952 23.6578C26.9845 24.1096 26.9382 24.5778 26.762 25.0033C26.5858 25.4289 26.2877 25.7928 25.9052 26.0492C25.5226 26.3057 25.0727 26.4433 24.6122 26.4446ZM9.06808 17.1239H5.956C5.74966 17.1239 5.55176 17.0419 5.40586 16.896C5.25995 16.7501 5.17798 16.5522 5.17798 16.3459C5.17798 16.1395 5.25995 15.9416 5.40586 15.7957C5.55176 15.6498 5.74966 15.5679 5.956 15.5679H9.06808C9.27443 15.5679 9.47232 15.6498 9.61823 15.7957C9.76413 15.9416 9.8461 16.1395 9.8461 16.3459C9.8461 16.5522 9.76413 16.7501 9.61823 16.896C9.47232 17.0419 9.27443 17.1239 9.06808 17.1239ZM7.51204 20.236H5.956C5.74966 20.236 5.55176 20.154 5.40586 20.0081C5.25995 19.8622 5.17798 19.6643 5.17798 19.458C5.17798 19.2516 5.25995 19.0537 5.40586 18.9078C5.55176 18.7619 5.74966 18.6799 5.956 18.6799H7.51204C7.71838 18.6799 7.91628 18.7619 8.06218 18.9078C8.20809 19.0537 8.29006 19.2516 8.29006 19.458C8.29006 19.6643 8.20809 19.8622 8.06218 20.0081C7.91628 20.154 7.71838 20.236 7.51204 20.236ZM15.2922 9.34369C15.1386 9.34372 14.9883 9.29824 14.8604 9.21298L12.9582 7.9448L11.0551 9.21298C10.938 9.29094 10.8019 9.33567 10.6613 9.34239C10.5207 9.34912 10.381 9.31759 10.2569 9.25116C10.1328 9.18474 10.0291 9.08591 9.95676 8.96519C9.88442 8.84447 9.84618 8.7064 9.8461 8.56566V2.3415C9.8461 2.13515 9.92807 1.93726 10.074 1.79135C10.2199 1.64545 10.4178 1.56348 10.6241 1.56348C10.8305 1.56348 11.0284 1.64545 11.1743 1.79135C11.3202 1.93726 11.4021 2.13515 11.4021 2.3415V7.11232L12.5264 6.36231C12.6542 6.27681 12.8044 6.23117 12.9582 6.23117C13.1119 6.23117 13.2622 6.27681 13.39 6.36231L14.5142 7.11232V2.3415C14.5142 2.13515 14.5962 1.93726 14.7421 1.79135C14.888 1.64545 15.0859 1.56348 15.2922 1.56348C15.4986 1.56348 15.6965 1.64545 15.8424 1.79135C15.9883 1.93726 16.0703 2.13515 16.0703 2.3415V8.56566C16.0703 8.77201 15.9883 8.9699 15.8424 9.11581C15.6965 9.26172 15.4986 9.34369 15.2922 9.34369Z" fill="#232730"/>
<path d="M14.504 23.3403H3.61171C3.19921 23.3396 2.80378 23.1755 2.5121 22.8838C2.22042 22.5921 2.05628 22.1967 2.05566 21.7842V3.11171C2.05628 2.69921 2.22042 2.30378 2.5121 2.0121C2.80378 1.72042 3.19921 1.55628 3.61171 1.55566L22.2842 1.55566C22.6967 1.55628 23.0921 1.72042 23.3838 2.0121C23.6755 2.30378 23.8396 2.69921 23.8403 3.11171V14.004C23.8403 14.2103 23.7583 14.4082 23.6124 14.5541C23.4665 14.7001 23.2686 14.782 23.0622 14.782C22.8559 14.782 22.658 14.7001 22.5121 14.5541C22.3662 14.4082 22.2842 14.2103 22.2842 14.004V3.11171H3.61171V21.7842H14.504C14.7103 21.7842 14.9082 21.8662 15.0541 22.0121C15.2001 22.158 15.282 22.3559 15.282 22.5622C15.282 22.7686 15.2001 22.9665 15.0541 23.1124C14.9082 23.2583 14.7103 23.3403 14.504 23.3403Z" fill="#232730"/>
<path d="M16.26 19.2683C16.1062 19.2683 15.9558 19.2226 15.8279 19.1371C15.7 19.0516 15.6003 18.9301 15.5414 18.788C15.4825 18.6458 15.4671 18.4894 15.4971 18.3385C15.5271 18.1876 15.6012 18.049 15.71 17.9402L18.4408 15.2086C18.5131 15.1363 18.5988 15.0789 18.6932 15.0398C18.7876 15.0007 18.8888 14.9805 18.991 14.9805C19.0932 14.9804 19.1944 15.0005 19.2888 15.0396C19.3832 15.0787 19.4691 15.136 19.5413 15.2082C19.6136 15.2804 19.671 15.3662 19.7101 15.4606C19.7493 15.555 19.7694 15.6562 19.7695 15.7584C19.7695 15.8606 19.7494 15.9618 19.7103 16.0562C19.6713 16.1506 19.614 16.2364 19.5417 16.3087L16.8101 19.0396C16.738 19.1121 16.6523 19.1696 16.5579 19.2088C16.4635 19.2481 16.3623 19.2683 16.26 19.2683Z" fill="#232730"/>
<path d="M18.9915 19.2683C18.8894 19.2685 18.7882 19.2484 18.6938 19.2092C18.5994 19.1701 18.5136 19.1127 18.4415 19.0404L15.7099 16.3088C15.5681 16.162 15.4897 15.9655 15.4915 15.7615C15.4933 15.5575 15.5751 15.3624 15.7193 15.2181C15.8636 15.0739 16.0587 14.992 16.2627 14.9903C16.4667 14.9885 16.6632 15.0669 16.81 15.2086L19.5408 17.9395C19.6498 18.0482 19.7241 18.1868 19.7543 18.3378C19.7845 18.4887 19.7692 18.6453 19.7104 18.7875C19.6516 18.9298 19.5519 19.0514 19.4239 19.137C19.296 19.2226 19.1455 19.2683 18.9915 19.2683Z" fill="#232730"/>
<path d="M17.6262 24.126C16.2413 24.126 14.8875 23.7153 13.736 22.9459C12.5845 22.1765 11.687 21.0829 11.157 19.8034C10.6271 18.5239 10.4884 17.116 10.7586 15.7577C11.0288 14.3994 11.6956 13.1518 12.6749 12.1725C13.6542 11.1932 14.9019 10.5263 16.2602 10.2561C17.6184 9.98595 19.0264 10.1246 20.3058 10.6546C21.5853 11.1846 22.6789 12.0821 23.4483 13.2336C24.2177 14.3851 24.6284 15.7389 24.6284 17.1238C24.6263 18.9802 23.888 20.7601 22.5752 22.0728C21.2625 23.3855 19.4827 24.1239 17.6262 24.126ZM17.6262 11.6776C16.5491 11.6776 15.4961 11.997 14.6005 12.5955C13.7049 13.1939 13.0068 14.0445 12.5946 15.0396C12.1824 16.0348 12.0746 17.1298 12.2847 18.1863C12.4949 19.2427 13.0136 20.2131 13.7752 20.9748C14.5369 21.7364 15.5073 22.2551 16.5637 22.4653C17.6202 22.6754 18.7152 22.5676 19.7104 22.1554C20.7055 21.7432 21.5561 21.0451 22.1545 20.1495C22.753 19.2539 23.0724 18.2009 23.0724 17.1238C23.0707 15.6799 22.4964 14.2956 21.4754 13.2746C20.4544 12.2536 19.0701 11.6793 17.6262 11.6776Z" fill="#232730"/>
</svg>
