<svg width="34" height="38" viewBox="0 0 34 38" fill="none" xmlns="http://www.w3.org/2000/svg">
<path fill-rule="evenodd" clip-rule="evenodd" d="M24.0144 22.966C24.0497 23.0746 23.9129 23.9143 24.0144 23.966C24.1158 24.0176 24.9063 24.0015 25.0144 23.966C25.1225 23.9305 24.9629 23.0679 25.0144 22.966C25.0497 23.0746 25.0658 22.8641 25.0144 22.966C24.538 21.5022 23.1678 21.0631 22.0144 20.966V18.966C22.0144 18.8517 22.0948 19.0468 22.0144 18.966C21.934 18.8852 22.1281 18.966 22.0144 18.966C21.9006 18.966 21.0948 18.8852 21.0144 18.966C20.934 19.0468 21.0144 18.8517 21.0144 18.966V20.966C19.6256 21.202 19.0302 21.6279 19.0144 22.966C18.9894 25.162 19.8337 26.6155 21.0144 26.966V30.966C20.2497 30.7421 19.5211 29.9803 19.0144 28.966C18.9634 28.8638 19.1223 29.002 19.0144 28.966C18.9065 28.93 19.1161 28.9148 19.0144 28.966C18.9127 29.0172 19.0502 28.8576 19.0144 28.966C18.9785 29.0744 18.9634 29.8638 19.0144 29.966C19.6934 31.324 19.9638 31.7333 21.0144 31.966V32.966C21.0144 33.0802 20.934 33.8852 21.0144 33.966C21.0948 34.0468 21.9006 33.966 22.0144 33.966C21.934 34.0468 22.1281 33.966 22.0144 33.966C22.0948 33.8852 22.0144 33.0802 22.0144 32.966V31.966C22.2295 31.9621 22.8044 32.0134 23.0144 31.966C24.3481 31.6575 24.9958 30.3965 25.0144 28.966C25.0457 26.6119 23.2911 26.2871 22.0144 25.966V21.966C22.8444 22.0598 23.6742 21.9205 24.0144 22.966ZM20.0144 22.966C20.0265 21.9198 20.2734 22.1377 21.0144 21.966V25.966C20.1267 25.6645 19.9972 24.447 20.0144 22.966ZM24.0144 28.966C24.0004 29.9952 23.9567 30.7475 23.0144 30.966C22.8674 30.999 22.165 30.9614 22.0144 30.966V26.966C23.1853 27.2661 24.0353 27.3858 24.0144 28.966ZM4.01438 11.966C4.01499 11.3388 4.57298 11.4096 5.01438 10.966C5.45579 10.5224 5.39 9.96687 6.01438 9.96598H20.0144C20.3258 9.96257 20.7256 9.8486 21.0144 9.96598C21.3031 10.0834 21.7929 10.7459 22.0144 10.966C22.2358 11.186 22.8944 10.6772 23.0144 10.966C23.1344 11.2547 23.0144 11.6531 23.0144 11.966C23.0144 12.2789 23.1344 12.6772 23.0144 12.966C22.8944 13.2547 22.2358 13.7459 22.0144 13.966C21.7929 14.186 21.3031 13.8486 21.0144 13.966C20.7256 14.0834 20.3258 14.9694 20.0144 14.966H6.01438C5.39005 14.9651 5.45578 14.4095 5.01438 13.966C4.57298 13.5224 4.01505 12.5931 4.01438 11.966ZM3.01438 19.966C2.38977 19.966 2.45605 19.4097 2.01438 18.966C1.57271 18.5223 1.01438 18.5934 1.01438 17.966C1.01438 17.3385 1.57271 16.4097 2.01438 15.966C2.45605 15.5223 2.38977 14.966 3.01438 14.966H17.0144C17.3871 14.9679 17.6829 15.7948 18.0144 15.966C18.3458 16.1372 18.796 15.6626 19.0144 15.966C16.7818 16.5468 15.4082 18.1203 14.0144 19.966H3.01438ZM4.01438 22.966C4.01501 22.3388 4.57296 22.4095 5.01438 21.966C5.4558 21.5225 5.39007 20.9667 6.01438 20.966H13.0144C12.1424 22.3974 12.1121 24.2907 12.0144 25.966H6.01438C5.39005 25.9651 5.45578 25.4095 5.01438 24.966C4.57298 24.5224 4.01505 23.5931 4.01438 22.966ZM3.01438 30.966C2.70405 30.9677 2.30158 31.0841 2.01438 30.966C1.72718 30.8479 2.23442 31.1858 2.01438 30.966C1.79434 30.7461 1.13353 30.2538 1.01438 29.966C0.89523 29.6781 1.01438 29.2777 1.01438 28.966C1.01438 28.6542 0.89523 28.2538 1.01438 27.966C1.13353 27.6781 1.79434 27.1858 2.01438 26.966C1.72718 27.0841 2.23442 26.7461 2.01438 26.966C2.30158 26.8479 2.70405 26.9643 3.01438 26.966H12.0144C12.0521 28.6242 12.2107 29.517 13.0144 30.966H3.01438ZM6.01438 36.966C5.39203 36.9626 5.45326 36.4092 5.01438 35.966C4.57551 35.5227 4.01438 35.5912 4.01438 34.966C4.01438 34.3408 4.57551 33.4092 5.01438 32.966C5.45326 32.5227 5.39203 31.9694 6.01438 31.966H13.0144C13.93 33.2972 15.5976 34.1962 17.0144 34.966C18.4311 35.7358 20.4042 36.9248 22.0144 36.966C21.6655 37.1628 20.4145 36.9651 20.0144 36.966H6.01438ZM22.0144 35.966C16.847 35.966 12.0144 31.1562 12.0144 25.966C12.0144 20.7758 16.847 16.966 22.0144 16.966C27.1818 16.966 31.0144 20.7752 31.0144 25.966C31.0144 31.1568 27.1811 35.966 22.0144 35.966ZM33.0144 7.96598C33.02 8.04489 33.0505 7.89566 33.0144 7.96598C33.0087 7.88706 33.0601 8.03039 33.0144 7.96598L28.0144 0.965978C27.9748 0.90997 28.0751 0.997494 28.0144 0.965978C27.9536 0.934462 28.0828 0.965978 28.0144 0.965978C27.946 0.965978 28.0751 0.934462 28.0144 0.965978C27.9536 0.997494 27.054 0.90997 27.0144 0.965978L23.0144 7.96598C22.9687 8.03048 22.02 7.887 22.0144 7.96598C21.9783 7.8956 22.0088 8.04495 22.0144 7.96598C22.0505 8.03635 22.9471 8.92476 23.0144 8.96598C22.9356 8.96596 23.0817 9.0072 23.0144 8.96598H25.0144V14.966C25.0144 15.0802 25.934 15.8852 26.0144 15.966C25.9007 15.9659 26.0948 16.0468 26.0144 15.966H30.0144C29.934 16.0468 30.1281 15.9659 30.0144 15.966C30.0948 15.8852 30.0143 15.0802 30.0144 14.966V8.96598H33.0144C32.9472 9.00728 33.0932 8.96595 33.0144 8.96598C33.0816 8.92468 32.9785 8.03643 33.0144 7.96598Z" fill="#E57D36"/>
</svg>
