<svg width="29" height="28" viewBox="0 0 29 28" fill="none" xmlns="http://www.w3.org/2000/svg">
<path d="M14.5559 11.6076C16.8983 11.6076 18.804 9.70189 18.804 7.35946C18.804 5.01703 16.8983 3.11133 14.5559 3.11133C12.2135 3.11133 10.3078 5.01703 10.3078 7.35946C10.3078 9.70189 12.2135 11.6076 14.5559 11.6076ZM14.5559 4.5762C16.0906 4.5762 17.3392 5.82476 17.3392 7.35946C17.3392 8.89416 16.0906 10.1427 14.5559 10.1427C13.0212 10.1427 11.7727 8.89416 11.7727 7.35946C11.7727 5.82476 13.0212 4.5762 14.5559 4.5762ZM23.1498 11.6076C24.6307 11.6076 25.8354 10.4028 25.8354 8.92199C25.8354 7.44115 24.6307 6.23639 23.1498 6.23639C21.669 6.23639 20.4642 7.44115 20.4642 8.92199C20.4642 10.4028 21.669 11.6076 23.1498 11.6076ZM23.1498 7.70126C23.8229 7.70126 24.3706 8.24888 24.3706 8.92199C24.3706 9.5951 23.8229 10.1427 23.1498 10.1427C22.4767 10.1427 21.9291 9.5951 21.9291 8.92199C21.9291 8.24888 22.4767 7.70126 23.1498 7.70126ZM23.7407 13.2678H22.6078C21.2729 13.2678 20.1205 14.0565 19.5954 15.1893C18.5143 14.0091 16.9614 13.2678 15.2385 13.2678H13.8734C12.1505 13.2678 10.5976 14.0091 9.51646 15.1893C8.9913 14.0565 7.83893 13.2678 6.50399 13.2678H5.37116C3.543 13.2678 2.05566 14.7461 2.05566 16.5633V21.8959C2.05566 22.6848 2.69992 23.3266 3.49183 23.3266H7.97077C8.04587 24.2006 8.78085 24.8891 9.67408 24.8891H19.4378C20.331 24.8891 21.066 24.2006 21.1411 23.3266H25.5689C26.389 23.3266 27.0562 22.662 27.0562 21.8451V16.5633C27.0562 14.7461 25.5688 13.2678 23.7407 13.2678ZM3.52054 16.5633C3.52054 15.5539 4.35073 14.7327 5.37116 14.7327H6.50399C7.52443 14.7327 8.35462 15.5539 8.35462 16.5633V17.0648C7.86208 18.3472 7.96398 19.1158 7.96398 21.8617H3.52054V16.5633ZM19.683 23.1791C19.6829 23.2441 19.6571 23.3064 19.6111 23.3524C19.5651 23.3983 19.5028 23.4242 19.4378 23.4242H9.67403C9.60903 23.4242 9.54671 23.3983 9.50075 23.3523C9.45479 23.3064 9.42894 23.2441 9.42886 23.1791V19.1772C9.42886 16.7264 11.4226 14.7327 13.8733 14.7327H15.2384C17.6892 14.7327 19.683 16.7264 19.683 19.1771V23.1791ZM25.5913 21.8451C25.5913 21.8703 25.8643 21.8617 21.1478 21.8617C21.1478 19.0955 21.249 18.3451 20.7572 17.0648V16.5633C20.7572 15.5539 21.5874 14.7327 22.6078 14.7327H23.7407C24.7611 14.7327 25.5913 15.5539 25.5913 16.5633V21.8451ZM5.96199 11.6076C7.44283 11.6076 8.64759 10.4028 8.64759 8.92199C8.64759 7.44115 7.44283 6.23639 5.96199 6.23639C4.48115 6.23639 3.27639 7.44115 3.27639 8.92199C3.27639 10.4028 4.48115 11.6076 5.96199 11.6076ZM5.96199 7.70126C6.6351 7.70126 7.18272 8.24888 7.18272 8.92199C7.18272 9.5951 6.6351 10.1427 5.96199 10.1427C5.28888 10.1427 4.74126 9.5951 4.74126 8.92199C4.74126 8.24888 5.28888 7.70126 5.96199 7.70126Z" fill="#232730"/>
</svg>
