<svg width="29" height="28" viewBox="0 0 29 28" fill="none" xmlns="http://www.w3.org/2000/svg">
<g clip-path="url(#clip0_355_6752)">
<path d="M24.3984 17.6078H22.7578C22.3048 17.6078 21.9375 17.9751 21.9375 18.4282C21.9375 18.8812 22.3048 19.2485 22.7578 19.2485H24.3984C24.8515 19.2485 25.2188 18.8812 25.2188 18.4282C25.2188 17.9751 24.8515 17.6078 24.3984 17.6078ZM24.3984 20.8891H17.8359C17.3829 20.8891 17.0156 21.2564 17.0156 21.7094C17.0156 22.1624 17.3829 22.5297 17.8359 22.5297H24.3984C24.8515 22.5297 25.2188 22.1624 25.2188 21.7094C25.2188 21.2564 24.8515 20.8891 24.3984 20.8891ZM17.7266 5.46875H14.4453C13.9923 5.46875 13.625 5.83603 13.625 6.28906V7.65625H11.9844V4.10156C11.9844 3.64853 11.6171 3.28125 11.1641 3.28125H7.88281C7.42978 3.28125 7.0625 3.64853 7.0625 4.10156V9.84375H4.60156C4.14853 9.84375 3.78125 10.211 3.78125 10.6641V13.9453C3.78125 14.3983 4.14853 14.7656 4.60156 14.7656H17.7266C18.1796 14.7656 18.5469 14.3983 18.5469 13.9453V6.28906C18.5469 5.83603 18.1796 5.46875 17.7266 5.46875ZM7.0625 13.125H5.42188V11.4844H7.0625V13.125ZM10.3438 13.125H8.70312V4.92188H10.3438V13.125ZM13.625 13.125H11.9844V9.29688H13.625V13.125ZM16.9062 13.125H15.2656V7.10938H16.9062V13.125Z" fill="#232730"/>
<path d="M26.0391 14.3266H21.8281V3.00781C21.8281 1.34663 20.4815 0 18.8203 0H3.50781C1.84662 0 0.5 1.34663 0.5 3.00781V20.5078C0.5 21.2086 1.32206 21.5867 1.85417 21.1306L5.4519 18.0469H13.7344V23.35C13.7344 24.7092 14.8362 25.811 16.1953 25.811H24.6575L27.1672 27.8187C27.7043 28.2484 28.4999 27.866 28.4999 27.1782V16.7875C28.5 15.4284 27.3982 14.3266 26.0391 14.3266ZM5.14844 16.4062C4.95262 16.4063 4.76326 16.4763 4.61458 16.6037L2.14062 18.7243V3.00781C2.14062 2.25274 2.75274 1.64062 3.50781 1.64062H18.8203C19.5754 1.64062 20.1875 2.25274 20.1875 3.00781V15.0391C20.1875 15.7941 19.5754 16.4062 18.8203 16.4062H5.14844ZM26.8594 25.4714L25.4577 24.3501C25.3123 24.2337 25.1316 24.1703 24.9453 24.1703H16.1953C15.7423 24.1703 15.375 23.8031 15.375 23.35V18.0469H18.8203C20.1575 18.0469 21.2903 17.174 21.6815 15.9672H26.0391C26.4921 15.9672 26.8594 16.3345 26.8594 16.7875V25.4714Z" fill="#232730"/>
</g>
<defs>
<clipPath id="clip0_355_6752">
<rect width="28" height="28" fill="white" transform="translate(0.5)"/>
</clipPath>
</defs>
</svg>
