<svg width="28" height="29" viewBox="0 0 28 29" fill="none" xmlns="http://www.w3.org/2000/svg">
<g clip-path="url(#clip0_355_6758)">
<path d="M27.7598 19.7167L25.591 17.5479V10.1087L27.0069 9.59822C27.1656 9.54107 27.3029 9.43637 27.3999 9.29839C27.497 9.16041 27.5491 8.99586 27.5492 8.82718C27.5493 8.65849 27.4974 8.49387 27.4006 8.35575C27.3037 8.21763 27.1667 8.11274 27.008 8.05536L14.0538 3.36395C13.8733 3.2986 13.6757 3.2986 13.4952 3.36395L0.541037 8.05536C0.383074 8.11262 0.246502 8.217 0.149784 8.35439C0.0530673 8.49178 0.000870036 8.65556 0.000249734 8.82358C-0.000370568 8.99159 0.050616 9.15575 0.146316 9.29385C0.242016 9.43196 0.377814 9.53734 0.53535 9.59576L5.31617 11.3668V16.7724C5.31617 16.9402 5.36757 17.104 5.46353 17.2415C5.5163 17.3172 6.01615 17.9998 7.29594 18.644C8.91273 19.4579 11.0333 19.8706 13.5987 19.8706C16.1622 19.8706 18.2935 19.4587 19.9333 18.6464C21.2258 18.0063 21.7422 17.3308 21.7969 17.2559C21.8993 17.1155 21.9545 16.9463 21.9544 16.7725V11.4197L23.9506 10.7V17.5479L21.7818 19.7167C21.628 19.8705 21.5416 20.0791 21.5416 20.2966C21.5416 20.5142 21.628 20.7228 21.7818 20.8766L23.9506 23.0454V24.865C23.9506 25.318 24.3179 25.6853 24.7709 25.6853C25.2238 25.6853 25.5911 25.318 25.5911 24.865V23.0454L27.7598 20.8766C28.0802 20.5564 28.0802 20.037 27.7598 19.7167ZM13.7745 5.00754L24.3151 8.82485L13.6026 12.687L3.20505 8.8353L13.7745 5.00754ZM20.3139 16.4455C17.5099 18.9687 9.1775 18.6794 6.95663 16.4537V11.9745L13.3137 14.3294C13.4146 14.3454 13.5099 14.4324 13.8768 14.332L20.314 12.0112L20.3139 16.4455ZM24.7708 21.5457L23.5217 20.2966L24.7708 19.0475L26.0199 20.2966L24.7708 21.5457Z" fill="#232730"/>
</g>
<defs>
<clipPath id="clip0_355_6758">
<rect width="28" height="28" fill="white" transform="translate(0 0.5)"/>
</clipPath>
</defs>
</svg>
