<svg width="34" height="34" viewBox="0 0 34 34" fill="none" xmlns="http://www.w3.org/2000/svg">
<path d="M18.0001 0C14.7662 0 10.6889 1.20339 8.00006 3C5.31124 4.79661 3.23758 7.01235 2.00006 10C0.762531 12.9877 0.369172 16.8283 1.00006 20C1.63094 23.1717 3.71341 25.7133 6.00006 28C8.28671 30.2867 10.8284 32.3691 14.0001 33C17.1717 33.6309 21.0124 33.2375 24.0001 32C26.9877 30.7625 29.2034 28.6888 31.0001 26C32.7967 23.3112 34.0001 20.2338 34.0001 17C33.9949 12.6652 32.0653 8.0652 29.0001 5C25.9349 1.9348 22.3349 0.00511393 18.0001 0ZM23.0001 22C22.7213 22.2787 22.3942 22 22.0001 22C21.6059 22 21.2788 22.2787 21.0001 22L16.0001 18C15.7213 17.7213 16.0001 17.3942 16.0001 17V8C16.0001 7.60578 15.7213 6.27876 16.0001 6C16.2788 5.72124 17.6058 6 18.0001 6C18.3943 6 18.7213 5.72124 19.0001 6C19.2788 6.27876 19.0001 7.60578 19.0001 8V16L23.0001 20C23.2787 20.2787 23.0001 20.6059 23.0001 21C23.0001 21.3941 23.2787 21.7213 23.0001 22Z" fill="#E57D36"/>
</svg>
