<svg width="28" height="29" viewBox="0 0 28 29" fill="none" xmlns="http://www.w3.org/2000/svg">
<path d="M25.9818 26.0277H25.6901V8.236C25.6901 4.715 23.6706 2.69434 20.1484 2.69434H8.48177C4.9596 2.69434 2.9401 4.715 2.9401 8.236V26.0277H2.64844C2.41637 26.0277 2.19381 26.1199 2.02972 26.284C1.86562 26.448 1.77344 26.6706 1.77344 26.9027C1.77344 27.1347 1.86562 27.3573 2.02972 27.5214C2.19381 27.6855 2.41637 27.7777 2.64844 27.7777H25.9818C26.2138 27.7777 26.4364 27.6855 26.6005 27.5214C26.7646 27.3573 26.8568 27.1347 26.8568 26.9027C26.8568 26.6706 26.7646 26.448 26.6005 26.284C26.4364 26.1199 26.2138 26.0277 25.9818 26.0277ZM16.9401 26.0277H11.6901V19.828C11.6907 19.7706 11.7138 19.7158 11.7543 19.6752C11.7949 19.6347 11.8497 19.6116 11.9071 19.611H16.7231C16.7805 19.6116 16.8353 19.6347 16.8759 19.6752C16.9164 19.7158 16.9395 19.7706 16.9401 19.828V26.0277ZM23.9401 26.0277H18.6901V19.828C18.6895 19.3065 18.4821 18.8066 18.1133 18.4378C17.7446 18.0691 17.2446 17.8616 16.7231 17.861H11.9071C11.3856 17.8616 10.8857 18.0691 10.5169 18.4378C10.1482 18.8066 9.94072 19.3065 9.94011 19.828V26.0277H4.6901V8.236C4.6901 5.6495 5.89527 4.44434 8.48177 4.44434H20.1484C22.7349 4.44434 23.9401 5.6495 23.9401 8.236V26.0277ZM18.1068 11.1527C18.1068 11.3847 18.0146 11.6073 17.8505 11.7714C17.6864 11.9355 17.4638 12.0277 17.2318 12.0277H15.1901V14.0693C15.1901 14.3014 15.0979 14.524 14.9338 14.6881C14.7697 14.8521 14.5472 14.9443 14.3151 14.9443C14.083 14.9443 13.8605 14.8521 13.6964 14.6881C13.5323 14.524 13.4401 14.3014 13.4401 14.0693V12.0277H11.3984C11.1664 12.0277 10.9438 11.9355 10.7797 11.7714C10.6156 11.6073 10.5234 11.3847 10.5234 11.1527C10.5234 10.9206 10.6156 10.698 10.7797 10.534C10.9438 10.3699 11.1664 10.2777 11.3984 10.2777H13.4401V8.236C13.4401 8.00394 13.5323 7.78138 13.6964 7.61728C13.8605 7.45319 14.083 7.361 14.3151 7.361C14.5472 7.361 14.7697 7.45319 14.9338 7.61728C15.0979 7.78138 15.1901 8.00394 15.1901 8.236V10.2777H17.2318C17.4638 10.2777 17.6864 10.3699 17.8505 10.534C18.0146 10.698 18.1068 10.9206 18.1068 11.1527Z" fill="#232730"/>
</svg>
