<svg width="29" height="28" viewBox="0 0 29 28" fill="none" xmlns="http://www.w3.org/2000/svg">
<path d="M24.8162 22.359L24.1062 21.6485C25.1002 17.8967 25.1303 13.9547 24.1937 10.1882C24.6728 9.97241 25.0634 9.5989 25.3004 9.12996C25.5375 8.66101 25.6065 8.12497 25.4961 7.61126C25.3857 7.09754 25.1025 6.63721 24.6938 6.30704C24.285 5.97688 23.7754 5.79684 23.25 5.79697H23.1384C23.1384 5.76066 23.1406 5.72435 23.1406 5.6876C23.1398 4.91652 22.8378 4.17628 22.2989 3.62475C21.76 3.07322 21.027 2.75406 20.2562 2.73535C20.025 2.21398 19.6473 1.77097 19.1692 1.46015C18.691 1.14933 18.1328 0.984076 17.5625 0.984473C17.2733 0.985076 16.9858 1.02932 16.7098 1.11572C16.4346 0.800159 16.0951 0.547196 15.714 0.373861C15.3329 0.200526 14.9191 0.11084 14.5004 0.11084C14.0817 0.11084 13.6679 0.200526 13.2868 0.373861C12.9057 0.547196 12.5662 0.800159 12.291 1.11572C12.0147 1.02924 11.727 0.984988 11.4375 0.984473C10.8672 0.984001 10.3091 1.14912 9.83096 1.45978C9.35277 1.77044 8.97509 2.21326 8.74378 2.73447C7.97278 2.75319 7.23962 3.07247 6.70074 3.62419C6.16185 4.17591 5.85991 4.91637 5.85934 5.6876C5.85934 5.72435 5.85934 5.76066 5.86153 5.79697H5.74997C5.2246 5.79704 4.71513 5.97722 4.30652 6.30745C3.89792 6.63769 3.61487 7.09802 3.50459 7.61168C3.3943 8.12535 3.46344 8.66129 3.70048 9.13015C3.93751 9.59901 4.32812 9.97244 4.80715 10.1882C3.87016 13.9553 3.90025 17.8982 4.89465 21.6507L4.18372 22.3585C3.73046 22.8117 3.42177 23.3891 3.29669 24.0177C3.1716 24.6464 3.23574 25.298 3.48099 25.8901C3.72624 26.4823 4.14158 26.9884 4.6745 27.3445C5.20741 27.7006 5.83396 27.8907 6.4749 27.8907H22.525C23.166 27.8908 23.7926 27.7009 24.3255 27.3448C24.8585 26.9888 25.2739 26.4826 25.5191 25.8905C25.7644 25.2983 25.8285 24.6467 25.7034 24.0181C25.5783 23.3895 25.2695 22.8121 24.8162 22.359ZM8.81247 4.26572C8.91677 4.26672 9.02064 4.27919 9.12222 4.30291C9.22291 4.32515 9.32706 4.32682 9.42842 4.30783C9.52977 4.28883 9.62625 4.24955 9.71205 4.19235C9.79785 4.13514 9.87121 4.0612 9.92773 3.97495C9.98426 3.88869 10.0228 3.79191 10.041 3.69041C10.0979 3.3614 10.2693 3.06309 10.5248 2.84815C10.7803 2.63321 11.1036 2.51547 11.4375 2.51572C11.695 2.51706 11.9471 2.58959 12.1659 2.72529C12.2558 2.77937 12.3558 2.81441 12.4598 2.82824C12.5638 2.84206 12.6696 2.83438 12.7705 2.80567C12.8714 2.77696 12.9653 2.72782 13.0465 2.66132C13.1276 2.59481 13.1942 2.51234 13.2422 2.41904C13.3587 2.18513 13.5381 1.98835 13.7603 1.85081C13.9825 1.71326 14.2386 1.64039 14.5 1.64039C14.7613 1.64039 15.0174 1.71326 15.2396 1.85081C15.4618 1.98835 15.6413 2.18513 15.7578 2.41904C15.8057 2.51234 15.8723 2.59481 15.9535 2.66132C16.0346 2.72782 16.1286 2.77696 16.2295 2.80567C16.3304 2.83438 16.4361 2.84206 16.5401 2.82824C16.6441 2.81441 16.7441 2.77937 16.834 2.72529C17.0529 2.58959 17.305 2.51706 17.5625 2.51572C17.8959 2.51583 18.2186 2.63357 18.4737 2.84821C18.7288 3.06285 18.9001 3.36062 18.9572 3.6891C18.9754 3.7906 19.0139 3.88738 19.0704 3.97363C19.127 4.05989 19.2003 4.13383 19.2861 4.19103C19.3719 4.24823 19.4684 4.28751 19.5698 4.30651C19.6711 4.32551 19.7753 4.32384 19.876 4.3016C20.0841 4.25248 20.3007 4.25134 20.5093 4.29829C20.7179 4.34524 20.9131 4.43903 21.0801 4.57258C21.2471 4.70612 21.3816 4.8759 21.4732 5.06908C21.5649 5.26226 21.6115 5.47377 21.6093 5.6876C21.6093 5.72435 21.6093 5.76066 21.605 5.79697H7.39497C7.39197 5.76059 7.39051 5.7241 7.39059 5.6876C7.39106 5.31064 7.54101 4.94924 7.80756 4.68269C8.07411 4.41614 8.4355 4.26619 8.81247 4.26572ZM5.74997 7.32822H23.25C23.453 7.32753 23.648 7.40752 23.7921 7.55061C23.9362 7.6937 24.0175 7.88817 24.0182 8.09122C24.0189 8.29428 23.9389 8.4893 23.7958 8.63337C23.6527 8.77744 23.4583 8.85878 23.2552 8.85947H5.74997C5.54691 8.85947 5.35217 8.77881 5.20859 8.63523C5.06501 8.49164 4.98434 8.2969 4.98434 8.09385C4.98434 7.89079 5.06501 7.69605 5.20859 7.55247C5.35217 7.40889 5.54691 7.32822 5.74997 7.32822ZM22.525 26.3595H6.4749C6.13701 26.3591 5.8068 26.2586 5.52602 26.0707C5.24523 25.8827 5.02646 25.6157 4.89737 25.3035C4.76828 24.9912 4.73466 24.6477 4.80076 24.3163C4.86685 23.985 5.0297 23.6806 5.26872 23.4418L6.29334 22.4163C6.38993 22.3198 6.45896 22.1992 6.49327 22.067C6.52758 21.9349 6.52592 21.796 6.48847 21.6647C5.43679 17.9869 5.38469 14.0953 6.33753 10.3907H22.6646C23.6174 14.0953 23.5653 17.9869 22.5137 21.6647C22.4762 21.796 22.4745 21.9349 22.5089 22.067C22.5432 22.1992 22.6122 22.3198 22.7088 22.4163L23.7334 23.4418C23.9726 23.6808 24.1354 23.9853 24.2015 24.3169C24.2675 24.6484 24.2337 24.9921 24.1043 25.3045C23.975 25.6168 23.7559 25.8838 23.4747 26.0716C23.1936 26.2594 22.8631 26.3596 22.525 26.3595Z" fill="#232730"/>
<path d="M13.7344 18.6668V19.6875C13.7344 19.8906 13.815 20.0853 13.9586 20.2289C14.1022 20.3725 14.2969 20.4531 14.5 20.4531C14.7031 20.4531 14.8978 20.3725 15.0414 20.2289C15.185 20.0853 15.2656 19.8906 15.2656 19.6875V18.6668C16.2798 18.5895 17.2394 18.1767 17.993 17.4935C19.3055 16.181 19.2044 14.0503 19.1992 13.9602C19.1887 13.7721 19.1093 13.5945 18.9762 13.4612C18.843 13.328 18.6654 13.2485 18.4773 13.2379C18.3867 13.2348 16.2574 13.132 14.9445 14.4441C14.778 14.6113 14.6291 14.7951 14.5 14.9927C14.3709 14.7951 14.222 14.6113 14.0555 14.4441C12.743 13.1316 10.615 13.2348 10.5227 13.2379C10.3346 13.2485 10.157 13.328 10.0238 13.4612C9.89067 13.5945 9.81127 13.7721 9.80081 13.9602C9.79556 14.0503 9.69406 16.1805 11.007 17.4935C11.7606 18.1767 12.7202 18.5895 13.7344 18.6668ZM16.0269 15.5273C16.4715 15.1338 17.0267 14.8869 17.6168 14.8203C17.551 15.4104 17.3044 15.9658 16.9106 16.4102C16.466 16.8037 15.9108 17.0506 15.3207 17.1172C15.3865 16.5271 15.6331 15.9718 16.0269 15.5273ZM12.9731 15.5273C13.3664 15.9717 13.613 16.5266 13.6793 17.1163C13.0894 17.0498 12.5343 16.8033 12.0894 16.4102C11.6961 15.9658 11.4495 15.4109 11.3832 14.8212C11.9731 14.8877 12.5282 15.1343 12.9731 15.5273ZM18.875 21.9844H10.125C9.92194 21.9844 9.7272 22.0651 9.58362 22.2086C9.44004 22.3522 9.35938 22.547 9.35938 22.75C9.35938 22.9531 9.44004 23.1478 9.58362 23.2914C9.7272 23.435 9.92194 23.5156 10.125 23.5156H18.875C19.0781 23.5156 19.2728 23.435 19.4164 23.2914C19.56 23.1478 19.6406 22.9531 19.6406 22.75C19.6406 22.547 19.56 22.3522 19.4164 22.2086C19.2728 22.0651 19.0781 21.9844 18.875 21.9844Z" fill="#232730"/>
</svg>
