<svg width="34" height="28" viewBox="0 0 34 28" fill="none" xmlns="http://www.w3.org/2000/svg">
<path d="M3.99995 24V1H0.999951V26C0.999951 26.3613 0.742981 26.7445 0.999951 27C1.25692 27.2555 1.63654 27 1.99995 27H34V24H3.99995Z" fill="#E57D36"/>
<path d="M14 13C14 12.6372 13.2544 12.2565 13 12C12.7456 11.7435 12.3598 12 12 12H8.00003C7.64026 12 7.25442 11.7435 7.00003 12C6.74563 12.2565 7.00003 12.6372 7.00003 13V23H14V13ZM23 8C23 7.63722 23.2544 7.25652 23 7C22.7456 6.74347 22.3598 7 22 7H18C17.6403 7 17.2544 6.74347 17 7C16.7456 7.25652 17 7.63722 17 8V23H23V8ZM33 2C33 1.63722 33.2544 1.25652 33 0.999998C32.7456 0.743472 32.3598 0.999998 32 0.999998H28C27.6403 0.999998 27.2544 0.743472 27 0.999998C26.7456 1.25652 26 1.63722 26 2V23H33V2Z" fill="#E57D36"/>
</svg>
