<svg width="29" height="28" viewBox="0 0 29 28" fill="none" xmlns="http://www.w3.org/2000/svg">
<path d="M21.6038 13.9971V13.9942C21.6038 10.7274 19.3265 8.77996 16.76 7.20299C19.0459 5.7938 21.1379 4.08662 21.5459 1.36663V1.36373C21.6414 0.70398 21.1322 0.11084 20.4695 0.11084H20.3508C19.8185 0.116637 19.367 0.513066 19.2773 1.05414C19.2455 1.25955 19.1934 1.45347 19.1326 1.64154H9.87901C9.81825 1.45347 9.76903 1.2625 9.73431 1.06284C9.64746 0.515965 9.19607 0.119535 8.66369 0.119535H8.54502C7.87952 0.119535 7.37312 0.71273 7.4715 1.37248C7.87367 4.09821 9.96284 5.80255 12.2517 7.20589C9.67929 8.78865 7.39625 10.7389 7.39625 14.0029C7.39045 17.2726 9.67059 19.22 12.2401 20.8028C9.95131 22.2091 7.85924 23.9163 7.45411 26.6362C7.35283 27.2988 7.86208 27.8891 8.51603 27.8891H8.64335C9.18152 27.8891 9.63292 27.4927 9.71686 26.9487C9.74869 26.7433 9.8037 26.5494 9.86446 26.3584H19.1181C19.1789 26.5465 19.231 26.7404 19.2628 26.94C19.3496 27.4869 19.801 27.8833 20.3364 27.8833H20.4521C21.1176 27.8833 21.624 27.2872 21.5256 26.6304C21.1234 23.9047 19.0342 22.2003 16.7455 20.797C19.3179 19.2171 21.6009 17.2697 21.6038 13.9971ZM19.0806 12.6255H9.92243C10.1394 12.041 10.4953 11.5202 10.9583 11.0341H18.0476C18.5106 11.5202 18.8665 12.041 19.0806 12.6255ZM17.4312 10.4554H11.5775C12.379 9.78118 13.386 9.15905 14.5029 8.51669C15.6228 9.15905 16.6297 9.77828 17.4312 10.4554ZM10.1163 2.22025H18.8954C18.5973 2.80185 18.1546 3.32269 17.6049 3.80881H11.401C10.8512 3.32269 10.4114 2.80185 10.1163 2.22025ZM12.1215 4.38751H16.8843C16.1899 4.89676 15.3825 5.38288 14.5029 5.88929C13.6233 5.38293 12.816 4.89682 12.1215 4.38751ZM18.8809 25.7797H10.1047C10.4028 25.1981 10.8454 24.6772 11.3981 24.1911H17.5932C18.1431 24.6772 18.5829 25.1981 18.8809 25.7797ZM16.8699 23.6124H12.1215C12.813 23.1032 13.6175 22.617 14.4914 22.1106C15.371 22.617 16.1783 23.1032 16.8699 23.6124ZM14.4943 19.4833C13.3716 18.8409 12.3617 18.2217 11.5602 17.5446H17.4254C16.6239 18.2217 15.6141 18.8409 14.4943 19.4833ZM18.0447 16.9659H10.9439C10.4838 16.4798 10.1279 15.9589 9.91663 15.3744H19.0777C18.8636 15.9589 18.5077 16.4798 18.0447 16.9659ZM19.2397 14.7957H9.75459C9.70543 14.544 9.6765 14.2807 9.6765 14.0058C9.6765 13.7251 9.70833 13.4589 9.76039 13.2043H19.2426C19.2918 13.4589 19.3236 13.7222 19.3236 14C19.3236 14.2777 19.2918 14.5411 19.2397 14.7957Z" fill="#232730"/>
</svg>
