<svg width="28" height="28" viewBox="0 0 28 28" fill="none" xmlns="http://www.w3.org/2000/svg">
<path d="M23.3333 16.0417H21.5833C21.3512 16.0417 21.1286 15.9495 20.9645 15.7854C20.8004 15.6213 20.7083 15.3987 20.7083 15.1667C20.7083 14.9346 20.8004 14.712 20.9645 14.5479C21.1286 14.3839 21.3512 14.2917 21.5833 14.2917H23.3333C23.7198 14.291 24.0904 14.1372 24.3638 13.8638C24.6371 13.5905 24.791 13.2199 24.7916 12.8333V5.83333C24.791 5.44675 24.6371 5.07617 24.3638 4.80282C24.0904 4.52946 23.7198 4.37562 23.3333 4.375H4.66659C4.28 4.37562 3.90943 4.52946 3.63607 4.80282C3.36271 5.07617 3.20887 5.44675 3.20825 5.83333V12.8333C3.20887 13.2199 3.36271 13.5905 3.63607 13.8638C3.90943 14.1372 4.28 14.291 4.66659 14.2917H6.41658C6.64865 14.2917 6.87121 14.3839 7.0353 14.5479C7.1994 14.712 7.29158 14.9346 7.29158 15.1667C7.29158 15.3987 7.1994 15.6213 7.0353 15.7854C6.87121 15.9495 6.64865 16.0417 6.41658 16.0417H4.66659C3.81587 16.041 3.00018 15.7028 2.39863 15.1013C1.79709 14.4997 1.45887 13.684 1.45825 12.8333V5.83333C1.45887 4.98262 1.79709 4.16693 2.39863 3.56538C3.00018 2.96384 3.81587 2.62562 4.66659 2.625H23.3333C24.184 2.62562 24.9997 2.96384 25.6012 3.56538C26.2027 4.16693 26.541 4.98262 26.5416 5.83333V12.8333C26.541 13.684 26.2027 14.4997 25.6012 15.1013C24.9997 15.7028 24.184 16.041 23.3333 16.0417Z" fill="#232730"/>
<path d="M19.2498 25.3748H8.74984C7.89912 25.3742 7.08343 25.036 6.48189 24.4345C5.88034 23.8329 5.54212 23.0172 5.5415 22.1665V8.1665C5.5415 7.93444 5.63369 7.71188 5.79779 7.54779C5.96188 7.38369 6.18444 7.2915 6.4165 7.2915H21.5832C21.8152 7.2915 22.0378 7.38369 22.2019 7.54779C22.366 7.71188 22.4582 7.93444 22.4582 8.1665V22.1665C22.4576 23.0172 22.1193 23.8329 21.5178 24.4345C20.9162 25.036 20.1006 25.3742 19.2498 25.3748ZM7.2915 9.0415V22.1665C7.29212 22.5531 7.44596 22.9237 7.71932 23.197C7.99268 23.4704 8.36325 23.6242 8.74984 23.6248H19.2498C19.6364 23.6242 20.007 23.4704 20.2804 23.197C20.5537 22.9237 20.7076 22.5531 20.7082 22.1665V9.0415H7.2915Z" fill="#232730"/>
<path d="M13.9999 21.8751C13.885 21.8754 13.7711 21.8529 13.665 21.8088C13.5588 21.7648 13.4625 21.7001 13.3816 21.6185L9.88157 18.1185C9.72701 17.9526 9.64287 17.7332 9.64686 17.5065C9.65086 17.2799 9.7427 17.0636 9.90301 16.9033C10.0633 16.7429 10.2796 16.6511 10.5063 16.6471C10.733 16.6431 10.9524 16.7273 11.1182 16.8818L13.9999 19.7623L16.8816 16.8818C17.0474 16.7273 17.2668 16.6431 17.4935 16.6471C17.7202 16.6511 17.9365 16.7429 18.0968 16.9033C18.2571 17.0636 18.3489 17.2799 18.3529 17.5065C18.3569 17.7332 18.2728 17.9526 18.1182 18.1185L14.6182 21.6185C14.5373 21.7001 14.441 21.7648 14.3348 21.8088C14.2287 21.8529 14.1148 21.8754 13.9999 21.8751Z" fill="#232730"/>
<path d="M14 21.8748C13.7679 21.8748 13.5454 21.7827 13.3813 21.6186C13.2172 21.4545 13.125 21.2319 13.125 20.9998V12.8332C13.125 12.6011 13.2172 12.3785 13.3813 12.2145C13.5454 12.0504 13.7679 11.9582 14 11.9582C14.2321 11.9582 14.4546 12.0504 14.6187 12.2145C14.7828 12.3785 14.875 12.6011 14.875 12.8332V20.9998C14.875 21.2319 14.7828 21.4545 14.6187 21.6186C14.4546 21.7827 14.2321 21.8748 14 21.8748ZM22.75 9.0415H5.25C5.01794 9.0415 4.79538 8.94932 4.63128 8.78522C4.46719 8.62113 4.375 8.39857 4.375 8.1665C4.375 7.93444 4.46719 7.71188 4.63128 7.54779C4.79538 7.38369 5.01794 7.2915 5.25 7.2915H22.75C22.9821 7.2915 23.2046 7.38369 23.3687 7.54779C23.5328 7.71188 23.625 7.93444 23.625 8.1665C23.625 8.39857 23.5328 8.62113 23.3687 8.78522C23.2046 8.94932 22.9821 9.0415 22.75 9.0415Z" fill="#232730"/>
</svg>
