<svg width="1920" height="726" viewBox="0 0 1920 726" fill="none" xmlns="http://www.w3.org/2000/svg">
<g clip-path="url(#clip0_696_8956)">
<rect width="1920" height="726" fill="#D5E6F2"/>
<path d="M310 -47.5C310 109.625 182.625 237 25.5 237C-131.625 237 -259 109.625 -259 -47.5C-259 -204.625 -131.625 -332 25.5 -332C182.625 -332 310 -204.625 310 -47.5ZM-231.208 -47.5C-231.208 94.276 -116.276 209.208 25.5 209.208C167.276 209.208 282.208 94.276 282.208 -47.5C282.208 -189.276 167.276 -304.208 25.5 -304.208C-116.276 -304.208 -231.208 -189.276 -231.208 -47.5Z" fill="white"/>
<path d="M2235 616.5C2235 773.625 2107.62 901 1950.5 901C1793.37 901 1666 773.625 1666 616.5C1666 459.375 1793.37 332 1950.5 332C2107.62 332 2235 459.375 2235 616.5ZM1693.79 616.5C1693.79 758.276 1808.72 873.208 1950.5 873.208C2092.28 873.208 2207.21 758.276 2207.21 616.5C2207.21 474.724 2092.28 359.792 1950.5 359.792C1808.72 359.792 1693.79 474.724 1693.79 616.5Z" fill="white"/>
<g filter="url(#filter0_f_696_8956)">
<circle cx="94" cy="55" r="262" fill="#D3F0FF"/>
</g>
<g opacity="0.08">
<path d="M1310.72 281.033C1219.88 215.627 1098.62 199.2 993.246 236.831C939.864 255.853 891.989 288.335 853.744 330.321C810.228 377.982 795.102 432.334 765.656 487.691C742.759 530.803 713.779 571.288 673.842 599.938C632.591 629.669 580.944 645.485 530.136 644.089C445.238 641.844 383.167 581.823 303.595 561.045C231.599 542.195 151.84 559.721 93.8293 606.328C35.8183 652.935 1.53238 727.863 4.44858 802.277" stroke="#F2F2F2" stroke-miterlimit="10"/>
<path d="M1316.07 275.585C1226.27 210.557 1106.61 193.837 1002.02 230.28C947.838 248.971 898.256 281.729 859.712 324.09C848.208 336.648 839.127 350.136 830.78 363.688C807.384 401.701 794.06 442.14 772.567 483.488C768.342 491.665 762.867 500.013 758.27 507.893C737.61 542.467 712.339 573.771 679.509 597.3C661.455 610.267 642.203 620.309 621.032 627.458C593.429 636.777 563.356 641.201 534.237 640.207C529.986 640.015 526.155 639.84 522.053 639.462C453 633.125 398.451 594.924 337.58 575.816C328.2 572.911 318.671 570.343 308.978 568.404C268.833 560.463 225.962 564.476 186.254 578.135C156.964 588.238 129.014 604.002 104.711 624.446C88.1259 638.428 73.6775 653.911 60.9636 671.427C29.6033 714.492 10.0999 766.385 9.69057 814.633" stroke="#E7EBEC" stroke-miterlimit="10"/>
<path d="M1320.63 268.515C1231.93 203.895 1113.02 186.407 1009.24 221.484C954.382 240.079 905.112 273.189 866.303 316.077C854.821 328.798 844.384 342.195 835.966 355.835C812.467 394.356 798.72 435.986 777.29 477.823C772.993 486.09 769.068 494.096 764.399 502.068C743.802 537.131 717.547 569.48 684.393 593.04C666.178 606.022 646.669 615.725 625.133 622.575C597.167 631.596 567.641 635.041 538.177 633.919C533.929 633.727 529.472 634.335 525.371 633.957C455.32 627.57 400.769 595.212 341.398 580.929C332.264 578.674 323.093 576.761 313.74 575.545C274.952 570.498 234.163 576.315 196.032 591.82C167.831 603.235 140.957 620.244 116.997 641.404C100.642 655.864 85.6716 671.618 72.6277 689.167C40.3493 732.24 17.7863 782.128 14.9328 825.989" stroke="#DDE4E6" stroke-miterlimit="10"/>
<path d="M1326.19 262.444C1238.59 198.249 1121.98 180.83 1019.02 214.933C963.456 233.296 912.463 266.474 873.272 309.846C861.712 322.666 851.412 335.7 842.934 349.604C819.219 388.584 805.64 430.668 784.419 472.997C780.212 481.341 775.652 489.958 770.905 498.025C750.372 533.767 724.626 566.695 691.059 590.403C672.675 603.412 652.376 613.44 630.395 620.098C602.057 628.836 572.3 632.076 542.656 630.819C538.241 630.648 533.957 629.809 529.69 629.452C458.726 623.118 403.217 595.784 345.434 586.42C336.564 584.984 327.92 583.701 318.718 583.063C281.208 581.016 242.924 589.896 206.187 607.288C179.085 620.197 152.508 637.627 128.878 659.522C112.743 674.471 98.2197 691.078 84.6693 708.69C51.5423 751.875 25.8856 799.8 20.5525 839.128" stroke="#D2DDE1" stroke-miterlimit="10"/>
<path d="M1330.76 255.374C1244.21 191.563 1128.39 173.232 1026.23 206.137C970.059 224.312 918.089 258.068 878.457 301.993C866.751 314.998 857.434 328.21 848.903 342.373C825.062 381.702 811.635 424.438 790.548 467.172C786.36 475.681 782.45 484.515 777.817 492.822C757.343 529.061 731.153 562.166 697.348 585.982C678.724 599.102 657.537 609.403 635.279 615.838C606.571 624.278 576.666 625.826 546.597 624.532C542.182 624.36 538.058 624.926 533.791 624.569C461.809 618.18 406.178 595.299 349.874 590.751C341.174 590.056 332.345 590.12 323.479 590.204C287.314 591.045 250.354 601.113 215.183 620.352C189.161 634.571 164.383 653.959 141.165 676.479C125.255 691.909 110.216 708.782 96.3333 726.431C62.4496 769.614 33.6594 815.603 25.7946 850.484" stroke="#C7D6DB" stroke-miterlimit="10"/>
<path d="M1336.1 249.926C1250.6 186.483 1135.72 168.529 1034.39 200.368C977.592 218.169 925.815 251.235 885.831 295.602C874.055 308.693 864.254 322.515 855.654 336.765C831.718 376.598 817.684 420.552 796.837 463.751C792.671 472.425 788.736 481.098 784.106 489.401C763.722 526.294 737.218 559.413 703.015 583.344C684.229 596.474 662.79 606.448 640.163 612.577C611.086 620.71 581.046 622.175 550.698 620.649C546.284 620.476 541.376 620.423 537.109 620.064C464.2 613.671 408.684 596.595 353.692 596.865C345.254 596.982 337.392 596.759 328.863 597.562C293.949 601.205 258.105 614.728 224.338 635.82C199.402 651.341 175.012 671.441 152.046 694.598C136.366 710.5 122.207 727.493 107.997 745.171C73.2955 788.429 41.2767 832.599 31.0367 862.841" stroke="#BCCFD5" stroke-miterlimit="10"/>
<path d="M1341.45 243.478C1256.98 180.402 1143.63 162.104 1043.16 192.817C985.657 210.354 932.843 244.089 892.582 288.994C880.733 302.177 870.985 315.74 862.405 330.157C838.268 370.436 824.536 414.847 803.748 458.548C799.676 467.296 795.628 475.727 791.017 484.198C770.692 521.592 744.078 556.27 709.464 580.329C690.51 593.476 668.906 603.015 645.829 608.94C616.358 616.607 586.195 617.975 555.582 616.389C551.074 616.141 546.976 615.455 542.616 615.021C468.765 608.638 411.56 596.041 358.133 601.195C349.936 601.96 341.819 603.178 333.624 604.703C300.05 611.231 267.178 627.095 234.899 650.128C211.06 667.128 187.746 688.3 165.115 712.178C149.659 728.561 134.291 746.693 119.822 764.317C84.2666 807.502 49.6689 849.039 37.0615 874.819" stroke="#B2C8CF" stroke-miterlimit="10"/>
<path d="M1347.71 237.142C1264.21 174.384 1152.6 155.862 1052.86 185.378C994.599 202.652 940.664 235.796 900.086 281.093C888.157 294.375 878.875 308.957 870.07 323.66C845.721 364.407 831.265 408.552 810.79 452.835C806.643 461.68 802.813 471.247 798.22 479.89C777.965 517.972 751.014 552.699 716.044 576.803C696.911 589.973 675.95 599.695 652.409 605.414C622.543 612.781 591.516 613.436 560.597 611.618C556.085 611.369 551.447 611.375 547.008 611.033C471.998 604.664 414.07 595.834 362.082 605.798C354.141 607.377 346.38 609.087 338.516 611.334C306.188 620.842 275.087 639.174 244.186 664.085C221.412 682.406 198.52 705.672 176.288 730.191C161.047 747.063 146.52 763.951 131.617 781.547C95.2089 824.848 56.9628 865.102 41.8121 886.448" stroke="#A7C1C9" stroke-miterlimit="10"/>
<path d="M1352.53 231.051C1270.17 168.741 1159.99 149.668 1061.11 178.183C1002.18 195.213 947.235 228.92 906.316 274.841C894.316 288.214 883.773 302.776 874.894 317.569C850.437 358.825 836.905 404.094 816.558 448.771C812.43 457.781 808.581 467.186 803.988 475.826C783.789 514.398 757.176 548.503 721.812 572.739C702.446 586.022 680.652 595.915 656.772 601.511C626.458 608.516 595.428 609.027 564.177 607.092C559.668 606.845 555.024 606.848 550.588 606.508C474.702 600.19 417.476 597.455 366.945 612.513C359.252 614.743 351.845 617.105 344.322 620.076C313.356 632.482 283.711 653.394 254.385 680.155C232.72 699.956 210.726 722.89 188.836 748.128C173.823 765.479 158.937 784.041 143.702 801.672C106.468 845.06 65.8032 882.677 48.0985 899.406" stroke="#9CBAC4" stroke-miterlimit="10"/>
<path d="M1357.14 223.582C1275.98 161.771 1166.56 142.891 1068.53 170.394C1008.82 187.098 953.608 220.834 912.329 267.212C900.35 280.75 889.766 294.984 880.907 309.94C856.25 351.632 842.928 397.307 822.731 442.547C818.696 451.628 814.735 460.797 810.161 469.602C790.04 508.832 763.117 544.356 727.523 568.703C707.996 582.004 685.869 591.642 661.7 596.852C631.026 603.565 599.055 603.338 567.54 601.189C562.94 600.869 559.007 600.161 554.573 599.822C477.702 593.469 419.68 595.942 370.647 615.823C363.219 618.869 356.152 621.72 348.967 625.414C319.263 640.637 291.254 664.119 263.425 692.82C242.844 713.932 221.86 738.202 200.384 764.065C185.598 781.895 170.883 801.274 155.411 819.014C117.424 862.397 73.5462 898.173 53.3849 910.363" stroke="#92B3BE" stroke-miterlimit="10"/>
<path d="M1362.53 217.736C1282.34 156.242 1173.75 136.487 1076.57 162.822C1016.13 179.236 961.298 213.517 919.747 260.423C907.621 274.143 896.612 288.718 887.702 303.933C862.854 346.069 849.736 392.297 829.687 437.945C825.674 447.194 821.669 456.029 817.116 465.001C797.065 504.731 769.261 541.371 733.234 565.667C713.536 578.979 692.037 588.822 667.411 593.816C636.351 600.216 604.196 598.424 572.308 596.125C567.705 595.802 563.248 595.957 558.719 595.541C480.87 589.159 422.773 595.986 375.132 620.756C367.871 624.539 360.623 628.743 353.772 633.156C325.333 651.349 299.677 676.544 273.247 707.107C253.748 729.527 233.321 755.901 212.092 782.407C197.533 800.715 182.14 818.96 166.336 836.734C127.519 880.201 81.2094 914.605 58.6713 922.321" stroke="#87ACB8" stroke-miterlimit="10"/>
<path d="M1368.14 211.267C1289.04 150.186 1181.96 129.732 1085.61 155.249C1024.54 171.337 967.985 205.688 925.977 253.171C913.773 266.99 903.685 281.825 894.715 297.304C869.724 339.805 856.078 387.363 836.238 433.504C832.314 442.829 828.203 451.418 823.667 460.559C803.753 500.875 776.366 538.021 739.945 562.631C720.003 576.063 696.912 585.443 671.934 590.317C640.577 596.341 608.994 595.136 576.831 592.627C572.135 592.232 567.684 590.958 563.082 590.637C484.222 584.232 426.214 596.602 379.994 626.471C373.069 630.98 366.186 635.834 359.578 640.899C332.479 661.995 308.414 689.825 283.447 722.177C265.041 746.087 244.919 772.888 224.018 800.126C209.678 818.923 194.658 838.113 178.422 855.858C138.739 899.272 89.3374 931.875 64.3354 935.062" stroke="#7CA6B2" stroke-miterlimit="10"/>
<path d="M1372.75 204.798C1294.77 144.155 1189.22 123.246 1093.65 147.677C1031.91 163.514 974.259 198.536 931.989 246.542C919.717 260.45 909.862 275.183 900.728 290.675C875.633 333.678 861.409 381.036 841.628 427.658C837.631 437.071 833.753 446.981 829.218 456.118C809.29 497.01 782.232 533.546 745.496 558.19C725.397 571.638 702.271 581.984 676.862 586.659C645.152 592.391 613.217 589.495 580.816 586.941C576.124 586.547 571.044 586.054 566.444 585.734C486.711 579.372 427.792 596.883 383.074 631.563C376.321 636.813 369.87 642.233 363.601 648.019C337.858 671.998 315.315 702.174 291.865 736.624C274.544 761.84 256.832 789.828 236.348 817.686C222.237 836.957 206.694 856.423 190.131 874.2C149.628 917.695 97.1427 948.272 69.6218 947.019" stroke="#719FAC" stroke-miterlimit="10"/>
<path d="M1378.35 198.329C1301.45 138.087 1197.27 116.708 1102.69 140.105C1040.16 155.616 982.281 190.827 939.624 239.13C927.278 253.131 916.856 268.387 907.741 284.046C882.442 327.494 868.341 375.166 848.801 422.434C844.823 432.014 840.814 441.517 836.391 450.894C816.611 492.359 789.255 530.304 752.206 555.153C731.942 568.622 709.19 577.836 683.413 582.218C651.335 587.658 618.636 585.432 585.962 582.66C581.27 582.267 576.263 581.679 571.59 581.453C490.776 575.141 431.778 596.83 388.559 636.496C382.049 642.393 375.962 648.471 370.029 654.979C345.463 681.866 324.668 714.687 302.687 750.911C286.538 777.513 269.205 807.448 249.057 836.028C235.243 855.688 219.735 874.727 202.839 892.543C161.504 936.133 105.885 964.761 75.9083 958.977" stroke="#6798A6" stroke-miterlimit="10"/>
<path d="M1383.74 192.483C1307.84 132.583 1204.79 111.466 1110.89 133.938C1047.69 149.101 989.377 184.256 946.42 233.124C933.993 247.224 923.002 261.397 913.753 277.417C888.24 321.334 874.552 370.913 855.134 418.615C851.247 428.274 847.223 437.6 842.724 447.075C822.919 489.157 795.414 527.292 757.917 552.117C737.493 565.778 713.977 575.329 687.719 579.342C655.249 584.486 622.374 580.663 589.324 577.757C584.537 577.289 579.74 577.017 574.953 576.55C493.157 570.247 433.383 596.917 391.639 641.588C385.387 648.305 379.03 655.647 373.429 662.881C350.194 692.673 332.482 727.867 311.887 765.981C296.736 794.004 279.898 824.504 259.982 853.748C246.386 873.9 231.164 893.805 213.925 911.667C171.806 955.282 112.938 981.973 80.5722 971.718" stroke="#5C91A1" stroke-miterlimit="10"/>
<path d="M1389.14 186.637C1314.22 127.063 1211.96 104.9 1118.93 126.366C1054.91 141.158 996.444 176.306 953.055 225.712C940.557 239.9 929.243 256.083 919.926 272.193C894.32 316.621 881.261 365.834 862.09 414.013C858.227 423.839 853.553 433.782 849.057 443.256C829.421 485.907 802.151 524.786 764.411 549.704C743.819 563.372 719.977 572.532 693.43 576.306C660.575 581.134 626.89 576.533 593.47 573.476C588.679 573.005 583.962 572.647 579.098 572.269C496.331 565.933 435.734 597.663 395.501 647.303C389.421 654.759 384.212 661.961 378.857 669.841C356.977 702.514 340.194 741.166 321.087 781.051C307.028 810.384 291.809 841.441 272.313 871.307C258.947 891.936 243.222 912.284 225.633 930.009C182.595 973.625 120.786 998.401 85.8587 983.676" stroke="#518A9B" stroke-miterlimit="10"/>
<path d="M1394.74 180.168C1320.9 120.994 1220.07 98.2783 1127.97 118.794C1063.33 133.234 1003.73 169.147 960.067 219.083C947.498 233.361 936.235 249.29 926.939 265.564C901.134 310.43 888.374 360.118 869.263 408.789C865.326 418.706 860.613 428.319 856.23 438.032C836.581 481.269 809.176 520.125 770.961 545.262C750.207 558.948 726.346 569.076 699.358 572.647C666.045 577.105 632.382 572.38 598.615 569.195C593.752 568.817 589.107 568.366 584.244 567.988C500.473 561.601 439.71 597.617 400.986 652.235C395.243 660.412 389.68 668.982 384.662 677.584C364.058 713.235 349.429 753.442 331.909 795.338C318.952 826.148 303.301 858.37 284.239 889.027C271.1 910.134 256.261 930.591 238.342 948.352C194.55 991.962 129.55 1015.06 92.145 995.633" stroke="#478395" stroke-miterlimit="10"/>
<path d="M1399.35 173.699C1326.65 114.981 1227.26 91.6659 1136.01 111.222C1070.68 125.281 1010.12 162.033 966.08 212.454C953.453 226.998 942.476 242.379 932.952 258.935C907 304.162 892.942 354.57 874.031 403.726C870.182 413.716 866.242 423.784 861.781 433.591C842.261 477.406 814.594 517.812 776.05 543.009C755.057 556.818 730.924 564.979 703.503 568.366C669.835 572.552 635.908 567.598 601.978 564.291C597.025 563.843 592.634 563.44 587.606 563.084C502.962 556.783 441.236 597.803 404.066 657.328C398.49 666.249 393.37 675.378 388.685 684.704C369.318 723.177 356.397 766.111 340.326 809.785C328.434 841.91 314.685 875.983 295.947 907.369C283.024 928.962 267.684 949.669 249.428 967.476C204.796 1011.2 136.712 1032.21 96.8092 1008.37" stroke="#3C7C8F" stroke-miterlimit="10"/>
<path d="M1403.96 167.23C1332.29 108.871 1233.77 85.6905 1143.43 104.433C1077.29 118.137 1017.02 154.097 972.715 205.042C960.017 219.675 948.465 235.586 938.964 252.306C912.914 298.044 898.877 348.87 880.204 398.502C876.377 408.658 873.083 418.943 868.736 428.989C849.212 473.392 820.551 513.253 781.601 538.567C760.441 552.389 736.135 561.552 708.432 564.707C674.386 568.585 640.321 563.384 606.124 560.01C601.169 559.56 595.923 558.631 590.969 558.181C505.287 551.796 444.281 597.669 408.551 662.26C403.22 671.828 397.837 682.4 393.491 692.446C375.478 733.803 364.81 778.533 350.149 824.073C339.438 857.582 325.908 892.37 307.495 924.306C294.802 946.376 278.921 967.19 260.353 985.196C214.968 1028.91 144.384 1048.65 102.096 1020.33" stroke="#317589" stroke-miterlimit="10"/>
<path d="M1409.57 160.761C1339.01 102.832 1241.87 79.0322 1152.47 96.8606C1085.62 110.166 1024.41 146.995 979.728 198.413C966.955 213.141 955.555 228.864 945.977 245.677C919.715 291.862 905.84 343.168 887.377 393.278C883.566 403.6 879.636 414.502 875.287 424.548C855.901 469.524 827.497 510.093 788.312 535.531C766.988 549.378 742.425 558.178 714.36 561.049C679.955 564.645 644.947 558.687 610.486 555.107C605.442 554.585 601.141 554.255 596.115 553.9C509.469 547.667 447.4 598.344 413.414 667.975C408.342 678.358 403.932 688.638 399.919 699.406C383.238 743.651 373.534 791.664 360.349 839.142C350.633 874.055 337.505 909.367 319.421 942.025C306.947 964.578 291.982 985.657 273.062 1003.54C226.749 1047.28 153.101 1065.12 108.382 1032.29" stroke="#266E84" stroke-miterlimit="10"/>
<path d="M1415.52 154.16C1345.99 96.5922 1250.54 72.0845 1161.86 89.1557C1094.34 101.949 1031.28 139.052 986.306 191.029C973.454 205.855 962.975 221.835 953.338 238.915C926.863 285.564 912.689 338.073 894.275 388.704C890.556 399.104 886.517 409.757 882.186 419.974C862.776 465.562 834.123 506.254 794.588 531.74C773.089 545.611 748.536 555.371 720.014 558.04C685.223 561.342 650.808 554.404 615.98 550.693C610.933 550.171 605.854 549.219 600.826 548.864C513.124 542.575 450.455 598.532 417.841 672.935C412.937 684.063 409.061 694.972 405.29 706.394C389.872 753.638 381.815 804.016 370.114 853.457C361.475 889.697 350.232 926.841 332.477 960.235C320.222 983.278 304.757 1004.6 285.496 1022.53C238.331 1066.39 161.667 1082.18 114.394 1044.9" stroke="#1C677E" stroke-miterlimit="10"/>
<path d="M1420.17 147.293C1351.71 90.1212 1257.69 65.0748 1169.94 81.1853C1082.19 97.2958 1001.87 154.35 957.99 232.048C925.842 288.882 913.494 354.183 888.403 414.352C858.576 485.626 806.957 547.238 724.986 553.983C684.715 557.316 644.614 546.386 604.233 543.562C515.624 537.289 452.69 597.482 421.588 676.847C397.888 737.364 391.891 803.069 379.198 866.723C366.43 930.471 344.376 996.007 296.465 1039.85C248.555 1083.7 168.593 1097.74 118.942 1055.83" stroke="#116078" stroke-miterlimit="10"/>
<path d="M1410.22 160.894C1341.5 107.161 1249.03 86.0897 1162.35 103.057C1152.43 105.032 1143.06 107.755 1133.33 110.639C1058.43 133.029 991.241 183.038 951.165 248.139C932.483 278.506 920.394 311.042 908.03 344.157C898.518 369.675 888.493 395.561 876.863 420.305C845.644 487.442 793.516 545.074 712.484 551.506C672.599 554.693 633.311 544.709 593.296 542.33C506.103 537.034 443.492 596.589 412.679 674.672C406.844 689.456 401.887 703.64 397.817 719.069C385.719 765.597 380.76 814.259 371.373 861.578C369.311 872.381 366.408 883.059 363.659 893.772C350.41 945.758 328.123 996.623 289.103 1032.52C241.887 1075.86 164.214 1090.51 114.711 1050.99" stroke="#11677E" stroke-miterlimit="10"/>
<path d="M1399.26 173.496C1330.49 123.213 1240.13 106.707 1154.55 124.551C1144.72 126.599 1134.38 128.554 1124.74 131.511C1050.61 154.058 984.671 201.703 943.34 263.23C924.041 291.893 909.939 322.851 896.754 353.948C886.478 377.949 876.477 402.144 864.323 425.259C831.628 488.342 778.976 541.983 698.983 548.029C659.403 551.005 620.9 541.947 581.36 540.098C495.727 536.045 432.781 594.139 401.988 670.874C396.134 685.493 391.139 700.1 387.125 715.271C375.122 761.118 370.174 808.899 361.144 855.592C359.064 866.231 357.509 877.005 354.835 887.627C341.848 938.913 319.831 987.825 281.363 1023.4C234.94 1066.31 158.118 1081.7 108.696 1044.52" stroke="#126E85" stroke-miterlimit="10"/>
<path d="M1390.09 186.72C1321.04 139.854 1232.79 126.51 1148.37 145.263C1138.71 147.452 1128.82 149.913 1119.34 152.845C1045.95 175.514 978.946 220.563 936.515 278.321C916.601 305.277 901.881 334.5 887.883 363.579C877.015 386.044 866.749 408.327 854.188 430.052C820.01 488.91 767.831 539.378 688.669 545.015C649.375 547.758 608.822 538.659 569.641 537.243C485.428 534.311 423.593 590.994 392.918 666.294C387.126 680.655 382.081 695.683 378.056 710.691C366.093 755.956 362.14 803.352 353.32 849.447C351.32 859.995 348.822 870.327 346.228 880.859C333.451 931.546 312.626 980.535 274.784 1015.69C229.078 1058.25 153.85 1073.55 104.465 1038.68" stroke="#12748B" stroke-miterlimit="10"/>
<path d="M1378.57 199.077C1309.66 155.813 1223.28 146.861 1139.99 166.512C1130.45 168.785 1120.34 171.08 1110.97 174.094C1038.54 197.069 972.594 239.615 928.907 293.79C908.542 319.019 892.353 345.825 877.446 372.966C865.971 393.883 855.031 415.203 841.866 435.384C806.099 490.092 752.058 536.795 673.979 542.076C635.06 544.66 597.411 536.747 558.705 536.011C476.118 534.369 414.528 590.065 384.01 664.119C378.19 678.306 373.659 692.922 369.77 707.733C357.954 752.354 353.225 798.252 344.713 843.679C342.777 854.126 340.243 864.734 337.621 875.091C325.06 925.036 303.834 972.978 266.639 1007.74C221.657 1049.8 149.304 1066.18 100.234 1033.84" stroke="#137B92" stroke-miterlimit="10"/>
<path d="M1368.61 211.678C1299.51 171.903 1214.48 166.774 1132.4 187.384C1122.95 189.731 1114.08 191.885 1104.78 194.806C1033.14 217.944 966.256 257.828 921.3 308.259C900.319 331.782 884.136 357.495 868.575 382.597C856.502 401.976 843.995 421.621 830.326 440.337C793.158 490.893 739.829 533.625 662.883 538.438C624.373 540.891 586.175 534.127 547.768 533.779C466.746 533.226 405.369 586.935 374.94 659.539C369.083 673.391 364.609 688.509 360.701 703.153C348.976 747.085 345.124 792.647 336.888 837.533C334.933 847.813 332.967 857.899 330.419 868.162C318.116 917.4 296.605 965.512 260.059 1000.02C215.875 1041.66 144.189 1057.36 95.2195 1027.37" stroke="#138298" stroke-miterlimit="10"/>
<path d="M1358.66 224.28C1289.31 187.958 1206.36 185.902 1125.44 207.473C1116.17 209.968 1107.1 213.231 1097.98 216.3C1027.07 239.606 960.086 277.256 913.852 324.133C892.243 345.962 874.763 369.201 858.299 392.388C845.548 410.332 833.06 428.104 818.786 445.291C780.196 491.719 725.775 531.222 649.759 535.744C611.611 537.894 573.544 531.505 535.427 531.707C455.743 532.25 395.646 585.709 365.409 657.146C359.531 670.839 354.863 684.963 351.009 699.356C339.3 742.719 335.709 787.248 327.659 831.548C325.852 841.648 323.664 852.001 321.19 862.177C309.237 910.811 288.633 957.573 252.697 991.691C209.286 1032.92 139.181 1049.89 90.3657 1022.31" stroke="#13899F" stroke-miterlimit="10"/>
<path d="M1349.48 238.504C1280.02 205.578 1199.37 208.255 1119.42 230.59C1110.23 233.153 1101.08 236.353 1091.95 239.417C1021.77 262.845 955.235 297.653 907.81 340.846C885.578 360.964 867.404 382.402 850.21 403.641C836.862 420.046 822.903 436.221 808.029 451.867C767.863 494.155 713.944 530.495 638.822 534.512C600.955 536.428 562.233 529.673 524.491 530.475C446.295 532.047 386.388 583.652 356.34 653.566C350.522 667.003 345.805 681.544 341.94 695.775C330.438 738.542 326.958 783.405 319.212 827.185C317.486 837.196 315.779 847.111 313.365 857.031C301.697 904.979 281.505 951.188 246.118 984.98C203.401 1025.69 134.917 1042.75 86.1343 1017.47" stroke="#148FA5" stroke-miterlimit="10"/>
<path d="M1336.96 249.861C1267.45 220.537 1188.53 226.074 1109.88 249.435C1100.9 252.153 1092.23 255.739 1083.21 258.883C1013.98 282.603 947.161 315.143 898.42 354.693C875.585 373.109 856.878 392.885 838.774 412.028C824.738 426.818 810.701 441.234 795.328 455.416C753.779 493.551 698.559 526.597 624.538 530.413C587.137 532.238 549.919 526.844 512.554 528.243C436.045 530.991 376.401 581.801 346.431 650.391C340.662 663.559 335.691 677.236 331.871 691.195C320.356 733.334 317.111 777.215 309.605 820.417C307.851 830.252 306.106 840.444 303.758 850.263C292.313 897.465 270.928 942.017 236.19 975.401C194.294 1015.69 128.695 1033.84 80.1202 1011" stroke="#1496AB" stroke-miterlimit="10"/>
<path d="M1327.79 263.085C1258.07 237.091 1181.45 247.34 1103.86 271.551C1094.96 274.339 1085.26 277.256 1076.4 280.378C1007.91 304.232 941.699 335.318 891.755 371.189C868.459 387.877 848.742 404.462 829.902 421.659C815.264 434.91 800.549 448.35 784.571 460.992C741.601 494.971 685.07 523.541 612.036 526.936C574.915 528.533 538.533 524.099 501.618 526.011C426.599 529.8 367.134 578.569 337.362 645.811C331.577 658.817 326.635 672.816 322.802 686.615C311.395 728.087 309.008 771.752 301.781 814.271C300.106 824.019 297.42 833.764 295.151 843.495C283.984 890.015 263.73 934.717 229.61 967.69C188.404 1007.47 124.165 1025.63 75.8886 1005.16" stroke="#149DB2" stroke-miterlimit="10"/>
<path d="M1317.05 276.064C1247.29 253.667 1171.92 267.689 1095.49 292.801C1086.69 295.664 1078.12 298.363 1069.43 301.467C1001.76 325.497 934.469 353.835 883.365 386.035C859.461 401.018 839.904 416.493 820.249 431.668C804.942 443.472 788.799 455.053 772.249 466.323C727.89 496.149 671.56 521.49 599.534 524.459C562.751 525.862 526.475 521.678 489.899 524.156C416.395 528.984 358.214 577.771 328.453 643.636C322.723 656.378 317.513 669.501 313.732 683.035C302.336 723.897 300.133 766.541 293.174 808.503C291.571 818.154 290.239 828.007 287.949 837.567C276.958 883.455 256.331 926.849 222.871 959.574C182.474 998.923 119.797 1018.41 71.6572 1000.31" stroke="#15A4B8" stroke-miterlimit="10"/>
<path d="M1307.1 288.665C1237.15 269.62 1164.56 287.466 1089.3 313.512C1080.68 316.52 1071.32 319.86 1062.63 322.961C995.696 347.132 928.938 372.684 876.54 401.126C852.009 414.397 830.364 428.235 809.972 441.459C794.062 451.722 778.506 460.933 761.331 470.494C715.55 496.156 658.925 519.119 587.815 521.604C551.416 522.858 515.078 518.926 478.963 521.924C406.974 527.808 349.018 575.881 319.545 640.46C313.797 653.038 309.167 665.799 305.446 679.077C294.246 719.339 292.108 760.993 285.349 802.358C283.731 811.845 281.555 821.329 279.342 830.799C268.624 875.996 248.345 918.928 215.508 951.241C175.901 990.158 115.414 1010.17 67.4258 994.468" stroke="#15AABF" stroke-miterlimit="10"/>
<path d="M1296.36 300.644C1226.33 285.169 1155.01 306.778 1080.93 333.762C1072.41 336.849 1064.18 339.962 1055.66 343.05C989.663 367.504 922.451 390.626 868.933 415.595C843.803 427.175 821.611 439.327 800.318 450.468C783.821 459.2 767.458 467.342 749.791 475.448C702.568 497.077 645.903 515.167 575.936 517.345C539.896 518.428 503.782 516.107 468.026 519.692C397.59 526.656 339.959 572.679 310.475 635.88C304.778 648.193 300.033 661.319 296.377 674.497C285.169 714.143 282.653 755.74 276.12 796.372C274.642 805.668 272.806 814.752 270.735 824.031C260.338 868.57 240.436 911.073 208.146 942.907C169.254 981.328 110.225 1001.29 62.4117 988.002" stroke="#16B1C5" stroke-miterlimit="10"/>
<path d="M1285.4 313.246C1215.3 301.196 1146.11 327.418 1073.13 355.256C1064.79 358.488 1056.36 361.294 1047.85 364.544C982.54 389.227 915.915 409.483 861.108 430.686C835.446 440.625 812.475 450.912 790.447 460.099C773.18 467.306 755.596 473.748 737.251 480.401C688.703 497.934 631.456 512.009 562.434 513.868C526.69 514.726 491.472 513.431 456.09 517.46C387.18 525.477 329.85 570.875 300.567 632.705C294.761 644.778 289.903 656.996 286.308 669.916C275.207 708.882 273.533 750.125 267.296 790.227C265.896 799.431 263.997 808.772 261.911 817.885C251.79 861.726 231.518 903.065 199.784 934.574C161.614 972.649 104.927 993.119 57.1803 982.158" stroke="#16B8CC" stroke-miterlimit="10"/>
<path d="M1275.45 326.848C1205.19 318.309 1137.91 347.535 1066.16 376.345C1057.92 379.652 1050.1 383.097 1041.67 386.256C977.162 411.113 909.791 429.997 853.66 447.56C827.466 455.706 803.634 462.936 780.793 470.107C762.936 475.78 744.646 481.236 725.711 486.355C675.781 499.746 617.956 509.961 549.933 511.391C514.521 512.055 480.183 511.468 445.154 516.228C377.745 525.277 320.602 568.682 291.497 629.125C285.746 640.935 280.855 653.587 277.239 666.336C266.242 704.77 264.751 744.983 258.689 784.459C257.268 793.493 255.318 803.1 253.304 812.117C243.433 855.239 223.52 896.144 192.422 927.241C154.964 964.809 100.476 985.829 52.9489 977.314" stroke="#16BFD2" stroke-miterlimit="10"/>
<path d="M1265.49 339.449C1194.97 334.381 1129.26 367.51 1058.57 397.217C1050.42 400.599 1042.33 403.82 1034.08 407.128C970.301 432.158 904.099 448.682 846.836 462.652C820.002 469.093 794.963 475.202 771.3 480.521C752.829 484.656 733.646 487.82 714.171 491.309C662.814 500.715 604.617 508.274 537.591 509.319C502.556 509.846 467.554 508.842 432.812 514.156C366.815 524.217 311.071 567.602 281.966 626.733C276.267 638.291 271.11 650.04 267.547 662.539C256.638 700.314 256.025 740.129 250.242 779.096C248.896 788.044 247.42 797.04 245.479 805.972C235.865 848.42 215.456 888.128 185.059 918.907C148.372 956.07 94.7822 977.804 47.3123 971.63" stroke="#17C5D8" stroke-miterlimit="10"/>
<path d="M1256.32 352.673C1185.74 351.043 1122.22 388.668 1052.55 419.334C1044.58 422.861 1036.24 426.032 1028.06 429.245C965.13 454.493 899.355 468.163 840.793 478.365C813.331 483.091 786.851 486.956 762.428 490.152C743.258 492.667 724.193 494.067 704.037 496.102C651.251 501.334 591.875 505.823 525.872 506.465C491.209 506.678 456.223 505.994 421.876 511.924C357.394 522.883 301.643 564.41 272.897 622.152C267.181 633.545 262.839 646.247 259.261 658.581C248.453 695.676 247.91 734.513 242.418 772.95C241.149 781.808 238.829 790.438 236.872 799.204C227.529 840.955 207.54 880.115 177.697 910.574C141.805 947.303 90.3836 969.552 43.0809 965.787" stroke="#17CCDF" stroke-miterlimit="10"/>
<path d="M1244.58 364.652C1173.86 366.542 1112.39 407.139 1043.8 438.801C1035.93 442.404 1028.17 446.045 1020.09 449.334C957.976 474.762 890.579 486.516 830.781 492.994C802.718 496.024 777.078 497.883 751.775 499.161C732.018 500.145 712.072 500.571 691.497 501.056C637.36 502.323 577.438 502.672 512.37 502.988C478.046 503.011 443.948 503.194 409.94 509.692C347.06 521.764 291.725 562.605 262.988 618.977C257.326 630.107 252.717 641.931 249.192 654.001C238.485 690.563 237.436 729.25 232.188 766.965C231.064 775.632 229.859 784.481 228.048 793.058C218.877 834.18 198.541 872.194 169.335 902.24C134.155 938.464 85.0177 961.33 37.8495 959.943" stroke="#17D3E5" stroke-miterlimit="10"/>
<path d="M1234.62 378.254C1163.83 383.577 1104.49 428.77 1036.99 461.295C1029.3 465.043 1021.2 468.562 1013.29 471.828C951.925 497.397 884.878 506.235 823.956 509.085C795.351 510.469 768.244 509.759 742.121 509.17C721.752 508.604 701.144 508.074 679.957 507.01C624.306 504.187 564.013 500.678 499.869 500.511C465.93 500.385 432.545 501.441 399.003 508.46C337.542 521.353 282.623 561.798 254.079 616.802C248.4 627.766 243.663 638.515 240.122 650.421C229.52 686.304 229.318 724.632 224.364 761.819C223.225 770.323 221.268 778.878 219.441 787.29C210.637 827.79 191.407 865.804 162.755 895.529C128.37 931.319 80.7155 954.155 33.618 955.099" stroke="#18DAEC" stroke-miterlimit="10"/>
<path d="M1223.88 390.233C1152.98 399.114 1094.86 448.014 1028.62 481.544C1021.03 485.372 1014.14 488.571 1006.32 491.917C945.789 517.695 878.54 524.291 816.348 523.554C787.236 523.17 759.211 520.777 732.467 518.178C711.361 516.117 690.722 513.852 669.039 511.181C612.154 504.343 550.996 496.726 487.989 496.251C454.409 495.956 421.164 498.55 388.067 506.228C328.138 520.19 273.467 558.511 245.01 612.222C239.382 622.923 234.621 634.108 231.053 645.84C220.443 681.113 220.467 718.427 215.757 755.051C214.684 763.456 214.091 772.121 212.239 780.362C203.661 820.134 184.033 857.091 156.016 886.413C122.339 921.707 75.3767 945.304 28.6039 948.633" stroke="#18E0F2" stroke-miterlimit="10"/>
<path d="M1213.93 402.835C1142.89 415.08 1087.57 467.864 1022.44 502.256C1014.94 506.154 1007.33 510.069 999.513 513.412C939.849 539.404 872.913 543.078 809.523 538.645C779.786 536.544 750.622 533.129 722.973 528.592C701.262 524.983 679.861 520.261 657.499 516.134C599.043 505.307 538.24 494.273 476.27 493.397C442.995 492.882 409.917 495.776 377.131 503.996C318.732 518.856 264.362 556.717 236.101 609.047C230.364 619.506 226.35 630.317 222.767 641.883C212.353 676.541 212.371 712.985 207.932 748.906C206.937 757.218 205.407 765.446 203.632 773.594C195.327 812.66 175.944 849.104 148.653 878.08C115.779 912.934 71.0579 937.125 24.3724 942.789" stroke="#19E7F9" stroke-miterlimit="10"/>
<path d="M1202.97 415.436C1123.59 433.023 1065.71 500.534 991.547 533.501C905.063 571.844 801.392 558.212 712.319 537.601C600.083 511.77 480.632 469.755 365.194 501.763C296.866 520.71 233.433 569.435 212.698 637.302C199.896 679.163 203.786 724.672 194.808 767.448C177.071 851.962 104.249 922.087 19.141 936.945" stroke="#19EEFF" stroke-miterlimit="10"/>
</g>
</g>
<defs>
<filter id="filter0_f_696_8956" x="-408" y="-447" width="1004" height="1004" filterUnits="userSpaceOnUse" color-interpolation-filters="sRGB">
<feFlood flood-opacity="0" result="BackgroundImageFix"/>
<feBlend mode="normal" in="SourceGraphic" in2="BackgroundImageFix" result="shape"/>
<feGaussianBlur stdDeviation="120" result="effect1_foregroundBlur_696_8956"/>
</filter>
<clipPath id="clip0_696_8956">
<rect width="1920" height="726" fill="white"/>
</clipPath>
</defs>
</svg>
