<svg width="1920" height="320" viewBox="0 0 1920 320" fill="none" xmlns="http://www.w3.org/2000/svg">
<g clip-path="url(#clip0_294_2087)">
<rect width="1920" height="320" fill="#D5E6F2"/>
<path d="M310 -47.5C310 109.625 182.625 237 25.5 237C-131.625 237 -259 109.625 -259 -47.5C-259 -204.625 -131.625 -332 25.5 -332C182.625 -332 310 -204.625 310 -47.5ZM-231.208 -47.5C-231.208 94.276 -116.276 209.208 25.5 209.208C167.276 209.208 282.208 94.276 282.208 -47.5C282.208 -189.276 167.276 -304.208 25.5 -304.208C-116.276 -304.208 -231.208 -189.276 -231.208 -47.5Z" fill="white"/>
<path d="M2235 210.5C2235 367.625 2107.62 495 1950.5 495C1793.37 495 1666 367.625 1666 210.5C1666 53.375 1793.37 -74 1950.5 -74C2107.62 -74 2235 53.375 2235 210.5ZM1693.79 210.5C1693.79 352.276 1808.72 467.208 1950.5 467.208C2092.28 467.208 2207.21 352.276 2207.21 210.5C2207.21 68.724 2092.28 -46.2082 1950.5 -46.2082C1808.72 -46.2082 1693.79 68.724 1693.79 210.5Z" fill="white"/>
<g filter="url(#filter0_f_294_2087)">
<circle cx="94" cy="55" r="262" fill="#D3F0FF"/>
</g>
<g opacity="0.08">
<path d="M1718.57 66.4726C1616.67 -20.5896 1473.6 -52.2273 1344.13 -17.7836C1278.55 -0.3848 1218.2 33.6216 1168.39 79.9251C1111.74 132.476 1088.29 195.83 1047.66 258.962C1016.06 308.131 977.463 353.563 926.965 383.785C874.792 415.166 811.594 428.912 751.106 422.204C650.026 411.098 581.919 333.317 489.032 300.626C404.994 270.986 308.084 283.982 234.237 333.837C160.39 383.692 112.041 469.696 108.134 558.779" stroke="#F2F2F2" stroke-miterlimit="10"/>
<path d="M1725.49 60.5023C1624.8 -26.0044 1483.67 -57.833 1355.26 -24.7295C1288.75 -7.80556 1226.33 26.3612 1176.13 73.0828C1161.16 86.9255 1148.98 102.119 1137.68 117.46C1105.99 160.497 1086.08 207.427 1056.33 254.632C1050.47 263.97 1043.11 273.387 1036.84 282.334C1008.76 321.538 975.499 356.383 933.989 381.2C911.159 394.88 887.19 404.953 861.219 411.381C827.356 419.761 791.033 422.054 756.386 417.978C751.333 417.327 746.779 416.738 741.921 415.879C660.154 401.464 598.855 350.467 528.119 321.624C517.214 317.226 506.099 313.217 494.726 309.94C447.611 296.481 396.057 297.014 347.32 309.37C311.368 318.518 276.452 334.555 245.423 356.536C224.246 371.575 205.469 388.614 188.559 408.253C146.864 456.527 118.441 516.513 113.163 574.043" stroke="#E7EBEC" stroke-miterlimit="10"/>
<path d="M1731.64 52.5187C1632.2 -33.3928 1492.05 -66.0629 1364.74 -34.5094C1297.43 -17.7662 1235.36 16.8521 1184.79 64.1751C1169.83 78.2147 1156.05 93.1637 1144.65 108.604C1112.78 152.237 1092.25 200.547 1062.52 248.341C1056.58 257.779 1051.1 266.943 1044.74 275.991C1016.68 315.786 982.138 351.779 940.239 376.602C917.215 390.284 892.974 399.925 866.596 405.962C832.33 413.95 796.756 415.13 761.711 410.866C756.66 410.215 751.283 410.498 746.427 409.64C663.473 395.066 601.592 351.04 532.166 328.105C521.491 324.506 510.738 321.314 499.697 318.934C453.915 309.061 404.668 311.954 357.628 326.671C322.845 337.492 289.09 355.12 258.399 377.99C237.448 393.621 218.022 410.934 200.715 430.579C157.924 478.772 126.049 536.06 118.29 588.114" stroke="#DDE4E6" stroke-miterlimit="10"/>
<path d="M1738.88 45.8275C1640.72 -39.4686 1503.3 -71.828 1377.06 -41.356C1308.94 -24.9592 1244.8 9.56894 1193.73 57.432C1178.66 71.5818 1165.08 86.1112 1153.58 101.861C1121.41 146.019 1101.03 194.887 1071.51 243.29C1065.66 252.828 1059.36 262.658 1052.9 271.813C1024.85 312.423 990.862 349.159 948.456 374.116C925.227 387.814 900.01 397.765 873.121 403.528C838.44 411.142 802.611 412.054 767.364 407.612C762.113 406.97 757.083 405.543 752.027 404.693C667.98 390.092 604.457 351.966 536.437 335.057C525.996 332.463 515.809 330.073 504.892 328.399C460.337 322.233 413.773 329.029 368.212 346.136C334.59 358.848 301.148 377.009 270.779 400.789C250.042 417.026 231.064 435.399 213.146 455.07C169.331 503.312 133.96 557.952 123.692 604.35" stroke="#D2DDE1" stroke-miterlimit="10"/>
<path d="M1745.02 37.8439C1648.09 -46.8879 1511.71 -80.2577 1386.54 -51.1358C1317.71 -35.0237 1252.34 0.0970192 1200.69 48.5762C1185.43 62.9316 1173.01 77.7727 1161.42 93.8254C1129.07 138.388 1108.8 188.049 1079.4 236.948C1073.56 246.686 1068.02 256.838 1061.66 266.29C1033.64 307.5 999.1 344.402 956.398 369.465C932.873 383.272 906.57 393.46 879.371 398.929C844.278 406.151 808.441 405.029 772.69 400.5C767.439 399.858 762.461 400.124 757.405 399.274C672.148 384.505 608.038 351.681 541.306 340.666C530.993 338.972 520.451 338.172 509.864 337.393C466.627 334.806 421.525 343.151 377.648 362.616C345.187 377 313.696 397.675 283.756 422.243C263.24 439.075 243.62 457.716 225.303 477.397C180.585 525.561 141.667 577.58 128.82 618.421" stroke="#C7D6DB" stroke-miterlimit="10"/>
<path d="M1751.94 31.8737C1656.21 -52.3165 1520.92 -85.1425 1396.84 -57.2095C1327.3 -41.6058 1262.24 -7.28971 1210.13 41.6821C1194.78 56.1336 1181.71 71.6535 1170.03 87.8035C1137.52 132.958 1116.41 184.013 1087.24 233.49C1081.41 243.426 1075.86 253.385 1069.51 262.833C1041.52 304.831 1006.61 341.72 963.421 366.88C939.702 380.682 913.13 390.455 885.521 395.524C850.019 402.342 814.028 401.108 777.968 396.275C772.717 395.63 766.867 395.08 761.811 394.228C675.447 379.363 610.898 353.476 545.254 348.339C535.173 347.641 525.814 346.595 515.557 346.707C473.535 347.588 429.422 360.166 387.037 381.982C355.741 398.027 324.643 419.591 294.94 444.942C274.652 462.361 256.07 481.232 237.36 500.917C191.658 549.089 149.068 598.616 133.847 633.685" stroke="#BCCFD5" stroke-miterlimit="10"/>
<path d="M1758.96 24.7105C1664.43 -58.9386 1530.99 -92.0237 1408.06 -65.3485C1337.7 -50.1307 1271.34 -15.1186 1218.84 34.4672C1203.39 49.0218 1190.41 64.2371 1178.74 80.5885C1145.94 126.255 1125.15 177.885 1096.01 227.968C1090.28 238.002 1084.61 247.661 1078.27 257.311C1050.31 299.913 1015.11 338.65 971.416 363.923C947.494 377.729 920.768 386.967 892.644 391.746C856.718 397.969 820.59 396.607 784.219 391.676C778.864 390.934 774.043 389.707 768.883 388.757C681.395 373.811 614.386 353.101 550.123 353.948C540.266 354.046 530.459 354.695 520.53 355.701C479.82 360.158 439.022 375.824 398.218 400.103C368.085 418.022 338.164 440.971 308.791 467.217C288.721 485.232 268.584 505.343 249.569 524.936C202.857 572.937 157.45 619.066 139.848 648.577" stroke="#B2C8CF" stroke-miterlimit="10"/>
<path d="M1767.06 17.7714C1673.65 -65.4027 1542.32 -98.581 1420.37 -73.2634C1349.14 -58.4333 1281.49 -24.2385 1228.58 25.7837C1213.02 40.4484 1200.5 56.9264 1188.53 73.5976C1155.44 119.801 1133.8 171.042 1104.98 221.849C1099.15 231.992 1093.63 243.028 1087.29 252.885C1059.34 296.316 1023.74 335.078 979.618 360.369C955.48 374.184 929.503 383.704 900.846 388.192C864.478 394.018 827.389 391.72 790.676 386.481C785.317 385.737 779.782 385.283 774.519 384.435C685.647 369.389 617.401 353.103 554.378 359.832C544.746 360.928 535.316 362.198 525.709 364.098C486.19 372.235 447.259 391.023 407.914 417.68C378.922 437.28 349.296 462.77 320.334 489.82C300.474 508.44 281.463 527.149 261.933 546.666C214.192 594.72 164.56 638.957 144.362 662.924" stroke="#A7C1C9" stroke-miterlimit="10"/>
<path d="M1773.42 10.982C1681.32 -71.5441 1551.75 -105.239 1430.94 -81.0286C1358.93 -66.5571 1290.02 -31.7914 1236.63 18.9425C1220.98 33.7086 1206.96 50.038 1194.9 66.8081C1161.62 113.608 1140.98 166.283 1112.26 217.573C1106.44 227.914 1100.92 238.755 1094.58 248.608C1066.65 292.629 1031.51 330.682 986.904 356.092C962.477 370.019 935.49 379.66 906.44 383.967C869.573 389.317 832.495 386.847 795.398 381.436C790.042 380.694 784.5 380.236 779.241 379.39C689.318 364.319 621.305 355.375 559.514 368.327C550.114 370.224 541.042 372.308 531.769 375.106C493.589 386.836 456.139 408.846 418.49 437.867C390.672 459.344 362.152 484.527 333.527 512.468C313.891 531.683 294.285 552.354 274.357 571.879C225.621 619.956 173.364 660.805 150.578 679.009" stroke="#9CBAC4" stroke-miterlimit="10"/>
<path d="M1779.66 2.5275C1688.95 -79.2847 1560.26 -112.674 1440.56 -89.5867C1367.66 -75.5807 1298.42 -40.8073 1244.56 10.4361C1228.93 25.4009 1214.88 41.3346 1202.83 58.3018C1169.27 105.603 1148.84 158.782 1120.25 210.759C1114.53 221.194 1108.89 231.742 1102.56 241.794C1074.66 286.608 1039.01 326.324 994.119 351.843C969.498 365.776 942.139 375.079 912.783 378.897C875.515 383.863 837.388 380.419 799.996 374.726C794.539 373.888 789.916 372.652 784.66 371.807C693.565 356.597 624.085 353.789 563.603 372.644C554.438 375.541 545.722 378.242 536.782 381.936C499.827 397.153 464.075 422.392 428.019 453.877C401.366 477.026 373.917 503.903 345.724 532.631C326.312 552.439 306.829 574.103 286.606 593.735C236.973 641.73 181.065 680.065 155.798 692.609" stroke="#92B3BE" stroke-miterlimit="10"/>
<path d="M1786.67 -3.91363C1697.09 -85.2509 1569.48 -119.601 1450.91 -97.824C1377.16 -84.2367 1308.33 -48.7746 1254.09 3.07106C1238.26 18.2392 1223.68 34.5377 1211.53 51.8089C1177.7 99.62 1157.46 153.479 1129.01 205.958C1123.3 216.596 1117.64 226.741 1111.32 236.994C1083.45 282.412 1046.64 323.372 1001.24 348.787C976.411 362.716 949.78 372.327 919.9 375.841C882.202 380.396 844.012 375.065 806.189 369.157C800.729 368.315 795.396 368.056 790.033 367.111C697.773 351.769 627.773 354.148 568.467 378.975C559.427 382.769 550.361 387.066 541.749 391.652C506.008 410.538 472.893 438.055 438.323 471.9C412.83 496.717 385.838 526.159 357.876 555.68C338.686 576.081 318.508 596.324 297.886 615.963C247.253 663.977 188.579 700.433 160.92 707.403" stroke="#87ACB8" stroke-miterlimit="10"/>
<path d="M1794.01 -11.0758C1705.68 -91.8123 1579.95 -126.847 1462.44 -105.962C1387.98 -92.8272 1317.08 -57.4521 1262.24 -4.96336C1246.31 10.3146 1232.8 27.0141 1220.56 44.5948C1186.52 92.8277 1165.52 148.221 1137.26 201.309C1131.66 212.046 1125.9 221.888 1119.58 232.344C1091.81 278.474 1055.45 320.08 1009.54 345.83C984.416 359.878 955.932 368.779 925.644 372.116C887.629 376.191 850.063 371.618 811.933 365.432C806.37 364.494 801.185 362.533 795.725 361.693C702.263 346.222 631.817 355.224 573.701 386.277C564.99 390.97 556.295 396.079 547.907 401.466C513.478 423.949 482 454.769 448.998 490.894C424.661 517.598 397.99 547.58 370.347 578.007C351.37 599.013 331.543 620.421 310.408 639.983C258.747 687.847 196.563 721.847 166.414 723.167" stroke="#7CA6B2" stroke-miterlimit="10"/>
<path d="M1800.15 -18.3372C1713.12 -98.4386 1589.26 -133.864 1472.79 -114.199C1397.55 -101.431 1325.28 -65.3632 1270.07 -12.2765C1254.05 3.10006 1240.83 19.7021 1228.39 37.2817C1194.18 86.1038 1172.51 141.201 1144.27 194.868C1138.57 205.704 1132.96 217.144 1126.64 227.596C1098.8 274.412 1062.89 315.323 1016.61 341.082C991.291 355.134 962.669 365.183 931.887 368.24C893.48 371.932 855.661 365.307 817.252 359.043C811.692 358.107 805.68 357.014 800.223 356.176C705.714 340.671 633.672 355.716 576.87 392.66C568.291 398.253 560.055 404.08 552 410.362C518.903 436.42 489.008 470.19 457.607 508.969C434.436 537.337 410.524 568.976 383.316 600.184C364.565 621.779 344.086 643.464 322.558 663.032C269.912 710.911 204.249 742.187 171.534 737.961" stroke="#719FAC" stroke-miterlimit="10"/>
<path d="M1807.48 -25.4994C1721.7 -105.016 1599.51 -140.868 1484.33 -122.337C1408.18 -110.036 1335.61 -73.7664 1279.92 -20.3626C1263.8 -4.88251 1249.85 12.2878 1237.42 30.0677C1202.92 79.3997 1181.36 134.885 1153.35 189.347C1147.65 200.383 1141.93 211.324 1135.72 222.075C1108 269.589 1071.59 312.151 1024.92 338.125C999.4 352.185 971.336 360.92 940.143 363.59C901.327 366.898 862.53 360.996 823.817 354.445C818.257 353.51 812.341 352.312 806.788 351.578C710.983 336.025 638.432 356.049 582.925 399.089C574.571 405.481 566.705 412.128 558.979 419.305C526.997 448.95 498.926 486.049 469.102 527.091C447.191 557.23 423.538 591.23 396.659 623.332C378.225 645.42 357.831 666.599 335.901 686.18C282.251 734.09 213.043 762.73 177.848 752.853" stroke="#6798A6" stroke-miterlimit="10"/>
<path d="M1814.49 -31.9406C1729.87 -110.95 1609 -146.376 1494.73 -128.882C1417.81 -117.062 1344.73 -80.9026 1288.63 -26.8556C1272.4 -11.2639 1257.88 4.55626 1245.25 22.7544C1210.45 72.6256 1189.19 130.426 1161.29 185.418C1155.69 196.558 1149.96 207.286 1143.65 218.146C1115.85 266.394 1079.24 309.168 1032.03 335.069C1006.31 349.342 977.299 358.405 945.568 360.586C906.313 363.502 867.465 355.676 828.317 348.928C822.651 347.894 816.955 347.095 811.288 346.061C714.312 330.422 640.34 356.312 586.095 405.472C577.969 412.866 569.654 420.996 562.253 429.072C531.571 462.314 506.943 502.551 478.585 545.986C457.724 577.921 434.605 612.642 407.939 645.56C389.714 668.257 369.576 690.497 347.232 710.101C292.645 757.963 219.752 783.968 182.15 768.518" stroke="#5C91A1" stroke-miterlimit="10"/>
<path d="M1821.5 -38.3815C1738.02 -116.903 1618.2 -153.5 1505.07 -137.119C1427.21 -125.823 1353.96 -89.6873 1297.28 -35.041C1280.96 -19.352 1265.85 -1.16469 1253.13 17.1337C1218.17 67.6053 1197.7 125.031 1170.04 180.618C1164.46 191.959 1157.9 203.359 1151.59 214.218C1123.93 263.162 1087.53 306.847 1040.02 332.833C1014.09 347.099 984.735 355.662 952.683 357.53C913.001 360.03 873.263 351.196 833.688 344.231C828.019 343.194 822.426 342.298 816.659 341.364C718.528 325.588 643.071 357.436 590.136 412.675C582.141 420.967 575.21 429.044 568.038 437.916C538.687 474.731 514.825 519.185 488.066 564.881C468.379 598.487 447.136 634.035 420.909 667.737C402.913 691.025 382.129 713.745 359.382 733.149C303.698 780.921 227.486 804.349 187.27 783.312" stroke="#518A9B" stroke-miterlimit="10"/>
<path d="M1828.84 -45.5439C1746.6 -123.482 1628.55 -160.595 1516.61 -145.257C1438.05 -134.444 1363.35 -97.5072 1306.3 -42.2551C1289.89 -26.4653 1274.87 -8.57657 1262.16 9.91965C1226.91 60.8938 1206.76 118.917 1179.12 175.097C1173.44 186.538 1166.86 197.541 1160.67 208.697C1132.93 258.338 1096.37 301.983 1048.28 328.184C1022.15 342.454 992.678 352.171 960.12 353.753C919.927 355.765 880.228 346.786 840.253 339.634C834.487 338.7 828.989 337.701 823.224 336.767C723.899 320.831 647.819 357.776 596.191 419.104C588.527 428.291 581.038 437.965 574.197 447.731C546.073 488.226 524.626 534.75 499.561 583.003C481.043 618.48 459.169 655.375 433.38 690.064C415.607 713.946 395.87 736.884 372.725 756.297C316.143 803.988 236.289 825.099 193.584 798.204" stroke="#478395" stroke-miterlimit="10"/>
<path d="M1834.98 -52.8052C1754.06 -130.086 1637.78 -167.772 1526.96 -153.494C1447.6 -143.204 1371.69 -105.361 1314.14 -49.5683C1297.63 -33.4673 1283 -16.2033 1269.99 2.60646C1234.54 53.9967 1212.76 112.751 1185.32 169.528C1179.73 181.067 1174.03 192.689 1167.73 203.948C1140.09 254.293 1103.07 299.76 1054.58 326C1028.15 340.394 998.549 347.736 965.493 349.056C924.903 350.709 884.913 341.431 844.754 334.117C838.888 333.09 833.688 332.173 827.725 331.25C727.349 315.329 649.624 358.149 599.363 425.487C591.823 435.578 584.808 445.963 578.292 456.626C551.363 500.611 531.684 550.559 508.173 601.078C490.793 638.23 471.006 677.522 445.532 713.113C427.968 737.596 407.608 760.782 384.056 780.218C326.459 827.965 243.134 846.276 197.887 813.87" stroke="#3C7C8F" stroke-miterlimit="10"/>
<path d="M1841.12 -60.0668C1761.39 -136.817 1646.13 -174.257 1536.48 -160.859C1456.2 -151.072 1380.71 -114.145 1322.79 -57.7538C1306.19 -41.5541 1290.82 -23.7145 1277.83 -4.70696C1242.2 47.2835 1220.41 106.539 1193.2 163.907C1187.62 175.646 1182.67 187.591 1176.49 199.148C1148.78 250.193 1110.63 294.911 1061.64 321.251C1035.02 335.643 1005.11 344.164 971.735 345.18C930.726 346.428 890.595 336.84 850.124 329.42C844.257 328.391 838.089 326.761 832.223 325.733C730.616 309.609 653.269 358.291 604.223 431.817C596.912 442.704 589.44 454.785 583.256 466.341C557.657 513.902 540.488 566.217 518.473 619.101C502.367 658.022 482.77 698.19 457.628 734.469C440.291 759.544 419.276 782.804 395.333 802.446C336.839 850.102 250.656 866.65 203.006 828.663" stroke="#317589" stroke-miterlimit="10"/>
<path d="M1848.45 -67.2288C1770.01 -143.357 1656.46 -181.397 1548.02 -168.997C1466.94 -159.756 1390.23 -121.886 1331.82 -64.9676C1315.11 -48.6616 1299.95 -31.0322 1286.85 -11.9207C1250.93 40.5823 1229.28 100.425 1202.28 158.386C1196.7 170.325 1190.93 182.943 1184.75 194.499C1157.15 246.242 1119.23 291.831 1069.95 318.295C1043.13 332.7 1012.95 340.762 979.172 341.403C937.762 342.279 896.581 331.695 855.816 324.002C849.848 322.879 844.749 322.058 838.787 321.135C736.017 305.098 656.923 359.406 609.458 439.12C602.376 451.005 596.093 462.833 590.236 475.284C565.94 526.423 549.595 582.751 529.149 638.095C514.091 678.79 494.92 719.622 470.1 756.797C452.977 782.469 433.028 806.136 408.676 825.594C349.072 873.196 259.422 887.167 209.32 843.556" stroke="#266E84" stroke-miterlimit="10"/>
<path d="M1856.21 -74.5149C1778.96 -150.109 1667.49 -188.827 1559.99 -177.259C1478.15 -168.697 1399.22 -130.682 1340.4 -73.1259C1323.59 -56.71 1309.5 -38.6823 1296.31 -19.2587C1260.09 33.7769 1237.96 95.0256 1210.96 153.612C1205.49 165.654 1199.62 177.964 1193.43 189.725C1165.75 242.196 1127.52 287.907 1077.81 314.394C1050.78 328.811 1020.52 338.02 986.218 338.374C944.377 338.86 904 327.166 862.81 319.281C856.84 318.157 850.874 316.516 844.909 315.593C740.885 299.384 660.551 359.933 614.25 445.477C607.294 458.269 601.586 470.901 595.952 484.155C572.866 538.999 558.251 598.312 539.381 656.145C525.475 698.531 508.373 741.736 483.873 779.821C466.962 806.1 446.392 830.012 421.629 849.491C360.996 897.142 267.95 908.381 215.244 859.196" stroke="#1C677E" stroke-miterlimit="10"/>
<path d="M1862.45 -82.2473C1786.43 -157.262 1676.73 -196.481 1570.43 -185.967C1464.12 -175.454 1362.62 -115.347 1302.54 -26.9911C1258.54 37.6343 1237.32 114.328 1201.41 183.634C1158.74 265.721 1091.03 334.115 992.555 334.027C944.17 334.006 897.405 316.983 849.501 309.605C744.393 293.325 663.323 358.903 618.332 450.517C584.046 520.375 570.368 598.182 548.904 672.877C527.341 747.675 494.52 823.687 432.999 871.248C371.479 918.809 274.671 927.635 219.585 872.698" stroke="#116078" stroke-miterlimit="10"/>
<path d="M1849.22 -67.0056C1772.55 -137.943 1664.31 -172.265 1559.2 -160.622C1547.16 -159.251 1535.71 -156.931 1523.81 -154.457C1432.22 -135.173 1347.08 -82.1709 1292.8 -8.46791C1267.49 25.9126 1249.84 63.5365 1231.8 101.823C1217.91 131.328 1203.38 161.22 1187.05 189.592C1143.13 266.604 1075.21 330.198 977.881 329.83C929.972 329.673 884.083 313.86 836.572 307.05C733.056 292.076 652.434 356.924 607.916 447.037C599.486 464.099 592.163 480.531 585.775 498.538C566.721 552.856 555.973 610.429 540.076 665.96C536.543 678.647 532.019 691.1 527.676 703.61C506.706 764.327 475.063 822.809 424.941 861.767C364.299 908.792 270.163 918.565 215.015 866.498" stroke="#11677E" stroke-miterlimit="10"/>
<path d="M1834.89 -53.0565C1757.83 -119.882 1651.64 -148.547 1547.75 -135.749C1535.82 -134.282 1523.29 -132.975 1511.49 -130.404C1420.8 -110.858 1337.39 -60.5512 1281.96 8.7626C1256.09 41.0489 1236.19 76.589 1217.37 112.387C1202.73 140.006 1188.39 167.883 1171.59 194.258C1126.32 266.286 1058.17 325.066 962.117 324.341C914.594 323.963 869.549 309.332 822.552 303.201C720.774 289.865 639.898 352.937 595.537 441.444C587.102 458.307 579.691 475.241 573.396 492.945C554.522 546.46 543.876 602.983 528.465 657.803C524.927 670.29 522.003 682.993 517.758 695.401C497.17 755.309 466.044 811.487 416.611 850.12C356.957 896.713 263.763 907.45 208.482 858.185" stroke="#126E85" stroke-miterlimit="10"/>
<path d="M1822.63 -38.1876C1744.89 -100.963 1640.91 -125.646 1538.31 -111.649C1526.58 -109.995 1514.53 -108.041 1502.93 -105.484C1413.1 -85.7188 1328.68 -38.6148 1272.32 26.0926C1245.88 56.28 1225.42 89.6889 1205.83 122.998C1190.63 148.726 1176.17 174.296 1159.02 198.972C1112.4 265.81 1045.13 320.852 950.108 319.72C902.949 319.093 855.462 304.21 808.851 298.632C708.656 286.775 629.246 348.273 585.169 435.079C576.832 451.64 569.32 469.071 563.028 486.58C544.26 539.404 534.838 595.566 519.738 649.693C516.304 662.082 512.299 674.162 508.158 686.471C487.881 745.685 458.169 802.073 409.525 840.266C350.762 886.513 259.479 897.303 204.012 850.792" stroke="#12748B" stroke-miterlimit="10"/>
<path d="M1807.66 -24.5866C1729.73 -83.0499 1627.55 -102.306 1526.22 -87.1245C1514.6 -85.3597 1502.32 -83.6252 1490.83 -80.959C1402.12 -60.7332 1319.21 -16.5125 1261.71 43.7954C1234.9 71.8778 1212.92 102.257 1192.44 133.163C1176.67 156.983 1161.5 181.337 1143.79 204.111C1095.68 265.84 1026.56 316.204 932.872 314.755C886.175 313.976 842.036 300.796 795.924 296.076C697.541 285.92 618.521 346.264 574.754 431.599C566.402 447.95 559.545 464.94 553.434 482.228C534.905 534.298 524.707 588.596 510.041 641.956C506.693 654.23 502.618 666.636 498.46 678.734C478.514 737.084 448.429 792.184 400.596 829.965C342.745 875.698 254.786 888.058 199.444 844.593" stroke="#137B92" stroke-miterlimit="10"/>
<path d="M1794.53 -10.5381C1716.03 -64.8578 1615.07 -79.4194 1515.09 -62.9727C1503.58 -61.1106 1492.79 -59.4214 1481.4 -56.859C1393.61 -36.3609 1309.84 4.59157 1251.2 60.305C1223.82 86.2911 1201.96 115.366 1180.9 143.774C1164.57 165.7 1147.7 187.9 1129.53 208.876C1080.16 265.511 1012.29 311.208 919.994 309.313C873.799 308.418 828.892 296.554 783.098 292.327C686.473 283.625 607.905 341.62 564.39 425.233C556.025 441.181 549.186 458.777 543.069 475.862C524.718 527.12 515.599 581.104 501.317 633.846C497.964 645.919 494.617 657.758 490.557 669.752C470.989 727.283 440.546 782.557 393.512 820.111C336.657 865.409 249.56 877.023 194.105 836.379" stroke="#138298" stroke-miterlimit="10"/>
<path d="M1781.4 3.51037C1702.26 -46.7136 1603.48 -57.4009 1504.78 -39.693C1493.47 -37.6367 1482.33 -34.6439 1471.14 -31.8867C1384.21 -11.1161 1300.55 27.1611 1240.73 78.5071C1212.78 102.409 1189.61 128.404 1167.67 154.438C1150.67 174.583 1134.01 194.55 1115.27 213.641C1064.61 265.211 995.753 306.945 904.598 304.796C858.866 303.575 814.076 292.173 768.574 288.63C673.438 281.369 596.423 339.192 553.251 421.433C544.878 437.188 537.906 453.578 531.879 470.369C513.603 520.95 504.898 573.727 490.895 625.788C487.737 637.661 484.098 649.797 480.135 661.694C461.045 718.54 431.818 772.293 385.552 809.436C329.659 854.321 244.323 867.618 188.812 829.858" stroke="#13899F" stroke-miterlimit="10"/>
<path d="M1769.04 19.5723C1689.42 -26.6119 1592.92 -31.4215 1495.3 -12.7073C1484.09 -10.5611 1472.85 -7.65102 1461.66 -4.90101C1375.59 16.0887 1292.74 51.0176 1231.86 97.8505C1203.34 119.649 1179.52 143.425 1156.9 167.063C1139.34 185.312 1121.08 203.227 1101.78 220.42C1049.65 266.893 981.709 304.903 891.672 302.24C846.297 300.768 800.763 288.864 755.648 286.074C662.186 280.188 585.581 335.819 542.786 416.26C534.51 431.716 527.438 448.6 521.414 465.197C503.444 515.086 494.839 568.272 481.25 619.744C478.197 631.519 475.176 643.18 471.311 654.777C452.629 710.832 423.948 763.966 378.368 800.775C323.356 845.117 239.945 858.668 184.245 823.658" stroke="#148FA5" stroke-miterlimit="10"/>
<path d="M1752.97 31.8809C1672.94 -10.0092 1578.21 -11.2361 1482.06 8.83248C1471.06 11.1836 1460.36 14.6024 1449.29 17.4591C1364.33 38.8918 1281.37 71.0866 1219.28 113.441C1190.21 133.149 1165.92 154.89 1142.42 175.934C1124.2 192.189 1106.02 207.998 1086.27 223.394C1032.91 264.775 963.738 298.725 875.034 295.931C830.225 294.397 786.35 284.266 741.626 282.226C650.06 277.91 573.847 332.619 531.278 411.488C523.086 426.628 515.797 442.454 509.853 458.732C491.931 507.871 483.703 559.909 470.458 610.714C467.389 622.276 464.294 634.265 460.519 645.748C442.177 700.935 412.237 751.973 367.473 788.361C313.481 832.275 233.405 847.425 177.71 815.346" stroke="#1496AB" stroke-miterlimit="10"/>
<path d="M1740.72 46.7497C1660.11 8.81355 1567.66 13.4364 1472.67 34.625C1461.78 37.068 1449.92 39.586 1439.03 42.4313C1354.94 64.0967 1272.85 94.6174 1209.69 132.463C1180.24 150.063 1155.07 167.897 1130.88 186.546C1112.1 200.905 1093.2 215.481 1072.88 228.98C1018.24 265.26 947.946 293.74 860.462 290.541C816.01 288.762 773.037 279.86 728.799 278.477C638.907 275.552 563.111 327.843 520.911 405.123C512.717 420.068 505.43 436.281 499.487 452.367C481.759 500.72 474.576 552.586 461.732 602.604C458.766 614.07 454.594 625.432 450.921 636.818C432.978 691.218 404.373 742.548 360.387 778.506C307.27 821.888 228.815 837.181 173.242 807.952" stroke="#149DB2" stroke-miterlimit="10"/>
<path d="M1726.61 61.171C1645.59 27.5219 1554.27 36.7716 1460.58 59.1497C1449.79 61.6924 1439.3 64.063 1428.63 66.9042C1345.49 88.8597 1262.38 115.995 1198.21 149.345C1168.2 164.85 1143.33 181.375 1118.37 197.53C1098.93 210.097 1078.52 222.313 1057.65 234.118C1001.76 265.304 932.029 289.951 845.79 286.344C801.76 284.367 758.889 275.774 714.999 275.101C626.812 273.566 552.545 326.005 510.496 401.643C502.393 416.278 494.874 431.42 489.02 447.194C471.365 494.821 464.504 545.487 452.034 594.868C449.163 606.224 446.597 617.849 442.915 629.029C425.245 682.693 396.325 732.425 353.15 768.153C301.042 811.096 224.319 828.127 168.673 801.753" stroke="#15A4B8" stroke-miterlimit="10"/>
<path d="M1713.48 75.2196C1631.92 45.5511 1543.53 59.6408 1451.14 83.2499C1440.56 85.9834 1429.05 89.0394 1418.37 91.8765C1336.11 114.075 1253.91 137.938 1188.57 166.675C1157.98 180.076 1130.78 194.438 1105.13 208.194C1085.13 218.861 1065.65 228.308 1044.21 238.012C987.035 264.089 917.188 285.868 832.09 281.775C788.532 279.658 745.563 271.36 702.171 271.352C615.687 271.227 541.76 322.837 500.181 396.97C492.075 411.408 485.284 426.175 479.526 441.649C462.165 488.579 455.48 538.071 443.309 586.758C440.436 597.918 436.898 609.018 433.317 620.099C416.042 672.966 387.582 722.181 345.193 757.479C294.069 799.985 219.907 817.858 164.205 794.36" stroke="#15AABF" stroke-miterlimit="10"/>
<path d="M1699.48 88.4477C1617.45 63.0302 1530.21 81.7356 1439.14 106.581C1428.67 109.42 1418.54 112.317 1408.06 115.156C1326.89 137.785 1244.39 158.703 1178.05 183.185C1146.92 194.508 1119.23 206.805 1092.72 217.985C1072.17 226.768 1051.83 234.858 1029.95 242.777C971.453 263.898 902.042 279.86 818.338 275.513C775.226 273.228 732.364 266.874 689.344 267.603C604.605 268.92 531.269 318.117 489.815 390.604C481.794 404.732 474.829 419.922 469.159 435.284C451.85 481.479 444.718 530.864 432.89 578.7C430.204 589.644 427.111 600.303 423.719 611.169C406.891 663.282 378.925 712.023 337.236 746.804C287.015 788.789 214.598 806.746 158.864 786.146" stroke="#16B1C5" stroke-miterlimit="10"/>
<path d="M1685.16 102.404C1602.7 81.0663 1517.54 105.488 1427.69 131.461C1417.42 134.49 1407.08 137.001 1396.61 140.036C1316.23 163.005 1234.72 180.562 1167.22 200.422C1135.61 209.734 1107.18 219.729 1079.98 228.504C1058.66 235.391 1037.04 241.332 1014.49 247.45C954.82 263.551 885.114 274.665 802.57 270.031C759.833 267.507 717.939 262.466 675.319 263.762C592.298 266.487 519.383 314.967 478.303 385.839C470.178 399.669 463.168 413.766 457.596 428.826C440.482 474.219 434.391 523.265 422.968 570.497C420.384 581.341 417.191 592.299 413.797 602.966C397.368 654.274 369.076 701.589 328.082 736.037C278.757 777.681 209.084 796.48 153.199 778.661" stroke="#16B8CC" stroke-miterlimit="10"/>
<path d="M1671.93 117.645C1588.94 100.483 1505.76 128.679 1417.29 155.934C1407.12 159.062 1397.45 162.396 1387.08 165.329C1307.64 188.586 1225.37 204.433 1156.65 219.818C1124.59 226.937 1095.43 233.199 1067.47 239.489C1045.6 244.485 1023.23 249.18 1000.13 253.409C939.221 264.431 869.209 270.88 787.898 265.835C745.577 263.112 704.663 259.003 662.392 261.206C581.059 265.312 508.566 311.433 467.837 380.667C459.802 394.188 452.71 408.799 447.129 423.654C430.192 468.423 424.421 516.258 413.269 562.76C410.678 573.399 407.397 584.669 404.099 595.229C388.04 645.704 360.219 692.537 320.025 726.556C271.599 767.666 204.496 787.339 148.63 772.461" stroke="#16BFD2" stroke-miterlimit="10"/>
<path d="M1658.79 131.694C1575.16 118.646 1493.46 151.655 1406.16 180.086C1396.09 183.312 1386.12 186.352 1375.95 189.481C1297.36 213.016 1216.73 226.162 1147.01 237.148C1114.35 242.171 1083.87 246.975 1055.11 250.973C1032.66 254.074 1009.45 255.945 985.867 258.174C923.652 264.301 853.459 267.544 773.377 262.138C731.52 259.289 689.854 254.617 647.871 257.509C568.122 262.963 497.299 309.198 456.701 376.866C448.753 390.092 441.433 403.6 435.941 418.16C419.175 462.153 414.492 509.6 403.722 555.523C401.228 566.067 398.574 576.655 395.372 587.12C379.686 636.816 351.392 682.171 312.066 715.881C264.601 756.583 198.498 777.198 142.468 765.12" stroke="#17C5D8" stroke-miterlimit="10"/>
<path d="M1646.54 146.563C1562.48 137.612 1482.95 176.202 1396.78 205.878C1386.91 209.296 1376.65 212.252 1366.57 215.274C1288.98 239.155 1209.13 248.937 1138.24 255.298C1105 258.211 1073.02 260.195 1043.56 261.584C1020.44 262.682 997.552 262.461 973.298 262.888C909.793 263.892 838.498 263.354 759.677 257.568C718.294 254.382 676.615 250.093 635.043 253.76C557.013 260.436 486.366 304.453 446.334 370.501C438.382 383.527 431.94 398.253 426.447 412.615C409.869 455.806 405.366 502.093 394.997 547.413C392.603 557.856 388.978 567.923 385.774 578.189C370.481 627.081 342.742 671.824 304.109 705.207C257.635 745.47 194.069 766.915 137.999 757.727" stroke="#17CCDF" stroke-miterlimit="10"/>
<path d="M1631.34 159.692C1546.77 154.927 1469.39 197.267 1384.41 228.239C1374.65 231.756 1365.04 235.332 1355.07 238.454C1278.43 262.63 1196.84 269.965 1124.84 271.76C1091.06 272.59 1060.28 272.263 1029.96 271.276C1006.29 270.489 982.444 269.017 957.845 267.554C893.121 263.693 821.585 258.162 743.913 252.079C702.953 248.7 662.248 245.534 621.023 249.911C544.794 258.074 474.712 301.315 434.827 365.728C426.966 378.446 420.293 392.098 414.888 406.15C398.484 448.715 393.392 494.774 383.386 539.256C381.184 549.487 378.868 559.926 375.856 569.98C360.831 618.138 332.791 661.479 294.96 694.433C249.386 734.164 188.484 756.571 132.338 750.234" stroke="#17D3E5" stroke-miterlimit="10"/>
<path d="M1618.11 174.933C1533.11 174.259 1457.82 222.294 1374.05 254.404C1364.5 258.113 1354.49 261.508 1344.72 264.62C1268.96 289.039 1188.08 292.929 1115.1 290.283C1080.83 289.095 1048.56 285.557 1017.44 282.261C993.197 279.564 968.659 276.887 943.483 273.513C877.358 264.621 805.763 254.45 729.24 247.883C688.756 244.364 648.814 242.31 608.095 247.356C533.476 256.639 463.93 299.449 424.412 362.249C416.547 374.767 409.827 387.124 404.421 400.978C388.207 442.743 384.162 488.457 374.559 532.339C372.356 542.373 369.171 552.387 366.157 562.243C351.631 609.696 324.913 653.147 287.773 685.772C243.191 725.064 184.061 747.583 127.769 744.034" stroke="#18DAEC" stroke-miterlimit="10"/>
<path d="M1604.11 188.162C1518.63 191.721 1444.42 244.301 1362.05 277.735C1352.61 281.549 1344.07 284.683 1334.41 287.899C1259.62 312.65 1178.72 313.845 1104.59 306.793C1069.89 303.445 1036.69 297.808 1005.03 292.052C980.052 287.497 955.649 282.747 930.042 277.406C862.843 263.601 790.623 248.441 715.488 241.621C675.448 237.936 635.521 237.73 595.267 243.607C522.371 254.318 453.332 294.618 414.045 355.883C406.267 368.093 399.476 380.967 394.054 394.613C377.893 435.648 374.217 480.174 364.961 523.409C362.847 533.331 361.279 543.612 358.251 553.261C344.068 599.867 316.978 642.018 280.637 674.225C236.95 712.997 178.57 736.492 122.428 735.821" stroke="#18E0F2" stroke-miterlimit="10"/>
<path d="M1590.98 202.21C1505 209.77 1433.75 267.263 1352.62 301.835C1343.28 305.743 1333.82 309.659 1324.16 312.871C1250.38 337.964 1170.15 335.704 1094.95 324.123C1059.67 318.663 1025.21 311.694 992.67 303.536C967.122 297.074 942.055 289.315 915.781 282.172C847.104 263.449 775.646 244.248 701.789 237.051C662.134 233.134 622.377 233.304 582.439 239.858C511.281 251.793 442.646 291.573 403.73 351.21C395.846 363.12 389.983 375.623 384.56 389.067C368.693 429.389 365.097 472.878 356.235 515.299C354.222 525.118 351.58 534.785 348.654 544.331C334.866 590.122 308.119 631.684 272.679 663.551C229.993 701.876 174.229 726.304 117.96 728.428" stroke="#19E7F9" stroke-miterlimit="10"/>
<path d="M1576.65 216.159C1480.18 229.265 1404.42 304.077 1312.65 336.052C1205.65 373.22 1083.3 346.663 979.062 313.228C847.701 271.265 709.338 209.274 568.416 236.009C485.004 251.835 404.477 303.679 372.998 382.603C353.567 431.281 353.691 485.97 338.732 536.122C309.18 635.207 215.324 711.653 112.295 720.935" stroke="#19EEFF" stroke-miterlimit="10"/>
</g>
</g>
<defs>
<filter id="filter0_f_294_2087" x="-408" y="-447" width="1004" height="1004" filterUnits="userSpaceOnUse" color-interpolation-filters="sRGB">
<feFlood flood-opacity="0" result="BackgroundImageFix"/>
<feBlend mode="normal" in="SourceGraphic" in2="BackgroundImageFix" result="shape"/>
<feGaussianBlur stdDeviation="120" result="effect1_foregroundBlur_294_2087"/>
</filter>
<clipPath id="clip0_294_2087">
<rect width="1920" height="320" fill="white"/>
</clipPath>
</defs>
</svg>
